<mxfile host="app.diagrams.net" modified="2022-12-13T16:06:23.916Z" agent="5.0 (Windows NT 10.0; Win64; x64) AppleWebKit/537.36 (KHTML, like Gecko) Chrome/108.0.0.0 Safari/537.36" version="20.6.2" etag="iu0DNLBPv-RneW_UThen" type="github">
  <diagram id="f-0e-KGe8S_NGs1IbSF1" name="第 1 页">
    <mxGraphModel dx="2130" dy="713" grid="1" gridSize="10" guides="1" tooltips="1" connect="1" arrows="1" fold="1" page="1" pageScale="1" pageWidth="827" pageHeight="1169" math="0" shadow="0">
      <root>
        <mxCell id="0" />
        <mxCell id="1" parent="0" />
        <mxCell id="pS6giOb3eDGtrHnew_XM-1" value="" style="shape=image;verticalLabelPosition=bottom;labelBackgroundColor=default;verticalAlign=top;aspect=fixed;imageAspect=0;image=data:image/png,iVBORw0KGgoAAAANSUhEUgAABM0AAANHCAYAAAAlpqrIAAAAAXNSR0IArs4c6QAAAARnQU1BAACxjwv8YQUAAAAJcEhZcwAAFiUAABYlAUlSJPAAAP+lSURBVHhe7P0PlBVVnuD7/nzz1qu33q0WmiIBl2gBlTzoZGq0nmTKn2VjtaNVhVkpDkh3US0une6em0CKjuWte601yZBz27k1li2aQK7b0w0XrGKmEygwTW1bl1PSNv/y4FOvndlapEAprgISEWxn1q273l28/S8iduwT50/+gzwnvx9WkOdvnIg4Efvs/Yvf3nHNZUUAAAAAAAAAxP5v7i8AAAAAAAAAh6AZAAAAAAAAECBoBgAAAAAAAAQImgEAAAAAAAABgmYAAAAAAABAgKAZAAAAAAAAECBoBgAAAAAAAAQImgEAAAAAAACB6g6anXlRWubMkTnrX5Tz7iF5p0Pm6Me2vu0eqH5vb1Xrq9a54x33wGj6/LT0/epzd2cE/F/npe8f4m8PAAAAAADgiqjgoNnn8uoTNhg056E9cto9OlLOd7fYeYdBtzx9sm2Ze92cDhmpUNznx1+VjicekD+4K5r3HfIH69vk1V+5F4xJalusvkPuves70vH37qFh+VwO/LvFcu+yxfKDVwicAQAAAACAK6dyg2ZnDsiLe93tgz+TV//B3R4Nr7wobxQIVv3m6KvylyP82adf+ZHc29gim/YekYHfXiALFqvpZpG3X/mZfPiZe9GYNEWm100X+ert8rXJ7qFh+ZLUTF8gkycvkLrpv+UeAwAAAAAAGH0VGzQ7ffBFeVX9XbFyhfq/T1482GceH2kLfneJTJYD8uLRrFy238jbB3fL+ckLZMEt7qHh+s0R2fPvdOZcnTTvzMnrf7VDdmxT01+9LrnuP5Wv/d/d68akyXLXk6/LB6/+qdw1zT00LF+Suj/aIQcP7pCH/umX3GMAAAAAAACjr0KDZqflyCsH1N+H5Lv/+rvqf5G+7iMyGmGzI//vOrlvsvq769X8+X92QF78X8/L5O8vkG+85R4brs8G5EPTE3GJLLn1WvNQ5NrZK+Suf+ruAAAAAAAAYNRUZtDsV0fkxb9Vf/9oiXzjt78hS/5I3f6Hv5QDozHQ/X+3RO56sC5z/ucPvih7pE7+5TcXSCoP6ld75E/0OGSL88c4O733T8wYZT96rcBg+dOmS53p2rhbfvZCkZHaogsahOOtlbjQwedvbZMfNC42r7nj938k297yl+O8vLhej5/WIi9+8rm8/Rc/kKWL9XoslR/8xdtiXvnJEel4bKks1p9x15/Ij7s/lN+Y92re+8+4h5TzR38mbc3uPXMWy9LmDjkSf+zn8uFrHfKj37/DLrceu+2JF+Mx6gpdxOA3nxyQbU88YJdPPb+48QH50V8ckfP/l3uB5l0I4vTnffKzJ/5A7tD37/oD+dHzfd5yK59/KK9u/VEyhpx+TbHtDwAAAAAAqlpFBs36XvuZHFF/H1r0DfmS+veNRTrX7Lz89L8cSQdCRkjd4u9KXd78T8sbL7wqsvj7ctfvuIciX10gd/2u+nv+p3IkFew5LUde0hlyK2TJ/HQWWeIbct+/XSHTdQDqf7hD7vjjH8ued0ZmEPyB134s3/mfjsi1d/5Leajxa/J/vLNHfrzqT6TjnXCrfS4Hnm2RH/1DjaxY9l35mnwoLz71B/KD/+1n8uOVP5K+aSvkvpULZPKvDsi2x34g2/Len/j8v7TJPavb5Gcffk2aHv+h/PDxJqn7+EMZ+G/2+b7/7U9k6bpN8saXFkizfn7NErn22GkZsE9n+s07HfLA7/2J/HjvaZl+Z7Oa50OyUPplz1MPyD0P/iw/I/AfD8imP26RI799l3z/j+6S6b96W/b8z38sP/4vUeSuT7b98VJpefYN+dKten4/lOZF18qRT4otBQAAAAAAqGYVGDTrkyPdOizykCyZb/O7vjR/iemieX7vEXl7NKJmv3OXfP931fz/1wPJ/P/hVfnZ34osuXuBTHcPJabLXWastfPy00NexpfOkDsoMvlffVeW/LZ7LMPkO/9U9nX/RB66dbKc/ttt8qPfXyx3rN8mbw/zIgA/++V02fnXfy6t6x+SHz79svzV09+VyfK2bNr+qlpS3xH58PpHZN/TP5SHHv+J7PsPD6nXiRz491tl4H/aIe2PPySP/Lsd8h8fr1OP9slPj35o3pXlw/d/Zubd/O/b5Yd/9JA89Ec/lJ+80OrW/7x8+LbePnfJ//jv/1Qe0c+vb5U/3/N90XPO9Jsj0rF2k1rqb8gjf/Wy/Pm/fcTOs/uv5Cf3TJbzR9vkZ2EW38EPZfr/8LJZ7oceb5d9m+1387O/ddlzZz6Ut3Vw887/Uf703+n5qfX7t38u+/6w4FIAAAAAAIAqV3lBs3cO2KtV6q6ZUZ/IL7kumuc75MCx0YiaTZfb77lL/d0mL/6tDcj0HXxR+mSFrPi9/JCZdu3vfleaJ6tFevXtOPOp7xc6Q65O/uV3gu6cGa6d/V354c6/ltf/4w/lu7Mny+lXfix/0PgDefET94Ih+P73vitf+yfujjL9zhXSpG+8clo+No9E6uS7d+ksPutLX6uT/4+51SQr7kzWt+4bS8zf8/9X4W1eM9W+ZvezP5Kf/e2H8rnuPvlPrpVrzcx/S2q+qsNxr8qm/9AhL75z3mbyXXtt4e1z/G3ZraNw32uW79/sv2q6fPf37zO39hx0wbDI4u/LiluS115bt0D0tymffS7/p/772zX2ap+vbZIfb31R3j5j1+dau5AAAAAAAGAcqrCg2W/kyH/5qc2K+osH5J/psafM9M/kgb8wL5Btrx1JB0xGyOTF3xWdn7Sn+4Cc/80ReXV7n8j37pIFhTLGvrTAjYX2ohzRQT6dIbdfved3visLwu6cBV0r03/3IflJ91/Ln/+Rmtf5F+V/+auhd0GtmRR0Cf3Sl9QnZJkuNZnrda1+S+KflA4qTV/+E/nPj39XJny4R9r+eKnU/+5S+cHzfe47+pIs+O93yk/+aInIK5vkB7+/WP6ZHifttSJjif3/dI6YMuXa/GW//mvpYFjkt74k/0930/ACh4buGvr8T+Sh3xV59dkfyB8s+WemW+yrwwhQAgAAAACAylZZQbPfvC1H9uqQyXT5xuIFsiA1fUM9qvynV+XIMLsxZvrtJfLdfzVZ5JVX5Y0XDkjH+cnS/J0FBYJOVt2d35cl0icvHuwT+Ycj8uI/iCy5/67CXQ8LulaW3GnCQXL+VwPyj+ZWtt/818Ihw8//axBuO3PaZsGp1Rq9nKpr5Rt/9BN5+W9z8vLOP5XvT/9QXvyf75UfdZvQl8j/62vy3cf/XF7/3w/Kvs2PyJL/ekC2rWvJGGctcO7z/ODoJx/Kq/rv9Br5LfNA+b4067vyw//4uvzvB/ZJ+79eIv/H326TlrUdo9PdFwAAAAAAjHkVFTT7zTEdrFI3vtcqf75th+wIpj/VXTRljxw4Nhq5Zl+SBb/3hzJZXpVnnu0SmfyHsuTWEqEmd0GAvu4jsudo8e6csTMH5GfdfbYbY+w38vYhfQEB5bevlf+H/lsz3WZVHeuTfjeovr7QwKsvqGUroOuFV+OrUpp5/vxnJsg0efk35Gv2wRH2uZz+xH0X/+Ra+dqtK6T1Xzebu69+pDuEnlfPm7tq806Wujub1fO6O2ef9J0uEBr8nW+Ybq/ynzrkZ6nA2ml58a92q7+T5fu31A0uCHjmtJx22/tL0+rkrn/VKo/+nrrzD31yejQCsAAAAAAAYMyroKDZ53LktW3m1vd/9xsZGV7RVTRdF0pza4TdvET+5e+InD9/XuoeXCLfcA8X5i4I8A8/lh/9+z6R5UsKd+eMqfV87F6pr7tD/uChB+QBPTX+nvzBs2+LTF4gP1zhstuu/4YsMVfo3CaPrfyB/PgvNknbH/+JHHCjj2WZ99mL8vuN0WuXunl+VzasKj3G2tD8n/L2f/iOLH3sx7LtL7ap6cfS8m861OOT5aGbdL7dx/Li790hf/JvN9nnn/2R/OjPdHBwiSz5uo6MZfjSAvlDc3XRt2XT7y917/2x/KDx9+UHL5yX6cs3yEO/Vyz/L8OZF+WO7/yJtD2rl3GbbPo3P5Jn/ot6/HfVdzzNvgQAAAAAAIwvlRM0++yIvPqf9I3vy5L52UERfRVNk4X0yovyxq/sYyOrTu66X2dCLZDv31leJ8voggA6UNR8z5Ki3TmN314o33/yIVmxuEYGDh6RI2rql1pZ8Ud/Kjte2CEP/dMovDVdVvyH/yw/bPyayPEXZVvnEfnN7/5E/nRV4eX6xn//E9m8TOTA9g5z5c9vLP+hmudP5K5RCwz9lnztd78lXzv9qvz4qR+r6VUZ+J3vS+uuv5YfLtbrcYN8Y/0C+c2x3fb5zrdFljwi7X/dLiu+aueQxV5dtF0eWV4jH/6nDvXebfL2f3e7PLL5Zdn35F22m+5gTPuGPDL/N3KkUy/jj2W3Wozb17fLy8/q4BwAAAAAABiPrrmsuNsYDf/tiPz4zgdkW80PZd/+h4YwnhkAAAAAAACutAq7emblOd29Tbad11ldSwiYAQAAAAAAVAgyzUZFn/zs37wqp//bq9LV/aGcv/kR2bezWepGZ+AwAAAAAAAAjDAyzUbFb+Tzzg7ZdkRk3h/9RF7eTsAMAAAAAACgkpBpBgAAAAAAAATINAMAAAAAAAACBM0AAAAAAACAAEEzAAAAAAAAIEDQDAAAAAAAAAgQNAMAAAAAAAACBM0AAAAAAACAAEEzAAAAAAAAIEDQDAAAAAAAAAgQNAMAAAAAAAACBM0AAAAAAACAAEEzAAAAAAAAIEDQDAAAAAAAAAgQNAMAAAAAAAACBM0AAAAAAACAAEEzAAAAAAAAIEDQDAAAAAAAAAgQNAMAAAAAAAACBM0AAAAAAACAAEEzAAAAAAAAIEDQDAAAAAAAAAgQNAMAAAAAAAACBM0AAAAAAACAAEEzAAAAAAAAIEDQDAAAAAAAAAgQNAMAAAAAAAAC11xW3O0x78SJE+4WAAAAAAAAKsGsWbPcrcpScUGzSt3QAK4Oyg0AgI/fBaDycNxWB77H8auSv3u6ZwIAAAAAAAABgmYAAAAAAABAgKAZAAAAAAAAECBoBgAAAAAAAAQImgEAAAAAAAABgmYAAAAAAABAgKAZAAAAAAAAECBoBgAAAAAAAAQImgEAAAAAAAABgmYAAAAAAABAgKAZAAAAAAAAECBoBgAAAAAAAASuuay422PeiRMnZNasWe5ehv79sqq1093JV79uqzw6t1eeWbdFcrJSNu5aJrPdc6PruOxftUHSS1b+5x/ft0o27HbLv2iie3SYLhy8gtshWv96Wbv5UVk8yT0MXAEly43AxUPPyJrNOXdPu5JlRb54ee7bKLvuvVpLAQDVo+zfhbiu5Ll1rWxdv1hGqDYGoEzlHbcX5eCza2TLUXc3dmXqctTZSivve6TtWI0G2yYbS8g0G3VZAbOxSRf0q1atkmcOXXSPaHr5V6nH96tbQDXTFa1VQcBM65QN6hjY3+/ujiYd+NfH2z6ONgC4qrICZilDqR9RpwKuDl2XG+HjjjobMG5UV9Csdpns2rXLTFvX1dvHdKTfPWaytCYtlkfN/SuUOdLf6wJm+gyHXQ49bbzPPHj1ZGyHgbMZVcML5+SkuwlUs+P7ojOT+qxWdKxulbW3mqels3X0GzkXz+UfbRMXPWqXhTOWAHDFXHy/xwbMdGaZq7uZ34QbzdNDqx9RpwKumJVt7rjdvFbV7LSTcu6CuTEiqLMB48f4yzTTZw79s3z+/fh2lG0VnRH0Xh+Jzi6kXl9Mp3R7r5l9rwtWRfN59qBEz+rumIXmGT2npyTzJVrOZ+TgBW+ZzZkPmz1j36Oft+9Ibwf7Gt0FVMttXmMf18sWn2W12TbxMpVY/+zlBMaq49Lr9v/6dQ96aeATZfH9UWWrU3r1vhyWIUqUpemfbYwfyzgO/ONDT/r40Y/FWW67N6jH7fGaNe/w+EuXTwXKg7AMAwCUdnSLvBGX3+o34d7FMrFg/cgvc90Uld2F3hOV58XqgWGZ770WQAkXBtxxN1Om6PpdGfU4/75fn4uOyXLrbNnzce0x/7iOygnH/0w90Zby+W1bN3llYvY298pTI6gfh+VwyXK5+DIYXlxBP3fcW64I33PloHtmTFVgvDT83Obt8syzfrfKJOhldvBg7DQdaMrc0WtvjzNVbDAqPGjLp98fBba0zlYvCGbkZMs6b5lVIf7Ms9u9fv3q+QPpQnkoSq2/LlTSy1kZ3VMxjsVn/+ulYW4wUs2kedLgjuGT58o7dlOVKSc6XvXx4x8fg5V1/JnyKy8oFpQHXhkGAChu4qJGWelud7aW2aDJyiTTdbHhlL264VVkvF4A2aLjNqoz1a+7ffC9jNTx69fncpvfGNoJyNR8VP3s+WfSx/Xu7rhNV6wOCW1ABsIx645ukTVB4LHwd6cDZun68YZBl7EllkGX2373fvXchuA75XuuLATNYlGXrI2ukqR24vqtJsU26kqZOzug/r8ovTm7g8dpv232HZ3vZRWjE2Xxeq+7qGKCZ2E0uhxxV9Ooy1hOet5Pz8UuU9KlLHdjo3lP/Pkfncv4XLuM0XrqCw6Ybpu6u2uc0my7lz66SEqsf5Kxk58WDYwH0TGQdPO0x194vCZdtnXX8dn3ht3KswY+Tcofe5zq90fHe35QLDoG02UYAKC02bLMKz810wjXjaLM+pE/BIhf9ruyt9B7BiGuV3EhAmBQ9LEzpIupRd2zgy6e5dXZPNF8XJtJjoo0BO3OARMsKbcOOZ7ZsjkqZ+NtGrZxC3x3WUMnDX7YpOLLkN+9P2mbW3zPlYagWcyl7EqN1LideuYUW7jWTHWFopFElsMzGMXEfdzjwtJP9y9P/dQad2uiTInG1EiplxqzDsnz0XsmTplp/g5fifWPz7KulHm15oaqRE5RWxcYw+J9NKq0eC70So/b56Myoaj4GNCZXvYY8c8kJdkLtntOWdkLsej48zPiSpUHXhmWGTQHABSiG8dJg0bxMkLy+N1xgrJ/yCYtlkbXoIvrXWFGBYA8JsjsAiZDzuC5cYoNUBerJ5Yjnk+NWZ6sdqdRog4JLegGX6gdXuC7i8eiu29enHk4++uufV624ssQjRNeXz/PLoP6f169F0/ge644BM2GIT7jF01Zgz7270+n5dfOcw3mwFHVGDY3kkytUJIlkrymrEb8KCm+/m78Jy2O6ANj1WyZFzdK/IrVRTn4vEuvvnWt3B4Fgo1oQNkk+yvNv6CAnexZzuTsVHRmq/yLDESVK/9M1EU595G7CQAYEborvH9CY+LcBtfYLez4Af17kZT9g8peKFIPjAJ38YnX3RsGcbIFGMfioLPuEhn28ilVj7uaCtUhcfFQt2lXRu3Q+ITGYO3ujevex98r0FItUC6Xuwy5XK/b5wbbVsBYQ9Bs0GbL7e7AiM/4malwozcay8xOUR9ql4kVn3GIsk665WQqfdOjKkmZ8xhhdnnD9bHL98yhmuLr743/NJhMPOBqm31vkiIfnfVZtcq7oub9rjuMd8bKvm6N9Lij2PAraPF81OS6ZJsxydxj8dhmt9ZIlEdqmGM966xocqYqKVeiZVwpjfzQAsCISdVzovFpbm2QealuWFH9KGqOJ2V/4fErvfeUqgf62WtxfSrJJAZQXFy/O7pFtptjrkQ9brAK1tmGoEQdcvzJ3w6X3DNR+TzYDK3kBEhU5maU1WW2zwstQ5y5psc5M++P6uoO33PFIWg2BLqrZdlR7fig8+k+1O7qmeqgedCbl75yX2NmVyv93EavP7SOTLt5jJDZS6I+3574oE4UX389PloUfND0cvr3gbEqf/yahPpRiy+ioV4Xne3X7tsoDwaHg84KKD/DQJUHbnwaf+DpQkxXb//zNTNmwsiWBwAwnmUOa6HL2mg8sYz6UaoepX4b8upKGe8ZTD0wsrKtxPhJADxJwoO+0NvBC6XrceUop842FIOrQ44/E/ztrsvksE5ciipzH/Xfo+axMaOsLlYup777rGWoXZYu/9U+Fn6nfM+V5ZrLirs95p04cUJmzZrl7gFAacMuN1JXwNFBYBorAFDJqE8ClYfjtjqMve/Ru5qmvqhD1nBLw+W1JfSFvMZrF8xKPoYJmgGoapQbAAAfvwtA5eG4rQ5X/3u8KAefDbpLGiN5YtwLxKV4vc3GoUo+humeCQAAAAAAxh8zzMko9yTRWWwMpVKxyDQDUNUoNwAAPn4XgMrDcVsd+B7Hr0r+7sk0AwAAAAAAAAIEzQAAAAAAAIAAQTMAAAAAAAAgQNAMAAAAAAAACBA0AwAAAAAAAAIEzQAAAAAAAIAAQTMAAAAAAAAgQNAMAAAAAAAACBA0AwAAAAAAAALXXFbc7THvxIkT7hYAAAAAAAAqwaxZs9ytykKmGQAAAAAAABCouEyz6dOnu3sAUNrp06cpNwAAMX4XgMrDcVsd+B7HL/3dk2kGAAAAAAAAVAmCZgAAAAAAAECAoBkAAAAAAAAQIGgGAAAAAAAABAiaAQAAAAAAAAGCZgAAAAAAAECAoBkAAAAAAAAQIGgGAAAAAAAABAiaAQAAAAAAAAGCZgAAAAAAAECAoBkAAAAAAAAQIGgGAAAAAAAABKo6aHbp8HPy3OFL7t5I6Jeu1aulq9/dBVA9+rtktTq+/WnUj/WMz4wm/dm6DFu9+bCMZCk2ei7J4c3BelTIspvt/EKRLzv8noq91pOer/79eE4OX3B384Tbr9hrh67kugLI8+7rd8vdP7VTR1UdPu9Kh1mvx6T7U/cQUDX0726X+t8X/Nbm1VPSz49sOxJlu3BYnhuletBIqqx6OoajSoNmNrjV0nHM3R8ptdK0c6c01bq7w2UKhLAwB3DVNDRLuzrGd+qpdYXsaRvu8VkiUFLbZD9LTe3N80WWt8b3dTkzYeHDsnPdQpngXj6aRiqYsqLVbb+d7dIsHbKjwiucZru8UpPsF2pqnTIwwhUkvZ+0yMC3k8/Yuale/UbYZwl0AVfTu3Lo1+6m0v2rd92tqy0KeHWoWwB85ndzdZvscfdj/QdSv7WtN3RIi/f72v9Ci3TcENXFWmVGRwvJElfDpIXy8M6HZeEkd3+MGmw9nfpc5arCoJlufLSJqIZb63L3EAAMVm2drJBTMjDGz3KNXROk7pb5cuzcgLtfmQbOHZP5t9SlKkS1C0c4kHlhQO1pK6TOPyGjKowLR+oEDYAhO5vbKd3q79zrGmWufuDXh8ZGkOrTjznpCmTQgYmWt+qlfVOzzHePxWqbUskPtbep1+ztc8dSv/TtnS/Nt0UvqJUlzfNlTy9HGjDeVWHQbDDZYDYFt6vfZqaZVFwT/fVTc/0skej17p6LFve/EL02ncarH0+n9XpZJ7q7zyMdckz2SFv8uVqQNlwsGh10GQpTiO1ZlmQ+ecszxC5HwHhw6fDLsmf50tRZrtQxlcoS9coQNZnjzGSS6rOcx6TjEfX4UNK39TEav8+VH/16vt7npD67RDeEAse4LhtMZu7eNvO65Kxqer3y519MvxzoEK/y6ZV/kXj90mWrZR8LyzUrWC9/udw8+4PyLyVV9nVJn3s4S82U+XLsrT71iYUMoswuZFKNzFB7Sl/GW4f+3QTLlbn/udcMZd8ExoWzkvvkfXOr9qv/Qr75ZX2rWw6Fx+qn3fKY675ppv3d6p1Of0fyuJ5ej0JuZ6V7v/e4lzF2NvdY/Nr4tpoey7m56nn+dYfYJeuWJ/zn4gw0N/nLolRvV1PAGlT2z4UBOdZQIzX6dn+f7Gmolzqv3jdhTr0XVEvLbwfa32G/rpiuw6R/t7PrN7DCOmNQ54nqLal6suM/lqrvBdvc1NOT5/w6aPKd6snVr9x8D7vnzOtTnx8ts7+syToUrs+hEnAhAGVPW5/UuTTcFWZH3iGyyqXtLlcN3jeL7NXq9X3zXJpv6wo51rEj3SgsRHfLMmdAVkirfu89umGpGzAtkrul3aUFt0vzx20FD6r+Xp1Q53/2AXtQK7rANmdZoufn9UnbXvekpg/ytlPSvMk97z6LAhzjWk+HtLgfupaOGdJqjksrPKbam09JmwuQ9L/QJqeak+N2qa59mdRyVaaoo9wcZyPSzVKVR6+IPKA/R5Uf0tGiljUqv9Qx3LBHXo6P4fLLk9p70t1D7UkH/aPvr5db57ByEtjTFlUU9HsfKDO13malpc7mXuiTXM8KWbowY6up5wb89Uqtt6K+x5flAfu8LmdVOR2vtyn7vLJzU43kinTl15Vv031DrVN++Ti4MruwWmlSy3nKbLt08Gto3024XOq37BbzhMe+xnRDuUJdgIGK82lOfvGFvtEoi2qnSv31Jtcs3UUzFcBKMwGvIzpPLaQDWw9Jh5l3pFueCAJc8usn5KEPkjm//4F6T7HyxQTvnjCZcbEvOuQhF6jTAbMn/K6mR4LXAuOK+h18ZU9eNvmgeO3A1uU2EWJHVP8I2maZdUWUp7/P9CKz207VrVU974DesLpXSE9O+uK2t/1OV3zb1msKt5XV63Z1yAxvnnXmcf09rZY2SYZLaW/2vij1uQPu+85O0NEnyqN6uZpaZ6j7tl6XXZ9DpSBopqxobVJNFq1W6nSXTi+7pHbeCpGPi4xfo3b8eKevXaIab8eG3p0rr5E4QRZ+e0XBtODae6LlVlJdyS5J31vH4gLDqG1KdVft71U/EqkGrf2s4hkVQJXzxzTbVCMvx2eI8o+pCQuXygrv7GPSDXGC1NYOufpVwnxpXuWWYVKd1DeoR5qXuHIg6A45yPIkjznj2iwPeEErs86pykm+ZEyznbL0XEvZmVd2e74cn3S49EFOji2vS8o436SF0uStV143UH+51WuXqrLv1IAt2WzZF20zRT3/gK7EFKErOrqCW/+WDlJ6Zz6Hu419JsiqPqdVguzjDKW+m/4D0iHp58MupfG4LV5gGEDa2RO/sMGw6xbJTerP1FnfDLponpXuv3dhp+uelJf+8CU7LWuUqeoVP3cBr7lztiXP3aHm1H/IBqu+3CzbzOPbpFlnsX3xC8n5A/LHz78kT15nHzIBu9pmeek7zXZZpFGeVM8/XT/VW95oWZ5UzypmeZOx2RoXuGWJ5wGMN8mJo4e938pB89qBps2oWmNxnSBjmI8rU1esQqlutba9but1+vYxyX3gWq+uXhYNd1G4rWxFdUM9n1r9wguH5eW9K1InzSeo+lN8T9W9liRPZdAnyv3P1LGB7J4EqCwEzQK6K878KVcp9K9ThKPumtHUtqdw0C6VVuoPdjkgAz3zpaZghsclGfhYZEZNUFhPqpH5Peq97i4wrplgirgfYn1M+VlU0TFnf3x1UKVVbLp1Xpr4qJkgNTdkHMeRwZYngUsDp0RuqEkFWlQJKTWDODFQe4/O3s3u1pDPr/joIKXftTOfnzpf/kVfCpR9ZZkgC9fpoFZy1nC42ziTuThE8czfUt9N9vOevW3S9nGztBMwA4pIumbqjC/TpdHrEmm7aJ6Rj0222FxpvlmH1TzxmGONsrp+qrkVOfuZKxV1FpjpKhlmnTm/dYNE75x2benw1pnPg+X1s8685VkUHfpfuSFp3AHjhWk/uYvvlPM7GHXfLEW3o4q89urUFauFDnImdS2/95Qel05c0oc+4Sr+idGCbWVdp4tOhqrnohOVfnfdEWHr6qh8BM3GElPYepku0ZTVdUYXAo8MyNL4dbobmC9s2NrGomUP4CS67hnRggKobHoQeEsHJFw3S//Y9K7sY7ORdkr7LTlpGQuVocGUJxkm1MwoEPwpFpAPqMrHKXezHPosrcl21WcKJT2uiE8HzF6e4ndNLJ4plsgu+5LvuQz+mcphbuPCil9EodR3U/h5Z3mr7XJKpR0oLO6amc120ZwmN5hxzt6XX5xIOla+m+uWs3FAyh8D7ax057yunV4mmZ2elsavuOe0f/zYdddMAnhzr51m/hblZ72Zqdlkylne8kQZb8B44bWf8rrHZSQPmKz3YiehBmnM1RUrgs0KTF311L/Yn+55oWqNfRfsCdf6Oe7bKtlWdidD9fx0MFMHzjL2geHx29+oZATNRlE4gLTuy55EuDOYg75DdpQzrlgYCdfdddxNVSSbtNU9r3iFse6u0+NuK6Zxmhp/zfbtluH06weqifqxfXnvfPfjq4MYIh27sio46th5IXncBCzGgsGUJ1nMOBHp9186vEPNsXAwK9T/ZofXxVIHHr0UeumXLp2V5dNp7Kris0OPM+F3L08Js8Vs19lymXLZG2PEfs/udob+F9JjjNmydoYNHA53G0fUMnSl5mHXqWDWc6nvJuP5/sPpfdec8SZwBhQUd3UMA1sLTIdH1+UxGedMjzcWDbD/xCf6kZtkUdSl8oh93GSUfS4ytX617TYZZ5rZKRnM38nLRJsr35yVzlrTQbDoQgA33ey6W8aZZnYy46B9pd5dyMBbnszx1oDqpeslqUwknxnOYU88Xq2upxzoOCYr5mW+epDGaF2xIoQ9qPRVTt1Nw9bRc28eSJ9wLdpWVnVQbxgMXTc0zNAn/j6g61eH0/XAotJjodu6WakunagEBM1G0YSFD6jDJBlYvG9eEOGOCuc4LVRHvFtlhhncO0olLXB1DdO4TOa9ulf3ok/U3tMePF+XjsrrLkCmm5F7frUdNHpY/fqBStfjHTOP6AFCk0wyf0B4e8yoyR23Nf6xpgeZjzON9OXKZehXzxyWQZQnih1TzL+ij74Scfr95kIIJbKo/C6s6S6AanlWRRcv0M/3SV1r+pyffo2u+BzzxqPIp+ajxw2LP2eHDNxQbqaZXs+H7aD5bhlX7xJZWiRTrWaK91o9mYsIRONVDG4bFzRJVelS80iXx4P/bvKfbzuXf6Y8+Z3wr1AFQA/UH49Hdn193EXSqF1kA17SLTtzZ2Vq/dNJIC3iulXedMdLsm1OululzRS7SZqj8caKue7JeCwzrXGBl4n2lUZZ7T1nqMeeLjhO2VRpXOZ/5lxp/k4ZywBUmWPBb7aeot9t87v4setCaX/wR2jA9mJ1RRTn1aXN9usT8du0ir7Kqezdkz7hWrStXCM18ffs6lCmvqrrdf4+oJ/Try7XfGme0pe8V19UzPue8+tzqBTXXFbc7THvxIkTMn36dHcPg5Okto5M4Q9UhtOnT1NuVBBzldJzSxmgHsCoGeu/C/qqm+aqmbqbpb5wAADqc1WirO8x7lrpDao/5ukrm78sNZuSE+5I09/9rFmz3L3KQqbZOGHSQ4tmbwDAVaYqSTt0z4kiFwAAAABA9Sp6BXXgKiBoVqV0tkaUGhqnh1ZUtB7A+KEzYVVZFXSJBQAAwPgQtV9Nu5UeBxhD6J4JoKqRzg8A8PG7AFQejtvqwPc4ftE9EwAAAAAAAKgiBM0AAAAAAACAAEEzAAAAAAAAIEDQDAAAAAAAAAgQNAMAAAAAAAACBM0AAAAAAACAAEEzAAAAAAAAIEDQDAAAAAAAAAgQNAMAAAAAAAAC11xW3O0x78SJE+4WAAAAAAAAKsGsWbPcrcpScUGzSt3QAK4Oyg0AgI/fBaDycNxWB77H8auSv3u6ZwIAAAAAAAABgmYAAAAAAABAgKAZAAAAAAAAECBoBgAAAAAAAAQImgEAAAAAAAABgmYAAAAAAABAgKAZAAAAAAAAECBoBgAAAAAAAAQImgEAAAAAAAABgmYAAAAAAABAgKAZAAAAAAAAECBoBgAAAAAAAASqO2h24aA8s2qV7O9394ftuOwf0fkBGDP698sqdXz706gf6xmfGU36sy8eekZWPXtQLrqXj20X5eCzwXpUyLKb7bzvuLuXIfyeir3Wk56v/v14Rg5ecHfzhNuv2GuHruS6Asjzzt/cKXdus1P7B+7BqvCOtJv1Wi9d591DQNXQv7v71f+B1G96xvNGgffiyjBt+NGpB42kyqqnYziqOmh2/MAWybnbI2O2LNu1S5bVurvDZQoECmRgzLh1rWxVx/guPbWtlM7W4R6fJQIltcvsZ6lp67p6kfs2xvd1OTNx0aOya/1imehePppGKpiyss1tv11bZa1ske2HKrsqYbbLSzXJfqGmjVPPjXAFSe8na2Tg7uQzdm1uUL8R9lkCXcDV9I68+Ym7qXSdesfdutqigFe7ugXAZ343V22QTnc/ptterSdl7Wb7W7t13UnZEAQ9Cr4XV86kxfLorkdl8SR3f4wabD2d+lzlqt6gmSoUuz9aKStvdfcBYDBq58lKOSnnxvhZrrFrosyrr5fc2QF3vzINnM1Jff28VIVo9qIRDmReOKf2tJUyzz8hoyqMi0fqBA2AITtzZLt0qb911zdJnX7gkzfHRpDq/EdCxwcgnw5MrMk1yNbNa6XePRa5+H6P5O5rjIMxExc1ysqjPdLrnaQq9F4A41eVBs0uysHnt8jMu2+XGvdINtsdZn+/Psvv0nRN9NfvJuNniUSvd/dctPj4vui1q+QZL6tCP+7fT2Wd6NTgdToTrlM2xJ+rBV10/Gi0624aPVew61jQlSi9DG65o+fd8qdeM8SuSEA1uXioWzq9ipWWOnZSWaJeGaImczyZ41WfqczJlnXq8aGkb+tjMX6fKz/6k3LAHrf+Z4eZcUXKE48uA9Zszons3mBel5Qt6fUq3I0hy3F5Y7PI2iWz4/t5WXfx+qXLVss+FpZfVrBe/nK5eR4PyrmUVBm3X3rdw1lqptZLLterPrGQ8rZxUZOmyEy1p/RmlOlD/26C5crc/9xrhrJvAuPCGen5qM/cqp1xn9zxZX2rS94Mu2ie75L1rvummTq71DudD9qTx/X0N1HI7Yx0dXqPexljZ46sj18b31bT+iNurnqeXe1il6xLHvefizPQ3OQvi1K9XU0Bq3D2z0XpzeVk5dejeok2W+bdl5Oe9+2v4GAyh/LbgfZ32K8rpusw6d/t7PoNrLDOGNR5onpLqp7s+I+l6nvBNi/Srk6+Uz25+pWb70H3nHl96vOjZfaXNVmHwvU5VIKqDJpdPLRdtty4sexulJ2tvTLPdInZKCvNjrxd5H6btrtRFaRbDhRpBKnX937ddadpWym5zdvTjcJCdLcscxZjpWzU771XF+C6AbNGeuq32vnp7k0fbXAHlXpOBwLjrk8bZZ5+OMPx98TOM16mN+zBruiC3JxBiZ7/eq9s2O2e1PTB76UtR8tAwY5x4egWWeN+6NZsnikbzXFphceOSel3AZLj+zbIyXXJcds4RT1oUstVmaKOcnM8jUg3S1UevSTyoP4cVX7I5jVqWaPySx2rt3ZKd3ysFitP0mbfm+4eastO/aPvr1d2N4ZQZ2tUUdDvfbDM1Hqbldb5nlfWXuiVnqMrpXFRxlZTzw3465Vab0V9j93yoH1el7OqnI7X25RxXhm5uUZ6dCWmAF2B3nij3S/yy8Hyt3Fxs2WZWs6TZtulg19D+27C5VK/ZXmnzO1r9G/lleoCDFSc8z3y+hf6RpPcNmeaNNxocs3SXTRTAaw0E/A6qPPUQjqwdb+0m3lHuuTxIMAlnzwu9/clc+7rU+8pFugywbvHTWZc7It2ud8F6nTA7HG/q+nB4LUABsdrB268zyZCbI/qH0EbLLOuiPL094p4beCVqp73hq5r6V4hXqagqdu81Ckr77b1msJtYvW6Au1qHdzaIMlwKVvXeSk46nMH3PedHWfQJ8qjerma2maq+7Zel12fQ6WovqDZhYOyPWjslrKybZlqsmj6bIP642WXzP76SpGPioxfo3b8eKevvV013nIyUE7QLEteI3GiLL57ZaohefJctCSzZXaBg232vdH6KKkuZu4MiytIjNplqpB3t5Xj73VKfaqha5eheKYFUCX8Mc0210h3fIYo/9gxKf27e+PKUNINcaI6NkcrBFEva+93yzBpnjTcqh5Zd7s73oPukGWUJ0WpCkqn2h4PekGrsBtDlmRMs13SeHZN2ZlXdnt2xycdbBeKeUlZ5pu0WJZ565XXDdRfbvXaRlXGRWWnLeOibaao5x/UlZgidEVHV3AbcjpI6Z35HO429pkgq/qcNgmyjzOU+m7635Atkn4+7FJ6fJ8LmA3itxIYb870v26DYdffJjerP9Nq7wi6aJ6Rrndd2On6p+S1h16z08ommaZesdsFvOrqnk+e+5aa0wdv2mDVl1vkefP489Kis9i+eF16/AH54+dfk6eutw+ZgN2cFnmtqcUuizTJU+r5ZxdM85Y3Wpan1LOKWd5kbLamxW5Z4nkAGBKvHWjajKrVFdcJMob5uDJ1xSqk2qtJkMm21229Lp0pGNXLouEuCreJrbx2tR7eaffKVBxhoqo/xfdU3ev2Au1vS58o9z9TxwayexKgslRZ0Oy47F+no8bezjpIuitO/dTinTpHzYWBpLtmNLV2uqCdaoytjxptJRpUqXRTfyDLARk4Wi81BTM/Lsq5j0RmTgkK8Uk1Un9UvdfdBcYFE0wR90Osjx0/iyo6tuyPrw6qbBSbbp2XJj5qJsqUGzOO10jR8qS0i+dOitw4JRVoUSWk1AzixMDse3X2bhJYLM6v+Oggpd+1M5+fOm/S3ctSoIwriy6DdVArOWs43G2cyVwconiGb6nvJvt5z+4NsuGjtbKVgBlQRNI1U2d8mS6NXpdI20XzjPzKZIvVScstOqzmiccca5IHF0wztyJnPnMtKJ0FZrpKhllnzoQbJXrntAmlw1tnLgXL62edectz2xxzQ2TyjVK0/QeME0OrFwR0e+lW9Vvs7oauTl2xWujs+KSu5feSmr1krYhL7tAnXMU/MVqwTVygXa3rdUW+w8GzdXVUvuoKmumz7+pP0rBdI1uihm6Z2Q5XlSlsvUyXaIq7zrhGm3rMFLpZ66QLh3UD0hi/X3cP84UNXtuItOyBnUTdPSNagACVQQ8Cb+mAhOtmGR9bekqu7GOzkXbJ1voeWTMWKkMly5PiJk6ZWSD4UyzwHjAD3JdPn6U1Wa36TKE0yLwCn6MDZt1T/a6JxTPFEtllXPI9l8E/UznMbVxY8YsolPpuCj/v3LfRdjml0g4UFnfNzGa7aE6Tr5pxzvrk9f6kY+U7R7rkTByQ8sdAOyNdR7yunV4mmZ2elabJ7jnt0keuu2YSwKubkA7AZfKz3szUYjLlLG95oow3YFzIqgMcl97dg6jXDNOYqytWBDuchH+Fcb+XlOl5oWqNvRfsCdeGua4GVrJNnNGuHvFEEb+djUpWXUEzc4Y+OaDM2fpbXXehq3BGPRxAWvdlTyLcGcxBv0W2Z2YXHJf9XpBMzztTGCF3gUTLprN2vuQV0robz1F3WzGN1tS4bLbPtwRXjwOqnknRrnc/vjqIIbLl+awKjjpG9iWPm4DFWFC0PCmDGSci/X4zXmSRYFbo+IEtXhdLHXj0Uuh1maazsnw6jV1VfLabC7kUCjyF2WK262y5TLnsjTFiv2d3O8PxfekxxmyZOlOm6G0w3G0cUcuwPzUPu04Fs55LfTcZzx8/lN53zRlvAmdAQXFXxzCwtdh0eHRdHpNxzvR4Y9EA+4+bRtLNclvUpfKgfdxklF0SmbbgQdttMs40s1MymL+Tl4lWJ3fUhkGz5EIAN9/iulvGmWZ2MuOgTW5wFzLwlidzvDWgepmsJK+dYy76dGv59ZqhG6N1xYoQ9pTSgU5307B19J4Db6RPuBZtExdoV5uhTzrjMYu1i6r+lKoHFpUeC93WzUp16UQlqMoLAYwVExc9qA6TZGDx3q8HEW4z1o7r2mMOTh3x3igzzeDeUbZcdHUNddB/5FJ61WQGJM8KBJpGZ/KZq97TvesTs+/dGjw/Lx2t14FH0/3IPb/KDib9qDc2DlC1jnrHhunqnWSS+QPC22NDTe64neIfU3qQ+TjTaLbcvk6GfvXMYSlWnuSzY4rZMsa+ZrYs25V+vyl3SmRR+V1Y010A1fLcH128QD/fK/Pa0uf89Gt0xSfnjUeRT81HjxsWf852GbixwEmEDPp7NIPmu2Vc9bxIY5FMtZqp3mv1ZC4iEA0BMLhtXNCkKd520VO63B38d5P//Iaz+d01k98D/wpVAPRA/fF4ZDc2xF0kjTm32YCXdMn2I2dk2oJnk0BaxHWrvPlbr8nzdelulTZT7GZpicYbK+b6p+KxzLSmxV4m2uQmedB7zlCPPVtwnLJp0rTS/8w6aWkqYxmAaqLHD/XaOeXUa0ZGsboiivPq0mb79Yr4bVdl4twGkd2d6ROuRdvEhdrVul5nh8hIntOvLle9rJ3am7xXj7Pufc/59TlUimsuK+72mHfixAmZNWuWu4eRkaS8chUPVCPKjcpirlJ6tpEB6gGMmrH+u6Cvummumqm7WeoLBwCgPlclyvoe466VQx+n/MrTVzbvlprNyQl3pFXyMUym2Thn0kaLZnUAwBWiKknbNxe/AAAAAACqV9ErqANXAUGzcUZncUQpo3HaaEVF8QFUH53xqsqkoEssAAAAxoeonWrap/Q4wBhC90wAVY1yAwDg43cBqDwct9WB73H8quTvnkwzAAAAAAAAIEDQDAAAAAAAAAgQNAMAAAAAAAACBM0AAAAAAACAAEEzAAAAAAAAIEDQDAAAAAAAAAgQNAMAAAAAAAACBM0AAAAAAACAAEEzAAAAAAAAIHDNZcXdHvNOnDjhbgEAAAAAAKASzJo1y92qLBUXNJs+fbq7BwClnT59mnIDABDjdwGoPBy31YHvcfzS332lBs3ongkAAAAAAAAECJoBAAAAAAAAAYJmAAAAAAAAQICgGQAAAAAAABAgaAYAAAAAAAAECJoBAAAAAAAAAYJmAAAAAAAAQICgGQAAAAAAABAgaAYAAAAAAAAECJoBAAAAAAAAAYJmAAAAAAAAQICgGQAAAAAAABCo7qDZhcPy3OrV0tXv7ue5JIc3F3t+DMpaJ/fY6mh6YeRW6NLh52T15sNqSwFVrr/LHD+Fy4N+6Sr7+LKvHU7ZMqLHnlu31OTWw3zOCJYZAFBt3n39brn7p3bqqKri8l3pMOv1mHR/6h4Cqoaui3Wp/3227RfXhfx6VlZdyUzhPDDqTNv2OTl8wd0fo2gnjx9VHTTrf7NDjrnb1SJrnS59MCD1m3bKzp16apUVe9tGLBA4YeHDsnPdQpng7g9X/wur5bnDFC0Yoxrmy6lXsn/8Lh1+Wfa426XVSpM6Hptq3d0hCI+9YR87Dc3SbsoIN90zjIW7EkyFiYoqgKvtXTn0a3dT6f7Vu+7W1RYFvDrULQA+E8xY3ZZfb+s/IAPfTupCrTd0SEt04rC2KakjRc8vF5nfvETV6nBFTVooD+98WBZOcvfHqMG2kzlRXbmqN2imGlwvf7xCVjS4+9WgwDpNWNjkFSq1UqcK+FMDBKaAIenJSV/ema1+OdAhsmL5fHcfADAenM3tlG71d+51jTJXP/DrQ2MjSPXpx5xUADLowETLW/XSvqlZ8mpttU2pE5q1t6nX7O3LPpZ0u2vvClm6cKRSBwBUqioNml2Sw7s6ZMa3l0iNe6Q41+3KTGEqqP9cmKKrnwter1N74zRN1/3zsOs+6R7XGSPx/MpO6SxznUoV8G75+s0ZGL0Mbvn9lGQ/Ap61Pv2Ftlex7WHf27ZX5FhHS/p9/mcH77dniqLnCmedpF8XdosLlrc/zGCxy5a8P1gHjCP1srRZpOPNYE/r75M9y5fKkinuvlN4v4uOFXdXCV+byhpzx8lhVzaY9xU7dj7MyMIymVkjse+my7xkOTOOf1NW+MdP+PnBseWVLWZ7qPt+eRh/ll73R3RW7R5pC94HAFfOWcl98r65VfvVfyHf/LK+1S2HwiLp0255zHXfNNP+bvVOp78jeVxPr0cht7PSvd973MsYO5t7LH5tfFtNj+XcXPU8/7pD7JJ1yxP+c3EGmpv8ZVGqt6spYA0q++fCgBxrqMlsW+nePVIkyyy/HmPrZX59L91DoFD9CvnCNmV628Vt07iu7PEf07e996W2uak3J8/5dfZUWz2qb7v5ZtfVzQvcMvvLmqyDnmdLxzGRvW3J+1ExqjJodunwDum4obXsrlF72vqkLk7DPSYdu/ydv01ONbfHabrtzaekLTw4S9jzlsgD+v26AFcHV9vHSTep9m+XF9Yrvk5ew3SX/qym4mnEPR3ysjzg1kek4xH1vt46u476rMzel4s2vAtvr2ImyMJ1UZqz3p4u5VYXNm0irW5+O1tnJPNThdmOjhnec3X60QyXpO9cfbJNm+fLnriLnf0O1UzsPHY+IPKK38VVb7sWs23t8/pz1DI8UjhAh+pWs3CprEgdA2ofeWWPrJgXHlXF9rs0XYFq8fflna0yo6Ml/YOpjsuBefb59HGecex8rU7qG/ZIn/f+Sx/k5NjypYVT2dX8W+If8UI/1uHxopdzR6o8SI5/2xV89eodIqvs6015EAcc7bGVuyUqP9ul+eOg67h6f59b552tK+RY9Fm6i4Q5Q7zCbrOx3pUUQHX6NCe/+ELfaJRFtVOl/nqTa5buopkKYKWZgNcRnacW0oGth6TDzDvSLU8EAS759RPy0AfJnN//QL0ns+x2TPDuCZMZF/uiQx5ygTodMHvC72p6JHgtMK7Y+t38W+ryA2zlZpl59ZjW5fZE3w7XxrL1mgNxe6L/Bb9N2S5Ly2sCQuvvS9VNV6g67QG9YWvr1G2/h4irs3/bBk37e/02pv99qNfpZBRvnlErUwe32iRpF7Y3e19Uwbp6RNWDH0nayX6bsvYe21aQ5Xbe5cYpMDZUX9AsCrQMopG1ojUJMpk03Z4BGdB3dHZJQ7M84BWYE3SDOrP7VmHRgRuL5q9MqK3NL6hDJdfJNqrNwblKZEfBBrHjrdOEOfWqYTpfmm9z856kG+PHZKDI+hXcXkPQ36t+rPyzOLVLpFn87XsqWRa1rbK3gFr/e5JtbNYp+A6XxG9Ur12lG+POhT7J9aiGub9t9TIEAQmMJ7VSt/yY5D5w4a/+A9Kh9spkH4oU2e9SLknfW8dSx43+jCU6yNbr7WSp/bQU9dnfXuEF6dxn5AX2PMGYZpk/1nnHi15OSbaFkqyH3k7qjxeoq523QuTjAbtM7thKKpxumf11VhWHeDnMcVe87AGAK+nsiV/YYNh1i+Qm9WfqrG8GXTTPSvffu7DTdU/KS3/4kp2WNcpU9Yqfu4DX3DnbkufuUHPqP2SDVV9ulm3m8W3SrLPYvviF5PwB+ePnX5Inr7MPmYBdbbO89J1muyzSKE+q55+un+otb7QsT6pnFbO8ydhsjQvcssTzAMYbe2JPnzR/OCMwpk9EFssyi3n1GFMHEq/eowM6fjtGOXYubgGqZk3+56KAVLdaW/+0QxEFdXZX96yLvpN7vLp3xveRDGek2pj6hS5Y6rcLJyxcmMyjZF1dtak3+Z9Jm7JaVFnQrF+6HtFRY79xOnSXBk6J3FATN4qtGqkZTsNOZ1C0iu1yVFZXqkGukx44sdVvTJcwqUZmqH81V2WgxUsy8HHU5SzKgFE/YD1u++p12VQvOZ0JVyoQ6Kffmm5dVvZ36MlMy54gNTcwLtx4poPB4s5GmcBu1llIrcB+lzYgAz3z846xCTUzkgDTUPhn13QlITOwNzjmeAky0nQqeVLJS6uZMl/mTylwqlQfW1H3ymhq2zO8dQaAKybpmqkzvkyXRq9LpO2ieUY+Ntlic6X5Zh1W88RjjjXK6vqp5lbk7GeuQqOzwExXyTDrzPmtGyR657RrS4e3znweLK+fdeYtz6Lot+IrN4xIfRmoKBd0t7wWe0GAzIQEfSJSpH7OIINaqk01v0BXT01nGrWK7ZqX16UQJeggZ1Kf1EOWREyd/a0+sz3zgp3mu47e518YYoIsXNcu9W+5Nmg0DEiR7rpDY9uUqHzVFTTTWRLqz5626ODQARh3fwhj4hRu1OY3gAclujqLCQiVCJyN8DqNLbYgWRGnxiZTfDbBXD1FP2YijdmBMx24eKUmyaIJB/4Mv0PTmHf0D1yBTLkZNZwBGrfUfrd0+R7pO1wkPb/UfhcrEmgvFtAtKTm7ZioJhQJ7g2DKPJc2npoGkbkbM5XH4IqdehrBq/ECwKiJu2Zms100p8kNZpyz9+UXJ5KOle/muuVsHJDyx0A7K905r2unl0lmp6el8SvuOe0fP3bdNZMA3txrp5m/RflZb2ZqNplylrc8UcYbMF7oIMojA7JU1UcyM+41cyKyXupGIaFAB850Xaj9lpy0EDgrk80KTF31VPd0iOheUqaXUhDs9L5r+75W0bmACR04c/PTwUzdri7SLhwamyCCylddQbMoGBVP7dLc4IIyQ2n0mUyODtnhDRpoxhaLC1LbGE66LvVLl86kKOLS4a4kSGayvBzdAM8qPEuukypIXvDfZ5ehYGbMqBr89tCpzHvaCowfprZJEiTT83Y3A2E2mRnbyd22XeZcv3dDba9XvGUy3VH3SJsfgFSf27Y3Se3F+GT2zY7Cg8AW2+/SJkjdLfOD/dweG0W7U5bBnl3bYbpvlxx3oxy6zNsbjDs2VKYSky4/AaBSxF0dw8DWAtPh0XV5TMY50+ONRQPsP/GJfuQmWRR1qTxiHzcZZZ+LTK1fbbtNxplmdkoG83fyMtHmyjdnpbPWdBAsuhDATTe77pZxppmdzDhoX6l3FzLwlidzvDWgepUa3F8z9blhndTMkm6vmZOUKFPYY6Nf+rxMM1vPFsm9eSAd7AyzxlwiiqXq4V7bT/ecMDLahZcOH85up2byx/bV79Vxg+H3BMHVV5UXAhg5tdK00w7YbbO8VttLGMeZEhPM+FgSP98nda3pGHZogjpyzcD75vV6wG07IL5ugA8t0DVBFQZ+dyo7yGRW//zRV3p72G5v+nmXYVfbJObiCvHyqykKHk6qkVNehp0eUDzrrJAZZ85diURPO87NSDJ+ou6q8Xx2iHzbzwiy6bl6gPLo/XYc9JHp4osKZsYhmF8wPb/ofhfQV3JK7+d2sP2CZzkz5B07mglMHZNjy+tK769Bt8vsrgGqzNvU7B13eiqnG3kWfWyly089lR2Qc9l+ZptVfFYtgMrijUd2fX3cRdKoXWQDXtItO3NnZWr900kgLeK6Vd50x0uybU66W6XNFLtJmqPxxoq57sl4LDOtcYGXifaVRlntPWeox54uOE7ZVGlc5n/mXGn+ThnLAFSZ9LAw+XWTgXMlxogdkqC9pquBZN6XyY6vm7Sf+0T8TDNFJ0nI3j0ywx9H3IyT7W3zXj3iXKRGary2n2nfm2SU/HZhy1v61eWaL81T+pL3dsxIfc9+22FETlDjirnmsuJuj3knTpyQ6dOnu3vVRKedHpCadQRqroioWx0/VuPC6dOnr0K50S9dq1+Wmk3uKrGjJklZH0wADgDGs6vzu1A+fdVNc9VM3c1SXzgAwJg/blGesr7HuGtlJbWNr1Tdv3Lp737WrFnuXmUh02xM0FFtAmZXhu0Wd3W6r2LcMFehHJ3xMHykfQMAAKCamC6y5fSiAK4Qgmaocjrq79JyzXQ1u6+i6uksRr2ftZ2S5lWjmMnorgYUpn0DAAAAlejS4edMPdrUb4cyHjkwSuieCaCqkc4PAPDxuwBUHo7b6sD3OH7RPRMAAAAAAACoIgTNAAAAAAAAgABBMwAAAAAAACBA0AwAAAAAAAAIEDQDAAAAAAAAAgTNAAAAAAAAgABBMwAAAAAAACBA0AwAAAAAAAAIEDQDAAAAAAAAAtdcVtztMe/EiRPuFgAAAAAAACrBrFmz3K3KUnFBs0rd0ACuDsoNAICP3wWg8nDcVge+x/Grkr97umcCAAAAAAAAAYJmAAAAAAAAQICgGQAAAAAAABAgaAYAAAAAAAAECJoBAAAAAAAAAYJmAAAAAAAAQICgGQAAAAAAABAgaAYAAAAAAAAECJoBAAAAAAAAAYJmAAAAAAAAQICgGQAAAAAAABAgaAYAAAAAAAAEqjtoduGgPLNqlezvd/fzXJSDzxZ7fgzKXKfjsl89tsqbnjl00T03PBcPPSOrnj2othRQ5fr3m2OncHngjrN9x939Yuxrh1O2jOix59YtNbn1MJ9T1joBwPj0zt/cKXdus1P7B+7BqvCOtJv1Wi9d591DQMVLt4uSupht96XqQm4aqXYTRohp7z4jBy+4+2MU7eTxo6qDZscPbJGcu10tMtfpwjk5KStl465dsstNjy6a6J4cnomLHpVd6xfLyMxNLf8+fpgwht1aLydfyv7xu3ioWzrd7dJmyzJ1HC6rdXeHIDz2hn3s3LpWtnplxK57Z7snxihTYdqvqr4AcDW9I29+4m4qXafecbeutijg1a5uAbB0wGyDSFtU39ko0hoFXybK4vVePUhPm9dKvWpDNY5QuwkjZNJieXTXo7J4krs/Rg22ncyJ6spVvUEz1eDq/milrLzV3a8Gxdbp1hqpcTcBDMPRHunNO7N1XN7YLLLyvnp3HwAwHpw5sl261N+665ukTj/wyZtjI0h1/iOppI4SwBXR3yudt66V2+OTlrPl9nUiWw5kByp0MoKsu129CgAKq9Kg2UU5+PwWmXn37WUGkvw03jAVNJ3iuyqV+aCfC16vu0HFaZqu++ch26UyelxnjMTzKzuls8g6XRgoP6POLd9xHek2y+CW3+++5UfAs9anv9D2KrY97Hs37BbJbV6Tfp//2cH7TUQ+fq5w1kn6dWG3uGB5+8MMFrtsyfuDdcA40iCNWZUrXQm7r1Fun+ruO4X3u+hYcXeV8LWprDF3nBx0ZYN5X7Fj58OMLKwRS2VPl3nJcmYc/6as8I+f8PODY8srW6KzbX55GH+WXvd1Oqu2UzYE7wOAK+eM9HzUZ27VzrhP7viyvtUlb4ZdNM93yXrXfdNMnV3qnc4H7cnjevqbKOR2Rro6vce9jLEzR9bHr41vq2n9ETdXPc+udrFL1iWP+8/FGWhu8pdFqd6upkC2iVNminx0TtVIAjoZYXexLDPXrjHtBr+e4teT0nWxctstKMVt+7hOma6bxm3TuK7s8R/Tt733perept6cPOfX2VNt9eh7dPPNrqtr0TL7y5qsg57nms2qxb57Q/J+VIyqDJpdPLRdtty4seyuUZ2tvTLPpeluvC8nW573d/4NcnLd1jiNd+u6k7IhPDhL6FTHx4P6/Tp9Ux1cGz5KukltvXuKe1VxJdfp6BZZEx2gpRqY6rXd8qBbH5Et69R73ptn11GnKe/uLtrwLry9irEp0RvvE6k329Ol3OrCplWSrqVtM5P5qcJs++aZ3nPz9KMZLkrv2YZkm66rl864i539DpM07QdFXvK7uOpG/Rqzbe3z+nPUMqzjh268qlnUKCtTx4DaR17qlJVfD89DFtvv0nQlao2/L+/aKDM3r0n/YKrjcuDr9vn0cZ5x7HxtnjTc2im93vsvvt8jufsaC6ey+2VEwR/r8HjRy7k9VR4kx/9GtZ30D/92kfvt6015EAcc7bHVUx+Vn1tl7Ucb0p+r3t/r1nlX20rJRZ9VuyzuMmG22VjvSgqgOp3vkde/0Dea5LY506ThRpNrlu6imQpgpZmA10GdpxbSga37pd3MO9IljwcBLvnkcbm/L5lzX596T7FAlwnePW4y42JftMv9LlCnA2aP+11NDwavBSpd7TxZqeo7b8R1DVuHy1Jelpmq17zk2nGqXiLm5GVUD1L1GlUX644CMWW3WzBo/b2pumn8HZvv2+8h4ursd9suk8ff89uYup75hmvfqdfpZBRvntG3pYNbGyRpF25d56WrFKyrR9T+si5pJ/ttytn32raC3GfnPZwhXHDlVV/QLCqwBtHIWtm2LC4wZy9RDbWjAzKg77gU3we9MxATdYM6s/tWYdGBG4vmr0ysnV26H3SpddINzOjgdA3TooEzb50mzm1QDdN6WbvEzXuSboznZKDI+hXcXkNw/L1Oqfd/sGpvl7Xib9+Tci66rbZV9haYKIvvTbaxWafgO0zStNVr79eNcedCr/QcVQ1zf9vqZQgCEhhPZsu8+3LS876rBPW/IVvUXpnsQ5Ei+13KRenN5VLHje0uUC+d73nHaWo/LUV99t0rvSCd+4y8wJ5Hzd8f0yzzx7pAt4Z4WyjJeujtpP54gbrZX1+ZnM11x1ZyBtcts7/OquIQL4c57oqXPQBwJZ3pf90Gw66/TW5Wf6bV3hF00TwjXe+6sNP1T8lrD71mp5VNMk29YrcLeNXVPZ889y01pw/etMGqL7fI8+bx56VFZ7F98br0+APyx8+/Jk9dbx8yAbs5LfJaU4tdFmmSp9Tzzy6Y5i1vtCxPqWcVs7zJ2GxNi92yxPMAqsVsWbZ5rZxsjU4SbhepV3WTPMelt2iWWUS1ke53dT3TRtInMKN2y0SZV18vubN+za+cdgsGTbV1k3qrrX+ePKdrm0Gd3dU957nXzr7Xq3vrAJv//Sh2Hpr6rvR7VJtbZx/67cKJixYn8yhZV1f7y2b/M2lTVosqC5odl/3rdNTYb5wO3cVzJ0VunBI3iq0aqRlOw04HuNrEdjnK68qUZbDr5IJCu3tdJL2ESVNkpvo35aoMtHhRzn0UdTmLftzWyJajbvvqQSA3N0iPzoQrmBnj+Om3pluXlf0denTX1rzx4CbKlBv9ghTjjQ4GizsbZQK79fOy96EC+13agAwcrZea4Bgr2F2gXP7ZNV1JyAzsDY45XoKMNJ1Knq4QJmqm1kv91AKd4E23cde9MppaO4e3zgBwxSRdM3XGl+nS6HWJtF00z8ivTLZYnbTcosNqnnjMsSZ5cME0cyty5jNXodFZYKarZJh15ky4UaJ3TptQOrx15lKwvH7Wmbc8t80xN0Qm3yjD/NkAxh4ziHx0kvBRmScZbQEz7Ma8QbYXbftg5pQCrYrBtFswSLr3QlKf1EOWREydPddr6pa610Uqe/CC3wVzg3dBL9VeXr9VGnKuDRolm2S2C4fD7jOofNUVNNMFoPrTGZ9d0AEYd38IY+IUbtTmN4AHJcoMMwVricDZUNepIi4MYAuSlXFqbDLFZxPiHz599ZsCP0A6cPFSTZJFY7p1ecLv0B8DblJNwUy5gj+KqH5qv2u8r1N6DxUZ76LUfhcrEmgvFtAtKTm7ZioJhQJ7g2DKPJc2npqG0j1SH1tBdpuZRvBqvAAwauKumdlsF81p8lUzzlmfvN6fdKx850iXnIkDUv4YaGek64jXtdPLJLPTs9I02T2nXfrIdddMAnh1E9IBuEx+1puZWkymnOUtT5TxBlSt7Ex8fUK0aHb+UJXTbsEg2eE+Bu5O6pJ6yJKYzgA0vZT0dy3SMNfVMnXAbN2ANEb1T92t0z7j6MCZm5+4XlpF2oVDYxNEUPmqK2iW6qaoJ93X3AVlhtLoc/3it3uDBpqxxdShOc8EzWxjOOm6dFz260yKIi4e2p8EyUyWl6Mb4FljpZWxThdVwz4Jn9k+2iPRgB68wW8P3Z2rs7XA+GFqmyQ/Nnre7mYgzCYzYzu527bLXJGxDUyqdads8AOQ6nM37E5SezE+mX1zc+HxLortd2k2fT+9n9tjY7gVNnt2bbvpvj0il0vXZd7uYNyxoTKVmHT5CQCVIu7qGAa2FpsOj67LYzLOmR5vLBpg/3HTSLpZbou6VB60j5uMsksi0xY8aLtNxplmdkoG83fyMtHq5I7aMGiWXAjg5ltcd8s408xOZhy0yQ3uQgbe8mSOtwZUD9tuCzPxddfMYSZAZCmz3YLBCnts6O/P3TR0PVuk58Ab0hO30ZUwa8wloliqHu61/XTPCSOjXZhuZ5fij+1baP9DJarKCwGMnNmybJcdsNtmea2SNbkG2RpnStiukHZQSP18r8xry+o3n5g4xQ28b16vB9y2A+LrBnjBLmAl9XhdoOzA24+ORAN60EpvD9vtTT/vMuxql4m5uEK8/GqKgoeTarwxCex6ZY3DZMaZc1ci0dP2szOTjB99xkctQ5Kpt13kbj8jyKbnmnHg3PvthQlGposvKpgZh6A+OWMVKLrfBSYuejTYz+1g+5njihWQd+xoJjCVk1w5XQyCbpeZQXpd5qXGAtFTOd3Is+hjK11+6qnsgJzL9jPbrFhWLQCMOG88shsb4i6SxpzbbMBLumT7kTMybcGzSSAt4rpV3vyt1+T5unS3SpspdrO0ROONFXP9U/FYZlrTYi8TbXKTPOg9Z6jHni04Ttk0aVrpf2adtDSVsQxARUl340u325wL5+TkrV5wZaSU2W7BYNnxdZP2c6+In2mm6CQJ2d0pM/1xxM042V7d9z3xMs1qpMZr+5n9xCSj5LcL1+T0q8tVL2un9ibv1WOSe/uf33YgC7GyXHNZcbfHvBMnTsisWbPcvWqiC/g3ZMp6AjVXRNStjm5i48LVKTeOy/5V3VKz2V0ldtQkKetUzACgPGO9Pqmvummumqm7WeoLBwCo4nbg+FLW9xh3rayktvGVqvtXrko+hsk0GxN0VJuA2ZVhu8UNPasPKIO5CuUonMUMkPYNAACAamKGPBn0hRqA0UPQDFVOR/1dWq6ZNsjJdVer+yqqns5i1PtZ68nkEuWjwV0NKEz7BgAAACrRxUPPmHq0qd8OZTxyYJTQPRNAVaPcAAD4+F0AKg/HbXXgexy/Kvm7J9MMAAAAAAAACBA0AwAAAAAAAAIEzQAAAAAAAIAAQTMAAAAAAAAgQNAMAAAAAAAACBA0AwAAAAAAAAIEzQAAAAAAAIAAQTMAAAAAAAAgQNAMAAAAAAAACFxzWXG3x7wTJ064WwAAAAAAAKgEs2bNcrcqS8UFzaZPn+7uAUBpp0+fptwAAMT4XQAqD8dtdeB7HL/0d1+pQTO6ZwIAAAAAAAABgmYAAAAAAABAgKAZAAAAAAAAECBoBgAAAAAAAAQImgEAAAAAAAABgmYAAAAAAABAgKAZAAAAAAAAECBoBgAAAAAAAAQImgEAAAAAAAABgmYAAAAAAABAgKAZAAAAAAAAECBoBgAAAAAAAASqO2h24bA8t3q1dPW7+3kuyeHNxZ4fg/LWqV+61P3VGdNIrNelw8/J6s2H1ZYCqlx/V4njxh1rL5RzYNnXDucYHNFjz61banLrYT6nrHUCgPHp3dfvlrt/aqeOqiou35UOs16PSfen7iGgaui6WJf632fbfnFdKLOelW5bVVQ7sVqY9u5zcviCuz9G0U4eP6o6aNb/Zoccc7erRf461UrTzp2y059aV4g0NMuSWveSYZiw8GHZuW6hTHD3h6v/hdXy3GGKFoxRDfPl1CvZP36XDr8se9zt0uxx2TSMYzA89oZ97Kgyod0vJ+4ZgQJiNJkKU1jZBYAr7V059Gt3U+n+1bvu1tUWBbw61C0APhPMWN2WX2/rPyAD307qQq03dEiLf+LQ1D3aRFqT1wynLochmrRQHt75sCyc5O6PUYNtJ3OiunJVb9BMFXovf7xCVjS4+9WgrHW6JIdf2SMrvj1ygS5gXOnJSV/ema1+OdAhsmL5fHcfADAenM3tlG71d+51jTJXP/DrQ2MjSPXpx5xUADLowETLW/XSvqlZ8mpttU2pIFjtbeo1e/viY0knJ0hzO4EyAClVGjS7JId3dciMby+RGvdIcX4abpgKmk7RXZ3KfNDPBa/X3aDiNE3X/fOw7VIZPa4zRuL5lZ3SWeY69R+QDimSZeaWr9+cgdHL4Jbf777lR8Cz1qe/0PYqtj3se9v2ihzraEm/z//s4P32TFH0XOGsk/TrwlTqYHn7wwwWu2zJ+4N1wDhSL0ubRTreDPa0/j7Zs3ypLJni7juF97voWHF3lfC1qawxd5wcdmWDeV+xY+fDjCysEUtlT5d5yXJmHP+mrPCPn/Dzg2PLK1vM9lD3/fIw/iy97o/orNo90ha8DwCunLOS++R9c6v2q/9CvvllfatbDoVF0qfd8pjrvmmm/d3qnU5/R/K4nl6PQm5npXu/97iXMXY291j82vi2mh7Lubnqef51h9gl65Yn/OfiDDQ3+cuiVG9XU8AaVPbPhQE51lDj2lb90rd3hSxdWF7aQX49xtbL/PpeuodAofoV8oVtyvS2i9umcV3Z4z+mb3vvS21zU29OnvPr7Km2elTfdvPNrqubF7hl9pc1WQc9z5aOYyJ725L3o2JUZdDs0uEd0nFDa9lnCfa09UldlKa7/Jh07PJ3/jY51dwep+i2N5+StvDgLGHPWyIP6PfrAlwdXG0fJ92k2r9dXlivvHVSDdRyssx6OuRlecCtj0jHI+qg7q2z66jPyux9uWjDu/D2KmaCLFynXy8y32xPl3KrCxuTBW3nt7N1RjI/VZjt6JjhPVenH81wSfrO1SfbtHm+7Im72NnvMEmzfkDkFb+Lq27Ut5hta5/Xn6OW4ZHCATpUt5qFS2VF6hhwx9W88OArtt+l6QpUi78v72yVGR0t6R9MdVwOzLPPp4/zjGPna3VS37BH+rz3X/ogJ8eWLy2cyq7m3xL/iBf6sQ6PF72cO1LlQXL8t6rtpH/4d4issq835UEccLTHVu6WqPxsl+aP29Kfq97f59ZZdys/Fn1WbZMti2SF3WZjvSspgOr0aU5+8YW+0SiLaqdK/fUm1yzdRTMVwEozAa8jOk8tpANbD0mHmXekW54IAlzy6yfkoQ+SOb//gXpPZtntmODdEyYzLvZFhzzkAnU6YPaE39X0SPBaYFyx9bv5t9TZdtOFATnVoNpl/knOUm0+rx7Tutye6Nvh2li2XnMgbk/0v+C3KdtlaXlNQGj9fam66QpVpz2gN2xtnbrt9xBJt4X7e/02pv99qNfpZBRvnlErUwe32iRpF7Y3e19Uwbp6RNWDH0nayX6bsvYe21aQ5XbeZDNWluoLmkWBlkE0sla0Nkn0apOm2zMgA/qOzi5paJYHvDMOE3SDOrP7VmF5Qaxo/sqE2tr0c1nKXacLfZIrlmUW8dZpwpx61TCdL823uTdN0o3xYzJQZP0Kbq8h6O9VP1bNS+L5Se0StQb+9j2VLIvaVtmrNkEW3pNsY7NOwXeYbBP12lW6Me7obdajGub+ttXLEAQkMJ7USt3yY5L7wFWTCmZvFtnvUi5J31vHUseN/owlOsjW6+1kgxqHUH32t1d4QTr3GXmBPU8wplnmj3Xe8aKXU5JtoSTrobeT+uMF6mrnrRD5eMAukzu2kjO2bpn9dVYVh3g5zHFXvOwBgCvp7Ilf2GDYdYvkJvVn6qxvBl00z0r337uw03VPykt/+JKdljXKVPWKn7uA19w525Ln7lBz6j9kg1VfbpZt5vFt0qyz2L74heT8Afnj51+SJ6+zD5mAXW2zvPSdZrss0ihPquefrp/qLW+0LE+qZxWzvMnYbI0L3LLE8wDGG3tiT580f9jPLPMSC/SUN+ZZyKvHmDqQePUeHdDx2zHKsXNxC1A1a7zPRXGpbrW2/nlqQNc2gzq7q3vWRd/JPV7dO+P7sPPQVBtTv1C1uV/em24XTli4MJlHybq6alNv8j+TNmW1qLKgWb90PaKjxn7jdOguDZwSuaEmbhRbNVIznIadzqBoFdvlqKyuVOWvk840kehsSbkm1cgM9a/mqgy0eEkGPo66nEUZMOoHrMdtXz0I5KZ6yelMOPVc0TRWP/3WdOuysr9DTyotOzJBam7wC1KMNzoYLO5slAnsFjquCux3aQMy0DM/7xibUDMjCTANhX92rdyAeQnmeAky0nQqeVLJS6uZMl/mTylwqlQfW1H3ymhq2zO8dQaAKybpmqkzvkyXRq9LpO2ieUY+Ntlic6X5Zh1W88RjjjXK6vqp5lbk7GeuQqOzwExXyTDrzPmtGyR657RrS4e3znweLK+fdeYtz6Lot+IrN4xIfRmoKKZbXou9IEBeQkK6e2Y45llRqk01P69NkdCZRq1iu+aVzGBDQAc5k/qkHrIkYursb/WZ7Wnawn4yhvmuo/f5F4aYIAvXtUv9W64NGgVGM9uFw2HblKh81RU001kS6s+etujg0AEYd38IY+IUbtTmN4AHRQfO9BkMExAqETgre510polI/ZxBhcyuMluQrPCuUBNN8dkEc/UU/ZiJNGYHznTg4pWaJIsmHPgz/A5NY97RP3AFMuVm1FTStsSIUvvd0uV7pO+wPeOUOb5Fqf0uViTQXiygW1Jydm1IAfMMpsxzaeOpaRCZuzFTeQyu2KmnEbwaLwCMmrhrZjbbRXOa3GDGOXtffnEi6Vj5bq5bzsYBKX8MtLPSnfO6dnqZZHZ6Whq/4p7T/vFj110zCeDNvXaa+VuUn/VmpmaTKWd5yxNlvAHjhQ6iPDIgS1V9JC/j3iQSjC4dONN1ofZbctJC4KxMNiswddVT3dMhontJmV5KQVvY+67t+1pF5wImdODMzU8HM3W7uki7cGhsgggqX3UFzaJgVDy1S3ODC8oMpdFnMjk6ZIc3aKAZW0wdmnUmaGYbw0nXpX7p0pkURVw63JUEyfzCWTfAswrPctfJpKNerYyxyOC3h05l3tNWYPwwtU2SIJmet7sZCLPJzNhO7rbtMuf6vRu2r3vMdEfdI21+AFJ9btveJLUX45PZNzv0VZS8M1aeYvtd2gSpu2V+sJ/bY6Nod8oy2LNrO0z37XIHri1Kl3l7g3HHhspUYtLlJwBUirirYxjYWmA6PLouj8k4Z3q8sWiA/Sc+0Y/cJIuiLpVH7OMmo+xzkan1q223yTjTzE7JYP5OXibaXPnmrHTWmg6CRRcCuOlm190yzjSzkxkH7Sv17kIG3vJkjrcGVC97dczsep2qBEmdHpfMaxPo1x9bXlfg9YOh2h8vJO08c5ISZQp7bOgLNribhq5ni+TePCC5uI2uhFljLhHFUvVw73vWPSeMjHbhpcOHs9upmfyxffV7ddxg+D1BcPVV5YUARk6tNO20A3bbLK/V9hLGcabEBDM+lsTP90ldazqGHZqgjlwz8L55vR5w2w6IrxvgBbuAlUMXDCNSqA9H6e1hu73p512GXW2TmIsruO1rpih4OKlGTnkZdnpA8byzQooZZ85diURPO87NSDJ+dKaaWoYkU2+HyLf9jCCbnqsHKI/eb8dBH5kuvqhgZhyC+QWzN4vudwF9Jaf0fm4H28/anwvJO3Y0E5g6Vt6xH3S7zO4aoMq8Tc3ecaencrqRZ9HHVrr81FPZATmX7We2mR/UBoBR541Hdn193EXSqF1kA17SLTtzZ2Vq/dNJIC3iulXedMdLsm1OululzRS7SZqj8caKue7JeCwzrXGBl4n2lUZZ7T1nqMeeLjhO2VRpXOZ/5lxp/k4ZywBUmfSwMOm6SaoLpZrMgPBDSbzIM0FqxKuH6WogmfdlsuPrJu3nPhE/00zRSRKyd4/M8McRN+Nke9u8V3e+jdRIjdf2M+178z3ntwtb3tKvLtd8aZ7Sl7y3Y0bqe/bbDiNyghpXzDWXFXd7zDtx4oRMnz7d3asmOu30gNSsI1BzRUTd6vixGhdOnz59FcqNfula/bLUbHJXiR01Scr6YAJwADCeXZ3fhfLpq26aq2bqbpb6wgEAxvxxi/KU9T3GXSsrqW18per+lUt/97NmzXL3KguZZmOCjmoTMLsybLe4YWX1AaWYq1B6KeKjhLRvAAAAVBMz5MlV70EFJAiaocrpqL9LyzVTm5xqbk9fXhoYKTqLUe9nbaekedUoZjK6qwGFad8AAABAJbp0+DlTjzb12xHpFguMDLpnAqhqpPMDAHz8LgCVh+O2OvA9jl90zwQAAAAAAACqCEEzAAAAAAAAIEDQDAAAAAAAAAgQNAMAAAAAAAACBM0AAAAAAACAAEEzAAAAAAAAIEDQDAAAAAAAAAgQNAMAAAAAAAACBM0AAAAAAACAwDWXFXd7zDtx4oS7BQAAAAAAgEowa9Ysd6uyVFzQrFI3NICrg3IDAODjdwGoPBy31YHvcfyq5O+e7pkAAAAAAABAgKAZAAAAAAAAECBoBgAAAAAAAAQImgEAAAAAAAABgmYAAAAAAABAgKAZAAAAAAAAECBoBgAAAAAAAAQImgEAAAAAAAABgmYAAAAAAABAgKAZAAAAAAAAECBoBgAAAAAAAAQImgEAAAAAAACBKgyaXZSDz66SVau8ad9x91zIvnZ/v7tbAS4eekaeOXTR3RsJx2W/2kaVtA2AEde/X1Y9e1CVCPn0MVe4DNHS5Yh5fYF5GRcOyjOr9qsjrwTzOo5NALja3vmbO+XObXZq/8A9WBXekXazXuul67x7CKgauo0T1rdsuyduI+bV19LPUwe7Skwd+Bk5eMHdH6NK1vlRNaowaDYgA0frZe3mXbJrl5vune2eq2S2EF+zOefuj5TZskxto2W17u5wlRsQAMaS2nmy8ugWeSOvcnRRenM5Wfn18suQiYselV3rF8tEd3+ojh/YIjPvWymd73E0AcDV8468+Ym7qXSdesfdutqigFe7ugXAZ4IZqzZIp7sf6+8VaYvaiFtlrWyR7XEygm5rbfCe3yjSOvYDN1Vp0mJ5dNejsniSuz9GDbbOX/pEPMaqKu2eOVOmjPGDbHCSQnzjfe4hACNotsxTx1ZegOpCr/QcXSnzRiqoXLbj0rtbfe6982Tl7m4qbABwlZw5sl261N+665ukTj/wyZtjI0h1/iMhCQbIpwMTa3INsnXzWql3j8Vql3mJAhNlXn295M4O2Lv9vdJ561q5PX5+tty+TmTLAYIcwHhXfUGzC+fkpLtZPj8VNzyjkE7TXZXKotLPBa9PdfNy3bYO2W5W0ePH93nzKyulczDZYFFXMW+5TUTb77bqL3PQRdUt/3FzhsZ/v6WXPd091NsG+r3rtkhOOmVD6n3+Z6fnly/Y3sH2sWeOkvnkLY9eBv/9RT8LSMz++kqR3b3e8a32t/d7JHffPHUEKsG+VbCbdKoM0NL79P733cPF6Iqb+VwdzMtJz/upoyD/GA/KodRxoj8z1bJKH492Psn77Vmwg+413rHtzc9f9+isWVKu2TLSX4aR7VIOAFfKGen5qM/cqp1xn9zxZX2rS94Mu2ie75L1rvummTq71DudD9qTx/X0N1HI7Yx0dXqPexljZ46sj18b31bT+iNurnqeXe1il6xLHvefizPQ3OQvi1K9XU0Bq/zsn+PyxmaRtUsK9yaYOGWmyEfnUm2RyODrP+n6IHWjYtJ104Ltw7w6t+I/Vqzu7oZBiZ7z68qptnrU9nfzPeieM69PfX60zP6yJuug52l6jO3ekLwfFaNKM81c0EZP4YGUobO1V+aZNFydyZWTLc/7O/8GObluq0vT3SVb152UDWXM09epjo8H9ft1Aa4Org0frZWt0fzunuJeNbKSddooK83BuV3kfm8di501ObpFuuVBu876LI16f1kHdu0y+3pZKRv1e023WN1AXyM99dE23CprPyoyv1TatFp2r8uc/hEyZ47Mc2r6eq9s2G2fM3TB1XrS65prP4sfJZRFd9FUZUdvvG/qylTSNfP4e2L3az21rZTc5jfsj2hRtgzxuwLU5HRgubjj73XGn6uDeblcb16ZU7jcuii9Z5PjZOu6eul8KXkufTzuknnvZXRf2N3jygubGl9y3VUZ0ft1+/zG+2z5uz0qQ8reVgAwxpzvkde/0Dea5LY506ThRpNrlu6imQpgpZmA10GdpxbSga37pd3MO9IljwcBLvnkcbm/L5lzX596T7FAlwnePW4y42JftMv9LlCnA2aP+11NDwavBcaBJCCi61FeF8C8oTpUnemlvBpS2iDqP8f3+W3KrdI4Ok3A6lSofWi+sx7pjYNr9jtbebcNmhauv6rXPb9FZnrznGcet/vHBtnoHtf16Br3jKI+d8B939nJLKo+vi6pn+9qm6nu26Db7HttnVzus/MesaGRcEVUX9DM9IF2O6qaNt64RdaUCHKtbFtmM0mU2UvWSv3RATGJui5N98FFybmKiYsag4OztOjAjUXzVybWzi67H/RgJOtku53JfY3xj4LJqPko+6yJ4a+z2p6N6v0nzxXbgkW47m2N8TacKIvvLjJOUypt2i67/Ww3tpS/LdVr/e6qOtBQv+5Br/+7/aysgAOQL+iiGaTpz743KSdsgO2knCtVDgTzMPvk/RndBXwXDkq37poZvSevQmAVLLf0Z9ybHCcT5zYkz+Udj3q9VOXD3Y555YVWct1VBSA6bk35ol4Rf0a52woAxpgz/a/bYNj1t8nN6s+02juCLppnpOtdF3a6/il57aHX7LSySaapV+x2Aa+6uueT576l5vTBmzZY9eUWed48/ry06Cy2L16XHn9A/vj51+Sp6+1DJmA3p0Vea2qxyyJN8pR6/tkF07zljZblKfWsYpY3GZutabFblngewPihgxe2nThPelf52UezZdnmtXKyNQqqbRepz6shpQ2y/hN3BVW1tNm1SV0MJRRsHwY9MoJhVUrVX5P27Wz1fag/rg6+0RsPfeKixck8UnX6LHpcdf8zb5e1t/on5FGpqjTTLGEahIMMckUunjspcuOUuPFp1UjNrTkZGGoDUGdjtYnLhPPTTkdPzdR6qZ/qRcmvpAsDSXfNaGrtLBK005kwyWuTTDJ7gYcaryGfdlHOfSQyc0rwAzSpxgsmAMWZ4JPrommCsPXzkuM/lcadkZ2VIbsMKc50CU0dM/qzSmSHhvx0dNNl2tHH462qDHN3yzaYddfH3FA+AwDGlKRrps74Ml0avS6RtovmGfmVyRark5ZbdFjNE4851iQPLphmbkXOfOZaUDoLzHSVDLPOnAk3SvTOaRNKh7fOXAqW188685bntjnmhsjkG6Vo+w+oajZIJn42fCr54lGZJ4Oox5Wo/+hg3UaxXfPK6QkFX6H2oa27i0uQ0HVoWXd7ErQqWH+dKIvXb5WG3Br7XDScz1DryQVNlCk3upuoaFUfNLOGdmGAwv3YiwVvyqADZ7ow3twgPeuuTODsqjE/IEl31HjKHGtAF4hrZODu5HXpCx+EwUobKLNsoZSZEUcDHuWaNE8azBkhPRB/vTTMdXup/tFdNyCN8T6ckZ2VIbMMMYHkQlxGZZwu7ibTTTo93lpBOmD2Uk1yzJku054wiFxqHMghrjsAVLS4a2Y220VzmnzVjHPWJ6/3Jx0r3znSJWfigJQ/BtoZ6Tride30Msns9Kw0TXbPaZc+ct01kwBe3YR0AC6Tn/VmphaTKWd5yxNlvAHIMPgrqJcSZbltre8p2RMKkRLtQ113F50go78vGUTdXQfO3Px0MFMHzkY82cJvq6KSVV/QrP9gKgil+4/bAbWHwHSL8i9FrHb9Q9tlizo055mgWY3JOksG6T4u+3UWVREXD+1Plm/SFFFNais1kODYpbPW/O6OZvu625lMQZbehoWF2WQ6cOFuqm/QdJ2Lx2ZS+t+QLUfdbcWM/bR5u/f92/7q4mcLAUXZKyl1tqr9+tboOFfCM0+626W7WZT58R3E+BiFrtYZB/Pc/SLC7DabueaY1PRO6faOx+MHSoyxNtR1B4AKFnd1DANbi02HR9flMRnnTI83Fg2w/7hpJN0st0VdKg/ax01G2SWRaQsetN0m40wzOyWD+Tt5mWh1ckdtGDRLLgRw8y2uu2WcaWYnMw7a5AZ3IQNveTLHWwOq1/F9/gXdbDshvuBTwLb5SnXHK5f6rH1JG8acVEWZirUPNV13F+k58Ib0xG10pWj9VbXZvYvF6fat4erbG7znLh466O0zpaR7hozsPoSrqQozzQZkyzovfVMP5Of1Sx4cfdXKjTJzs0vdVJMZiD7OkrLjE0n8fK/MayuegzFxinjLpwcItwNQ6oZuqivYGDVx0YPq0N8ia9z26P16ELU3Y6C5rmWmwNFR/PQ21FP2hQDcpZ3j7dMr4p1JmH3v1tRnr3pvXvpMg+n6qgdcjN5vBzx/1Bu/CSjFjAGm/qaORz0mQWrf06NWlEGn+YfjY9xdeEwzE8DKrLy5YJ4fNC7AjLvorsyjp+1nZ3qfF3VFSI7HvGM4NNR1B4CK5Y1HdmND3EXSmHObDXhJl2w/ckamLXg2CaRFXLfKm7/1mjxfl+5WaTPFbpaWaLyxYq5/Kh7LTGta7GWiTW6SB73nDPXYswXHKZsmTSv9z6yTlqYylgGoIjVTT3rDX6yRLTf67USd0RQ9F7b5hmuiTPHrUq0iG0ds3tWuePtQ03V32d0pM1NjXxerv9ZIzUdJXdl812Y/sN029YXkkuf0q8tVL2un9ibv3Twz9T37dfTstjDGqmsuK+72mHfixAmZNWuWu1dNdCH9hkxZ7w0ciDLo7WbTdbkCCQqp3nJjhMTp65Q/AMaHsf67oK+6aa6aqbtZ6gsHAKA+VyXK+h4rsm6qr5jfLTWbvSuyIqWSj+FxMqbZWKej2jRYB8ukvGZ1ZQNQpuJdEwAAAIAryQwtQt0UYwhBM1SMi4eeidNd45RXsmOAQUh3PcjvmgAAAABceVFbz7TxqJtiDKF7JoCqRrkBAPDxuwBUHo7b6sD3OH5V8ndPphkAAAAAAAAQIGgGAAAAAAAABAiaAQAAAAAAAAGCZgAAAAAAAECAoBkAAAAAAAAQIGgGAAAAAAAABAiaAQAAAAAAAAGCZgAAAAAAAECAoBkAAAAAAAAQuOay4m6PeSdOnHC3AAAAAAAAUAlmzZrlblWWiguaTZ8+3d0DgNJOnz5NuQEAiPG7AFQejtvqwPc4funvvlKDZnTPBAAAAAAAAAIEzQAAAAAAAIAAQTMAAAAAAAAgQNAMAAAAAAAACBA0AwAAAAAAAAIEzQAAAAAAAIAAQTMAAAAAAAAgQNAMAAAAAAAACBA0AwAAAAAAAAIEzQAAAAAAAIAAQTMAAAAAAAAgQNAMAAAAAAAACFR10OzS4efkucOX3L3IJTm8ebWsXm2n/Oc9/V2yevNh9Q4A44EuM6KyoWT5MBoGW+aM1TLqwmF5ztuOI7Mt+6VLzaer393N0P+C+qwXirwAAIbg3dfvlrt/aqeOqipi3pUOs16PSfen7iGgauh6Q5f6P6DrTnH9JP18WA8sVufAKDL1yOfk8AV3f4wy+wuxgnGhSoNmtnHV0nHM3U/0v9AiHTe0ys6dO9XUKjM6WigQAZiAS8u5pa5s0FO71MuAexY+U0koGZxaIa3xtrRl7fACZ7XSpObVVOvumnI+XaGqvUd91j3xCwBgBLwrh37tbirdv3rX3braooBXh7oFwGeDX22yx92P6WBM2ylp3mTrJ+3Np6QtDnpckr5z9dIe1V1aV8ietoygG0bfpIXy8M6HZeEkd3+MmrDwYdm5bqFMcPdLKa/+jLGoCoNmuiHVJqq1Jq3L3UOxfunbO1+ab4saVbWypHm+7Oll5wXGt0sy8LHIinl+wGWCLFxIAGZk1EqTqnweO0cQEkBlOZvbKd3q79zrGmWufuDXh8ZGkOrTj2nMAxl0YKLlrXpp39Qs891jkUsf5OTY8qVxMGbCwqWyoicnfeYEnKr33eMFQGrrZIWckoExnu0EYPRVYdAszEbw9PfJnoZ6qfOi1hPm1Mv8vX1FKx4D5myFS9UNosP2TEaSxutnUuRHk23X0DizzXWtOqy7FKn3mseDbk2Fs+BsNl30ujA1NLVcahl0Fk0qyyOVmmxfA4xfE6TmBikRQE8fc8WOp/xyQB3nplt4khlluhLG70mfySxW5hQWlS/+cqYzsdLllf+ZhdctXP7dP3VZvHvbzGvLzdS9NHDK3dLS3eTLW06v/DTlpD6DfEw6HlGvceWfXVZvgYqWc3qd1ef2+2UuZ5QB+M5K7pP3za3ar/4L+eaX9a1uORQWFJ92y2Ou+6aZ9nerdzr9Hcnjeno9Crmdle793uNextjZ3GPxa+Pbanos5+aq5/nXHWKXrFue8J+LM9Dc5C+LUr1dTQGrcPbPJel761hwgrRW6pYfk9wHXp3OuXT4ZdnjBdhCUZ0jqc/ZOoRfh0nVFYvUtRBydbS4bpjednG717WlU1vSf6xI/bxYmzuzju7mm2q3pz4/WmZ/WZN1MD1ahlB/xtjAhQBK6emQl+UBm6arz1ioHT3ayXWh2NIxI68L0qAOAjX/gXn2/U21qlG4q0NmtCbzq3Mvy9PfZ7LpotetUPM54C+XPsMSLde8Pmnba58z9AHupSbrbmjNH7dReGNcq73HHgfZP2T6B9BmsEbH3IyOHckPYa9+yj2nM6o6Dtgf2MjenMgq/bxNNdc/nG0SdRPX3QNq3AuVImVOOfa09Umdm2+rqgh27HI/5qpysMMvr1qj0qX4uhne8t/3h3p554sst8ufeYIiT78cUBUFW1HVwS+/m7xelhnS8YirlBRcTo9J21flnsy35VhW5bisck5tn1dEHoieb9gjbZxAABD5NCe/+ELfaJRFtVOl/nqTa5buopkKYKWZgNcRnacW0oGth6TDzDvSLU8EAS759RPy0AfJnN//QL2nWBFlgndPmMy42Bcd8pAL1OmA2RN+V9MjwWuB8c4LpOzQdbFSQz6oOlqfa8e1Lld1iOh9pv6Srg/2v9Amp5rb4zrJUq/qhxIKtXt1NmCcKaipOuYre2TFt229sHD9vHCbu1QdPWm3u8dS9MncpB7u12/1ECKDrz9jrCBoVkpDszyw0DXHVENt6XKRUwO60eXOVrQ2SbLPD6G7p5r/kuCgsfPXaqW20AFV2+QdbLVSFy6XKywM9Vq/q2p/7x6Z3/yAd+Zkgiz8tipI3upT7wbGK3UcrLM/nKrWoypMXtaRyVL1j1V9rEt8ZrL2Hq8cyErn989UqgrZy3tXSKtXEZuwcGHy/oJlTnn8Mqn2tmaZ3zPgjczmLZcqXMzrSqybUeRMa2G28mjPtNmgnCmzLvRJrie9/lK7xASs+uINnrGcg1ReOTdfmldFZaV9Xj4eoBwEYJw98QsbDLtukdyk/kyd9c2gi+ZZ6f57F3a67kl56Q9fstOyRpmqXvFzF/CaO2db8twdak79h2yw6svNss08vk2adRbbF7+QnD8gf/z8S/LkdfYhE7CrbZaXvtNsl0Ua5Un1/NP1U73ljZblSfWsYpY3GZutcYFblngeAAxzUs4GPB6QHem6YJblrXF7rHaeqkOoGuDSqA6XUR9MhqmYoKo3cUsNpRRs9+rbXqagq2PWRd9Jifp5Xpu7jDp62G5P0ydz/c8M67eoVATNtIYaGXywXzVEe+ZLTdCQnFAzYxiNLt1ob5f6t1psQ7NoxoPtqmQbpKu9TLLs5UrYsZtm1AQF9aSaoHENjFe2i7c/OKzpWtjTIS1xEMimWMeVH+/MZObAs74LA3JsSGXOMOmK4KZ6yenujGo544zZUus2ZP6FALwzapnrb7vHmspLgeUcHMo5AMOVdM3UGV+mS6PXJdJ20TwjH5tssbnSfLMOq3niMccaZXX9VHMrcvYzV7DpLDDTVTLMOnN+6waJ3jnt2tLhrTOfB8vrZ515y7MoKo+/ckPSuAPGsbz6gqK7eerssZfL7Ymj6xhF6nc606hVbI+GvC6FKKFQu1dt19uaRdwJUT1mnTQvScq1gvXzAm3uEa+j2/otKt/4CpplNJjMgJA31KhderDUAdVwLJ1NEhnS/CJRtosrWDMDZ7Z708C3kwZp+qIH4XLZBqTlNU5DV6MhD4xRZrxDV16YYLhLp05N+kyU/kF+ZECWxo/rboNFXM3ATXwG1WbT6YBU0XUbDUXWP660Zizn4FDOARimuGtmNttFc5rcYMY5e19+cSLpWPlurlvOxgEpfwy0s9Kd87p2eplkdnpaGr/intP+8WPXXTMJ4M29dpr5W5Sf9WamZpMpZ3nLE2W8AeNCVt3AXiSucLLByDJX+Vb1m/ZbctJC4KxMJdq9k+qkXnQXTd3bSqR+jqtLlqyfZ7S5R7yO7rfBUcnGWdBMd3Xyx6zxx9kZrAlSd8v84FLE/dLVtieen2mMehcZuHR4h3T0uDuZ1Pu9IFnNlPCaLxF1MKeyyXSB726qKppOWd3zilcQ9x9Ifa5OHz6WGrPI9uuWW+rUWgHjkToGXkhXXkxAPQqw6JTuQmOLhWeldHdHdzOT/nEPxs66dPiwV46Mkv4ub/l10N/dLLZuoyFj/fWyte116fSFlnOQKOcADEfc1TEMbC0wHR5dl8dknDM93pjN7rpbnvhEP3KTLIq6VB6xj5uMss9Fptavtt0m40wzOyWD+Tt5mWhz5Zuz0llrOggWXQjgpptdd8s408xOZhy0r9S7Cxl4y5M53hpQvUxWklc3MIP9RxeJu3BYuvysMlM3mZ8EYYYlXc80bUSUqVi7V9NtcpHcmwckJ94F/4rWzwu0uYddRz8mHW/671VtfynVpROVYNx1z/QH+06NszMEOm3XdOHy0j5T8zNjiSXj+uyQpdJctAGoDux42Vbbwfwzsz3smEPmqnHmtX0iXsTdrKM6ROPuVr116Yi8Wi47MGH0/hbJ3dIuD0d98IFxZ4I6+oIuivr4iweYr5WmTc1yyox1Fk3uijh6vILU8aY7JhZjU8KTckh/lj76R9mkGm/57TFvy6oi61aAuUT7Xrv8Q8kCC9ffFp1uDIiCyxnyysGss7WUcwCGzBuP7Pr6uIukUbvIBrykW3bmzsrU+qeTQFrEdau86Y6XZNucdLdKmyl2kzRH440Vc92T8VhmWuMCLxPtK42y2nvOUI89XXCcsqnSuMz/zLnS/J0ylgGoJjqT3asbpOp6qv4hHa67nqmb6IsJ2Qs4DV9Qz9T1nswrfCJf8XavpnuHyN49MiM1pnex+nmhNvdw6+jzpXlKX/JefWEr73seXv0ZV9M1lxV3e8w7ceKETJ8+3d1D+ZK01qEGCIFKdfr0acoNAEBsrP8u6Ktumqtm6m6W+sIBAKjPVYmyvse4a6U3qP6Yp69G/7LUjFigtfro737WrFnuXmXhQgDjgO0WmlxJBAAAAACAscYMkbK8roICZqh2BM2q0KXDz8VpoXFqaEVF6gEAAAAA40XUhjVt19G6IBUwBHTPBFDVSOcHAPj4XQAqD8dtdeB7HL/ongkAAAAAAABUEYJmAAAAAAAAQICgGQAAAAAAABAgaAYAAAAAAAAECJoBAAAAAAAAAYJmAAAAAAAAQICgGQAAAAAAABAgaAYAAAAAAAAECJoBAAAAAAAAgWsuK+72mHfixAl3CwAAAAAAAJVg1qxZ7lZlqbigWaVuaABXB+UGAMDH7wJQeThuqwPf4/hVyd893TMBAAAAAACAAEEzAAAAAAAAIEDQDAAAAAAAAAgQNAMAAAAAAAACBM0AAAAAAACAAEEzAAAAAAAAIEDQDAAAAAAAAAgQNAMAAAAAAAACBM0AAAAAAACAAEEzAAAAAAAAIEDQDAAAAAAAAAgQNAMAAAAAAAACVR00u3joGXnm0EV3L3JRDj67SlatslP+857+/bLq2YPqHWPdcdnv1sdM+467x4dPb8PK2AbA8Jn93TuWipYPo2GwZc5YLaMuHJRnvO04MtvSlnP7+93dDMf3qc8awfIPALR3/uZOuXObndo/cA9WhXek3azXeuk67x4CqoauN+xX/wd03Smun4TPp9tUV7weCMvUI5+Rgxfc/TGKdvL4UaVBM1vgrdmcc/cTx/etkS03bpRdu3apaaPM3LymaCOsElw81Cs1m/X66GmrrP1ow4gV8hMXPSq71i+Wie7+cOlGLT9AGIv0vrnmbKM7juyx1CAD7ln4TCWhZHBqpWyMt6Uta4d37M+WZWpey2rdXVPOpytUs+9Vn3XvbHcPAEbCO/LmJ+6m0nXqHXfraosCXu3qFgCfPQm6QTrd/ZgOxrSelLWu3bR13UnZEAc9dGLFBjm5bmuq7lLp7cSKNGmxPLrrUVk8yd0fowbbTi6v/oyxqAqDZrohtUGkbZdsvM89FDsuvbvrZe2SqFE1W25fVy+d71X2zjtx0TKvUJkoi+9eKblcL1FvoGwX5dxHIiu/7gdc1LG0iADMyJgty9pUuXSWICSAynLmyHbpUn/rrm+SOv3AJ2+OjSDV+Y+EtjyQTwcm1uQaZOvmtVLvHotcfL9Hcvc1xu2miYsaZeXRHuk1J+AGZOBovTTMjUIgs2WeakuePEeLChjvqjBoFmYjePp7pfPWBpnnRa0nzm2Q+t29UixsNmDOVrhU3SA6bM9kZKfx5keTbdfQ+IyF61p1UHcpUu81jwfdmoZyduPiuZMiN07Jjnq7zzweL7fL1PBTlf1lTnX/ipbfT132Mz3yMz+S99v3btgtktu8Jv0+/7OD96e3b0aKtRN+D+ntFixvv97G/rzSXXbDZcB4MFGm3CglAuj+fhRkTKb24axyQB3nZh9L9i3TlTB+T3rfLlbmFFbq+Cx2PBVet3D5//NOl8W7e4N5bblllCmXYsWPuezljNZP3TTlpD6DnJMt69RrXBlll9XbXsH3kt6Wrrwy5UH0msJlDIDx6Iz0fNRnbtXOuE/u+LK+1SVvhl00z3fJetd900ydXeqdzgftyeN6+pso5HZGujq9x72MsTNH1sevjW+raf0RN1c9z652sUvWJY/7z8UZaG7yl0Wp3q6mgFU4++ei9OZywQlSHRjLSc/7uhZhb285ENUEbLJFEkRLi+ocSX3O1iH8Okw6w75IPRIBV0eL64bpbRe3TVPtVMd/rEj9vFibO7OO7uabarenPj9aZn9Zk3UwPVqGUH/GGHG5gnz44YfuVnl++fPvXf6zg5+5e8rxfZe/t+nvLnuPXL786d9d/rPv7bv8S3c3Rb/+e948zGu/d3nfcXv3s4N/pp733/vLy/vC53/uz/mzy3+3KXk+mn98P3xeze+X8e1ypZchT7BOdh2+lyynWcc/u/x3n9q76W1ml89fZ72Nk+f1Z3vv1YJtnvmd+NvQf3343RxX28PdTFPL9fPkM8w6pZYpfxsnn+nu+99TuEyoaOWXG9G+kXX8hPtRel//5c+Dfdjbf+wxlj4uzHHj7XOfHfw7+3rz3sJlTh7/eMnbt93nlDyeiq9b1vLnl22B8LNSn1HimCu4nPZ9hZZTSy2Xmaf/vH1/Uv7YZcrbfsXWC0BVKPt3YeCFyw//5T+//M//8rnLb6u7vz78sLqt7r+i7znvP2cf86e/euHyr9VT8ev9ybz37cvPhY/rqdj73PTc+9mf+fBh9c54eYPJLe/br2Q8Z6aHL78wYF4CjFmDbQfm10XCeoQVtk1M3UnXD4I6RsjWj5L5Re+L5xXUB9Of85lq4yWfOZ6U9z0GdTy1LdP1v2i7h3XB9Hf8y4L18/w6ZdTmNt9jkTp68h5FPxa0Of3vPNwHStafq9ygj+ExhKtnlnLrWnlwkTvDMGmxNMZpuu5sRdsySc5XDKG7p5r/7bXutpOkAc+W2cFzxenItu2Ln5lpF/HWyWTaqX9xl9VJ86Th1pwMeFkfIX+dZy9ZK/VHB4Y88tPx9zqlft3tyTasvV3WSpQmrZ2Uc9HtWrU93M20ibL43uSMklmnaJlMdqG/jdVr7/fStS/0Ss/RlbLRHwdJL8OtndLLGYBxRu0b6+0YFtLqnVnS8vYjfayLOzOp7t3rlQO182Slv99qXlcAfWare3d6n5u4aHHy/oJlTnmKH58Zx1OJdTP85S9bp2yIz7TZLvOmXCrrmCvnuC/Oli0Plui6rsq++6Oywz4vH51Ln7EEMG6d6X/dZnNdf5vcrP5Mq70j6KJ5Rrre1Z03leufktcees1OK5tkmnrF7j6bC1ZX93zy3LfUnD5403T5lC+3yPPm8eelRWexffG69PgD8sfPvyZPXW8fMmOqzWmR15pa7LJIkzylnn92wTRveaNleUo9q5jlTcZma1rsliWeBwDdttMZ7b1ft+Od7dr1oMjzJTLC7tsYt7lmf13VIVQNsDGqw2XUB5NhKiaqNl7UckFJtcu8tq3fbdbPFFRcHXNe9J2UqJ/ntbnLqKOH7fY0Va/c7H8mbcpqQdBMu7VGatzN8tl+7zVBQ3LilJnDaHTpRvtWacjp7ouqoVl2tyzFpJ92mwsCPBoV1uWYNEVmqn9TBt0gHgl2HCnbXTNqXK+RLUdd0E4PArm5QXp09yv1XNE0Vj/9dt0WiS4BUbSrqnZhQHJ537/tqjeYQAWqie3i7Q8Oa/ajo1tkTbyf2hTruPKTSvHOGHjWl7nPXQEFjqeS6zZk/oUAvC7zpY65wRz3BdmyZeaU4MifVDOsID+A8STpmimfPG67NHpdIm0XzTPyqy/03zppuUWH1TzxmGNN8uCCaeZW5MxnrmD7ol3uN10l75d2M5/AhBsleue0CaXDW2cuBcu77XEbnNO85bltjrkhMvlGKdr+A8YJU1/of0O2SP6Jdil3nGhdxyhSv9MXK9ootmteXpdClJAe1kMP9xPRJ4ij70iPWSd+MkbB+nmBNveI19Ft/RaVb3wFzTIaTGZAyGJBlYLUAVUoI2tI84vog9g2Mk3BWk7gTAeMXqqRrRVwlZE0W5CsbEsa1nkNbN2ANo/Z7J/MBnS8/u794cCfYRBTF4juZrFGdF6DG+OKn7FoguH3RVfd9SZ9Jkr/IK8bkMb48Y2izzUWdDUDNxnHU9F1Gw3lHHPlHPdFFQl8X42AJYDKc75HXs8KZDn2KprT5KtmnLM+eb0/GTnsnSNdciYOSPljoJ2RriPRyGWKl0lmp2elabJ7Trv0kRuPLAng1U1IB+Ay+VlvZmoxmXKWtzxRxhswLmTVDey4ZWESxGgxV/lW9Zut9T2yhsBZmXTAbI0M3J3UUVMX+9O9pEwvJd0LTJIx6ErWzzPa3CNeR7cncVH5xlnQTHd16pQNcSDquLyxORwQslwTZV59vXS2+gNHH5f9rZ3x/Exj1LvIwMVD22XLUXcnk3q/FySrmRqFfrwBsPOo515Sn3l3+Ze7HT02kJh067Lboxidypzehp7+/d4663m7m4Ewm8wEQt1tG/jYIm/E87HbK2a6o/r7hKI+d8PuJLUX44HaL/alKy9mP4oCLDqle/eG7GMwPCuluzu6m5ky9rmLhw5mHwMjqdDxVGzdRkOpY67M474UXbbkNm/3BpFV3/HzW0Tq542BshLAWBd3dQwDW4tNh0fX5XGaNNxoM8D6+u532V13yuOmkXSz3BZ1qTxoHzcZZZdEpi140HabjDPN7JQM5u/kZaLVyR21YdAsuRDAzbe47pZxppmdzID/kxvchQy85TlIyAzji8lK8uoGFw91JxeJ0/WhsM0wYvWGdD3TtBFRpoGgd5cOdLqbhm6Ti/QceEN6xLvgX9H6eYE297Dr6P6FJPR7Vds/lb2ISjXuumfOvnerrP3Ipcb64+wMgb46i+nC5aV9puZXu0w26iCde367NMraog1AdWDHy7bKXi7ZZHvowqJ4EKfTjMHkT+mr0V0ZLo057m7ZK/Pa0jF9+2PlXT1TbaP0NlRTdOZlUo2cjNdrjfTUZ4/VZi4X7a5EoqftZ2cmmWY6Y0UtQ7J9tovc7Wei2fTcZJ9QU6vIxl1ef3SMAxNlivpZS3VR1MdffPWl2bJs81pvf9RTtA/rcfi8976nOyYWk7/Prcnpo3+UFTyeiqxbAf4xN/hgW4ljrszjXi+3HnvNv3pmiipbdrXNtM978xpU93UA45Q3HtmNDXEXSWPObTbgJV2y/cgZmbbg2SSQFnHdKm/+1mvyfF26W6XNFLtZWqLxxoq5/ql4LDOtabGXiTa5SR70njPUY88WHKdsmjSt9D+zTlqaylgGoJqYdkFSN8ir67kM96jesOXGjSNUbwjqmbrek3mFT+Tz6ntm+/WK+Jlmik6SkN2dMtNPIilaPy/U5h5uHb1e1k7tTd67eWbqex5e/RlX0zX6agDu9ph34sQJmTVrlrs3jvTvl2fO3U5jb6So7Wm6c/JjNS6M23IDAJBprP8unDmyXu7XQTvdzVJfOAAA9bkqUdb3GHetrKQkBn1BPj2+eKUNl3TlVPIxzIUAKkHtMgJmI8Z2Ga2nixYAAAAAjClmiJT75lVQwAzVjqAZqpyO+ru0XDNtkJPr6KIFAAAAAGPFxUPPJN0aR+uCVMAQ0D0TQFWj3AAA+PhdACoPx2114Hscvyr5uyfTDAAAAAAAAAgQNAMAAAAAAAACBM0AAAAAAACAAEEzAAAAAAAAIEDQDAAAAAAAAAgQNAMAAAAAAAACBM0AAAAAAACAAEEzAAAAAAAAIEDQDAAAAAAAAAhcc1lxt8e8EydOuFsAAAAAAACoBLNmzXK3KkvFBc2mT5/u7gFAaadPn6bcAADE+F0AKg/HbXXgexy/9HdfqUEzumcCAAAAAAAAAYJmAAAAAAAAQICgGQAAAAAAABAgaAYAAAAAAAAECJoBAAAAAAAAAYJmAAAAAAAAQICgGQAAAAAAABAgaAYAAAAAAAAECJoBAAAAAAAAAYJmAAAAAAAAQICgGQAAAAAAABAgaAYAAAAAAAAEqjpodunwc/Lc4UvuntPfJatXr46nrn73eBb92s2HJZjDmNb/Qv466e2QrPNzcviCe2IE6M9b/UKxjQhUiKBs0FNe+VFxLsnhzel1MtOIH7P90hWXLfp2ibL1qkq2ydX8ftPl8hjY1y4cludWd6lvrwRznIzs7wgw1r37+t1y90/t1FFVVZ53pcOs12PS/al7CKgauj6S/7uW/v0Nn7d1mDHz2zxemTrJ2K9rmH2pwmIFGJoqDZrZAq+l45i7H1GNpd4aad+5U3bqaVOznGqrksq/KVxWS9tedz/WLwfOLbXrq6fWGdLxSBkNozLV3qPmeU+tuzdcfsMbuAoamlPlg3S0jOHgT/lWtLp1MlO7NH/cllFRHCm10qQ+p2mYxYKpiIxCQP7S4R3ScUOr2RYPL5zgHr2y9MmGFr9cVt9JvQy4Z4dGz3P0K/fqN/SVU7JiuUjuA6qIGC/elUO/djeV7l+9625dbVHAq0PdAuCzgbE22ePux/q7VPtwhrS639/25lPSFgc99Em1NjnV3O5+m1tlRpXUAyvOpIXy8M6HZeEkd3+MmrDwYdm5bqGUW5scrbotRl8VBs104KVNVGkorapinzZBFt7j7djqgFy6/FjlV/51wOyRnNRvUo3hBvdYTDVg/aBW7RL1mj3Sx/EKFGfKB5FTA9UWHFDl4DpdPu6Rl8fhGdSBc8dk/pQad+9quCQDH4usmOdHFdV3snCkTj6Mogt9on5pZMlt9SIdB0Yp6AqMLWdzO6Vb/Z17XaPM1Q/8+tDYCFJ9+jHHIJBBByZa3qqX9k3NMt89Frk0cEpkeZ1qHVkT5tTL/J4Bd9pK/e2ZL/VzopZirdRVZT0QwGBVYdBsMFkOtvEyo6Z4fHjAnK1wqbpBdNieychO482PJttuQfEZC9f987Du4qjeax53GWPR/Mo6uzGoaLz9QajJfG20fF5qsll++7hdpnQmWGod3fr0F9heRbeHWW99RuiYdDyi3pc66xN9dnp+NkCaPFc4yyL9ujCNNvUdqvnnZWyE3fZSy4DxJH28e5laefu+O078fSfcbwruV0E5YQSPpd47tOzM2nkr5NhbfeZYKLesuuR/bnAcJTKWPyjX4uMr2AbR4yYTS2cK79UZcf68Ch/zBb+bmF0unY17rKNFvcZuN7vuqhxWzyXb0r42mV92uWe6p3uf5y9D4fJogtTcILKnN38JE0GZlVof/ZxansNu273wduZ62ZcW20/Sn9H1gXu4iEsf5ERuqZMJk+qkPu/ki/veD7vv2uwf4bKarRRs22jdMvYb91jhbQmMtrOS++R9c6v2q/9CvvllfatbDqX2U+XTbnnMdd800/5u9U6nvyN5XE+vRyG3s9K933vcyxg7m3ssfm18W02P5dxc9Tz/ukPsknXLE/5zcQaam/xlUaq3qylgFcv+MUGyvS/Hv4f6d+1YHESrlbrlqh3yZnRg9EvfXj+Iljb4ukDhOgxCrv4Q11vS2y6ug0b1U/Max3+sQD3TKNLmTr5TPbl6iptvqt2e+vxomf1lTdahcN0WlWB8Xwig/4B09KyQumIBtp4OeVkesGm6+oyF2tGjnVwXin6K75DSeNX8B+bZ9zfVqgbCrg6ZEXelapU697KRcunwy7KnoV7qigTY9rT1SZ37/BXmwN4hssouU2vqxyRDke1VlAn8qc+T+dK8Sb3X/NjpBlOL5G6J0qRtt7Jofv0v+CnU7bK0UPJIf5/JPIy26Qq1jAf871CfjTLPqWleX7qLqy4M207ZZfKWgR+6cUB99217V8hS14Uv3FdMSr8faPL2/Xbds1MHf3vr7H5jjoWkklZ8v5ogdbfMTwdVdFklzbJEl1XmvXqXdu/VXa53BRWGckyq8c6ulkGtX0u0PmpqvUHdTwXaCogzYaN1bZV691R/r78eK+SYy17S3b7bm+eLLLfdKO1JEF0JsVnE0XxmdOyw21R9xg6/LG7NKjmjDDuR+abc8E407M25Mk4/ZsudqAunnV9Gt3ZVtvW5srt1+R5pUxWgHVHZ561Lltp7oi6yWZUmu55J2RZ2H9FUOXzOfRf3fCN7vYruJ+G2bJeatzrUXIu5JH1viWs8ZOyjzh71mgf0POMGi7+s6ou80CcDfpneEGU8ZsxTZ7ap3+joGASuuE9z8osv9I1GWVQ7VeqvN7lm6S6aqQBWmgl4HdF5aiEd2HpIOsy8I93yRBDgkl8/IQ99kMz5/Q/UewoVLJoJ3j1hMuNiX3TIQy5QpwNmT/hdTY8ErwWqnW5vbKqXnK6jqd9gM1SC1yNH1z9axf4+r179stRsKpGUMIi6QNntFuQr1JarrVO3c9IXB9dUHe6VPbLi27YOUqieaV5XoM2tg1ttai+wj+s6mPdFqc9N2u3usRSd/BG1o9Xk1R+z67aoFOM3aBY3WpviFN1MDc3yQFRhT3XX0g2IY7Ki1X9/rSxRB0PxDIKAmr9pCHuSNOBaqR3BAyoO8pXoe52sU61JS5blS+MfDJ2dIh8PuIZXhoLbawjyGkyq0fvtFante+xc1OSfoLZVgbWqbfIKJrtOqe/QFayGeq3frbe/d49qiD7g/WDaZYgydFBldGDIVJSigFd0LOTvKxMWLpUVe/viypC/75szmToAfJvb8UxmzjEZiM42ldiv7JnQZN7m9TrDJ7rdvMQtl6K7XItfYRglerw3v2J5mw4EeutfQP+bHSKpda2VhW471d7jlZ+64iOn4m2UR1WY9qTKS13e+mNree9VBWeypGXwyrio3Gkt1a1dVXqicsWUi2rp47Kq1Lro73udraSpGrba37yAnFvPuBxVzL6WqhR6+1YBRfeTvG2plmdVfjeWFBO4TU64hPtoJFWeGsGyqt+FJq9M14GyqBy3x1ShDADgyjt74hc2GHbdIrlJ/Zk665tBF82z0v33Lux03ZPy0h++ZKdljTJVveLnLuA1d8625Lk71Jz6D9lg1ZebZZt5fJs06yy2L34hOX9A/vj5l+TJ6+xDJmBX2ywvfafZLos0ypPq+afrp3rLGy3Lk+pZxSxvMjZb4wK3LPE8gHFCt/92uZM7eprX5/0G65Nmq+Mg2M6dD4jsKpERNsi6QFntFuQr2JbTt72hllwdLkqIKVXPzGtzXzgsL+9N1wEnLFyYzCNVd8qikz/8z2RYpGoxLoNmJuXyFX1BgHK7NGbJ7uY4oWZG8aBSUboh1S71b+kuNmoZy8niKIv9EbADT3sHchlqpqim/9Ua/+fCgBwTe9bGnvFRU9ueePumzgaFqbkpdv2jeSSZZMW6qmoFuu8ONkMHlUMHhkxFyWZZJllAel/RWZjJfmQHmC0QGFH7yAz1r1A36JL7lQk4Rz+yuntAVAmz77Xd8KLlaJGOniQgVzZ9fDXUyJCPbrOOpZToAp9Kjc8YsNdjxiHxg5pq0mnupgIanDkeVLZvKHO72C6VBU8A6O9uSNvSDifgZ5KZ9byhJgg8qXl7QdfSiu8n2Z9RnA7Cpbb/IzozbWjj4vndHtIX7PErvzazrVRwEBg9SddMnfFlujR6XSJtF80z8rHJFpsrzTfrsJonHnOsUVbXTzW3Imc/c4WUzgIzXSXDrDPnt26Q6J3Tri0d3jrzebC8ftaZtzyLosPqKzcMqk4IVLZ0FpJhTpa7+paf1W/YE0pS7onyEnWB8tstyFeoLae2623Jd2SGkfBPGBasZxZocw+3bpzH1h9R+cZd0ExX1l+e0j6oK11kK9KIGWRjJC3KQHAF67ADZ7qQaZGBb6t5+pkTlcD8+HhXM4wm77vTP0D6sfZbctKS+QPkrb97f/oCEeF3aBubVpGG8ogWqBh7aqWpdYXsaYvOPurj3XUdjvZDMw0l8F7efqXPWJqsSp0VFGfb2Pemr4Zpp8GleWdUHAdLVSxOuZuFFVlX021zQJbG66C7ZxdmTki4lPbUFJVrOnDm5qOzt4YcOPODl4FS418OlT8QceETL8UC/KHi+0nmZ5iTFIXYcV3y9n/d1WGQWbfxb7Cbh+mq4InH2tNni73MNuCKi7tmZrNdNKfJDWacs/flFyeSjpXv5rrlbByQ8sdAOyvdOa9rp5dJZqenpfEr7jntHz923TWTAN7ca6eZv0X5WW9majaZcpa3PFHGG4AronS7BflKtOV0bw6TSe8PI6GUrGdmtLmL1AGHxm9XopKNr6CZS7kcmfFR3PgrcaNa65euNtUQdVdFMw0Tr/vKpcM7pKPH3cmk3u8FyXSWl2Wj60NqBOadNbl6Br09TCHYITsyMxnUNnkh+bEx886kM4T8xqZu/Lmbqjqr03v3vOL9aJlx7txtxTTgonGTDPW5uzrsYNjuEVQpd/bRjlumj3cZ2thhGcrar3QauTpeunqTMkUzwbRUuTNYejwrO2ZXFGgr69iMxo8w3PL6Z/MKyF/Xfjmsj+nwbJ4ODrqbmcz2KDBGYn+X97gOcLqbQ+EGuU+NV6fmr8e3Kzr+ZdnSZZdmuiFG20Kvp9rWfrlnvo9BBpCK7iemUhh8n68U2fqmO2fG55tlHUzX4DDz0HZ7TnHdSHfosUaGE9QFhinu6hgGthaYDo+uy2Myzpkeb8xmd90tT3yiH7lJFkVdKo/Yx01G2eciU+tX226TcaaZnZLB/J28TLS58s1Z6aw1HQSLLgRw082uu2WcaWYnMw7aV+rdhQy85ckcbw2oVq7tlqr3e7/v7vc3r64zInX+9G9/4XYL8hVry2m2jp5780D6ZFvRemaBNndGHfDS4cPZdalM6bG/bf1tbLTDMTzjsHtm0N1PT0OM9Ours5huNfG87MDKccZH1Oh2z++QpdJctDGnDmw3OLSezKDjJotCFxbDaLD5XWqiyW8QXiklt4cdoyi5eqY+A2AvruAvu20cT1Bby1svvekzswe9eZrX9ol4ZyfMgNz+fHrr0mcv1DLbQRyj99sLEzw8IoFXjHW199humno8C328m8Hvo31FT0M9jsrar2qlTh0vez4OfmzVe9PljppKlGHpbqV6YNud6czTcsqqhmap6Y3mYYNuZR0HeevaJgM6aGKCI/6xp0cCSdjxrWx5aI/5Wmna1CynUuvirko0qcZ73G7LwWXe+WzKfjRQv5lM0T64ru2FBWWXmkxZH5dfustmutxLP5/NdE8w73HbpNh+Yrqz+ttyh8i3C41pZgNq0Zh6aXofLXFxmBS1bfW4lN7nDtwQfqqt/B4bzm8eMGzeeGTX18ddJI3aRTbgJd2yM3dWptY/nQTSIq5b5U13vCTb5qS7VdpMsZukORpvrJjrnozHMtMaF3iZaF9plNXec4Z67OmC45RNlcZl/mfOlebvlLEMQBUxbTed5RX9LqbGt7a/v+qH0/1GDaKuU1K57RbkK96W03TGvuzdkz7ZVrSeWajNnV8HbHlLv7pc86V5ih4nz703GEs8v26LSnHNZcXdHvNOnDgh06dPd/fGkf4ueW5gCYGaK0I1EF0K8NAb3RhLTp8+PT7LjZGkB87V40BSwcMVYC5aE1zRDBhJY/13QV9101w1U3ez1BcOAEB9rkqU9T3GXStH6oTllaB7cpRxxdVxTH/3s2bNcvcqy/i9emYlqW0iYHaF2G5pZDgAwFWhKso7dM9fLgAAAMC4xNWzMdYQNMO4pjMaohTaOI22os5qAEA10Fm+qhx+pENmtHKWFgCA8SZql5n2GNnmGEPongmgqpHODwDw8bsAVB6O2+rA9zh+0T0TAAAAAAAAqCIEzQAAAAAAAIAAQTMAAAAAAAAgQNAMAAAAAAAACBA0AwAAAAAAAAIEzQAAAAAAAIAAQTMAAAAAAAAgQNAMAAAAAAAACBA0AwAAAAAAAALXXFbc7THvxIkT7hYAAAAAAAAqwaxZs9ytylJxQbNK3dAArg7KDQCAj98FoPJw3FYHvsfxq5K/e7pnAgAAAAAAAAGCZgAAAAAAAECAoBkAAAAAAAAQIGgGAAAAAAAABAiaAQAAAAAAAAGCZgAAAAAAAECAoBkAAAAAAAAQIGgGAAAAAAAABAiaAQAAAAAAAAGCZgAAAAAAAECAoBkAAAAAAAAQIGgGAAAAAAAABKo6aHbx0DPyzKGL7p7Tv19WrVoVT/v73eNZ9GufPSjBHMa04/uKrdNFOfisWu99x9394dOfN5LzA66aoGzQU175UXHcMR+s18gfs8dl/6pn5OCF6HaJsvWqSrbJ1fx+9e+T/51c9X3twkF5ZtV+9e2VYI6T6LsGxod3/uZOuXObndo/cA9WhXek3azXeuk67x4Cqoauj4S/a7aOEv/+hu28wbQTMXpMnWTs1zVMXa7CYgUYmioNmtkCcc3mnLsfUY2l92pk665dsktPm9fKydYqqfybwmWVbNjt7mfpf0O2HHW3R8jse9V2vHe2uzdcfsMbuApuXZsqH2TzmqqoMK1sc+tkpq2y9qMNqjJYRoBkSGbLMvU5y2rd3SEyFZFRCMhfPLRdtty40WyLRxdNdI9eWfpkw5qzjanvpEEG3LNDo+c5+oE39Rv60klZeZ9Iz/tUETFevCNvfuJuKl2n3nG3rrYo4NWubgHw2RNTG6TT3Y/194rEdSJVH5Itsj3+7azidmKlmbRYHt31qCye5O6PURMXPSq71i+WcmuTo1W3xeirwqCZDrxsMAXiRlWxT5soi+/1dmx1QDbel6v8yr8OmK3rkYbNqvC/1T2WJ2rs1Lv7AIoy5YPIyXPVFhxQ5eB6XT52SnfFZ9IN3sDZnNRPrXH3roaLcu4jkZVf9082qO9k0UidfBhFF3pF/dLI7UsaRDa/MUpBV2BsOXNku3Spv3XXN0mdfuCTN8dGkOr8R0ISDJBPBybW5Bpk6+a1ktfqqV3mndSbKPPq6yV3NjppVaXtRADDVoVBs8FkOdjGy8wpxePDA+ZshUvVDaLD9kxGksbrn+nPjybbbkFx5orr/nlQd3FU7zWPu4yxaH5lZbmUEY232RWNcvtU90CmaPm81GWz/PZxu0zpMy6pdXTrc7zA9iq6Pcx66zNCOdmyTr0vTnX1Pzs9vyijMHqucJZF+nVhGm3qO1Tzz8vYCLvtpZYB40n6ePcytfL2fXec+PtOuN8U3K+CcsIIHku9d2hnQWd/faXkcr3mWCi3rLrof25wHCUylj8o1+LjK9gG0eMmE0tnCu/WGXH+vAof8wW/m5hdLp2Nm9u8Rr3Gbje77qocVs8l29K+Nplfdrlnuqd7n+cvQ+HyaKJMuVGk8738JUwEZVZqffRzankOuW237/+buV5G0f0k/Rn733cPF3Hx/R6R+nkycdI8abi1U3qz9tFD7rs2+0e4rGYrBds2WreM/cY9VnhbAqPtjPR81Gdu1c64T+74sr7VJW+GXTTPd8l6133TTJ1d6p3OB+3J43r6myjkdka6Or3HvYyxM0fWx6+Nb6tp/RE3Vz3PrnaxS9Ylj/vPxRlobvKXRanerqaAVX72z3F5Y7PI2iWFTloVbycOvi5QuA6DkKs/xPWW9LaL66BR/dS8xvEfK1DPNIq0uZPvVE+unuLmm2q3pz4/WmZ/WZN1KFy3RUW4XEE+/PBDd6s8v/z59y7/2cHP3L0Mx/dd/t739l3+pbubxzzvzePTv7v8Z+r+vuP27mcH/yx4/y8v7wuf/7k/988u/92m5Plo/vH98Hk1v1/Gt8sRvt8xy22XM3+ZfPb9yTrZ9fne9/7s8t99ah4w29R/f2p+5WyvYtvDfF7yWdHzyXeYfn36+/1MbasC37VarvRnBMu06e/Uu51wHcz9YsuEsa7sckN/13n7QnJ8h/tKsX3fPKfux8+bY8Hbj0rsV3nHir9swXKlnssTHmOeouVC8D63fv5r0mWBf+wG7w3XXb3279x6/vLnwXqE2zu1TOljN/WZ3roYx1XZ6W6Gwt8F+13lfxd52z9cNm9ZzLbwvv+87yiP+4zU+kTseuYtY/wd2+fT2yZ/vfKWQd8P5pF8drQ8pZY52U6F9pn0vpixrOq72hcvp31Pwf0+/F6BEVL278LAC5cf/st/fvmf/+Vzl99Wd399+GF1W91/Rd9z3n/OPuZPf/XC5V+rp+LX+5N579uXnwsf11Ox97npufezP/Phw+qd8fIGk1vet1/JeM5MD19+YcC8BBizBtsOLPQbEv1mF//NU0r8lg+2LpD+nS7Sbqly5X2PXh1PU9syXf+LtnvwOlevSL4T7/tLfR/p1+n5RG1u8z16dZHPDv6dfY95v/8eRT8W1s/8fSbYB/LrTuPLoI/hMWT8Xj1TR4ZbT8razcukaKeYW9fKg9G4N6nuWhelN5eTlW3++2fL7evqS2QQBNT8b691t52kO9hsmR08N3gX5eDzW2RmajmLS9ZptszTXVzva4yz2HR2inx0Lh3R9xXcXkOguwIdXSmN8bhDE2Xx3StT29dPqZ5dW+CcUioV265T6ju82zsbpV7rd+s9/l6n1K970Mvis8sQZeigyhzdImuis0PvzZNdu6JjIX9fmbioUVbu7rVnnzRv3584t0Hq1b/47KXJzMnJQHS2qcR+Zd7vzdu8Xmf4RLfX3Z4cz7W3y1rpkd5UFtEo0OO9eeMXzl6yNrWMhRw/sEUkta6zZbHbTrPv9cql2nmyUk7KuULr0d8rnanyUpe3/tha3ntrVdnpbpbFK+OicmejP1aj3sZhZtV9G+NyxZSLaunjsqrUuujve70eM2WjSKve37xMMreecTmqmH3tqP8de/tWAUX3k7xtqZbn/oxuLD49JqY0yDy3ncJ9NJIqT41gWdXvwjKvTPe7xthjqjs+K6sz23L3zRvcdwmMoDP9r9tsrutvk5vVn2m1dwRdNM9I17u686Zy/VPy2kOv2Wllk0xTr9jdZ3PB6uqeT577lprTB2+aLp/y5RZ53jz+vLToLLYvXpcef0D++PnX5Knr7UNmTLU5LfJaU4tdFmmSp9Tzzy6Y5i1vtCxPqWcVs7zJ2GxNi92yxPMAxg8zHrMZt2ye9Kr6XmbGV7ntxEHWBcpqtyBfwbacvu11oXV1uHnRd1KinpnX5r5wULp3p+uAExctTuaRqjtlUXUef5/Jqj+iIo3LoJlJuXxJD/Q4nAEGB2TgaL3UBO+fOGVm8aBSUbohtVUacrqLjVrGVHepoTm+b40Z9Lq87qr5aqaqpv/VGv/nwoDkpFM2REEMPbV2xttX/+htFJvimpeam5LuDpRcLCH7O0wUSMueVCP1R9V73V1UER0YMhWpjarxvsFLndb7ikinCXBEk+5OXCAwMmmKzFT/pmTuW2XsVybgHP3IHpde9QNuK2H2vbYbXrQc6hg/mgTkyqaPr1trZMhHt1nHUkp0gU+lxmcM2Ou5eO5kOqipJp3mbiqguov65gbp0V271ePDSnnP3C62S2XBEwD6uxvStrTDCWxdd1I2uDLMrOeNU4LAk5q3F3Qtrfh+kv0ZxekgXGr7r9tiyuehjIvnd3tIX7DHr/zqQHWxbjPAaEu6Zsonj9sujV6XSNtF84z86gv9t05abtFhNU885liTPLhgmrkVOfOZK6S+aJf7TVfJ+6XdzCcw4UaJ3jltQunw1plLwfJue9wG5zRveW6bY26ITL5Rhlg9BKqA+g02F31Kj9E55HZiibpA+e0W5CvUllPbdYn6DqPhRvQwEv4Jw4L1zAJt7uHWjfPY+iMq37gLmumCsHvq1kFd6SJbkUbMIBsjaVEGgitYhxU4041t9cf1ndZT0pfaHyNnjDI/Pt7VDKPJ++6is0Vb63tkTeYPkC5k18jA3cn70xeICL9D29i0ijSUR7RAxdijKlJtK6WzNTpO9PGuzx4l+5GdhhJ4L2+/0mcsTValzgqKs23se9NXw7TT4ALj6rh4qTMjK2gQLpyTk+5mYUXWVVdk1g1IY7wOG0Wfoy3EnJC4z171MjVFZwN14MzNR2dvDTlwViQoXmr8y6EyWVvuMwufeCkW4A8V308yP8OcpChE/5Zk7P/qGBls1m38G+zmsXVdOr8tHmvPXXQgymwDrrjzPfJ6ViDLsVfRnCZfNeOc9cnr/cnIYe8c6ZIzcUDKHwPtjHQdiUYuU7xMMjs9K02T3XPapY/ceGRJAK9uQjoAl8nPejNTi8mUs7zliTLeABgj107MVrrdgnwl2nK6N4fJpLcn2xrmum+uZD0zo81dpA44NH67EpVsfAXNXMpl0t1vOGy3kqRRrR2X/a2qIequimYaJl73FTMY/1F3J5N6vxck01lelo2uD74RaLMYogJGT6aBYhqeJdKNR8Ggt4cpBP1LQfvUNtmX/NiYeWfSGUJ+Y9MFEg2b3tv5kvejpbsgectkGnCbt3sDUarPfX6LHQzbPYIqZbrqdsoGc0zq411ky/MjU8Epa7/SaeTqeNn/XlKmaCaYlip3BksPUJrOQC3r2Dy6Rd6IyyC3vP7ZvALy1/W4HNTHdHg2TwcH3c1MZnv42X+e/v3e4zrA6W4OhRvk3n7vjpr/BvXbEaX7D0+67NJMN8RoW+j1VNvaL/fM9zHIAFLR/cRUCoPv86UiW99058z4fLOsg+kaHGYe2m7PKa4b6XY9rMBwgrrAMMVdHcPA1mLT4dF1eZwmDTfaDLC+vvtddted8rhpJN0st0VdKg/ax01G2SWRaQsetN0m40wzOyWD+Tt5mWh1ckdtGDRLLgRw8y2uu2WcaWYnM+D/5AZ3IQNveQ4SMsP4cnyf/7to6zLxMAAj2k4MpX/7C7dbkK9YW06zdfSeA2+kT7YVrWcWaHNn1AEvHjqYXZfKlJMtB/z36vpbqS6dqATjsHtm0N1PT0OM9Ours5huNfG8Noi0eRkfUaPbPb9dGmVt0cacOrA/8rLC9OWSTRaFLixGqsF2FZXcHnaMouTqmfoMwEaZmepiFAUPJ8oUVQzFXYVaRTZmnhXy5mle2yvinZ2Yfe9WVZSlx7FKnb1Qy7yrbab3/jXSU79VHh2VH1SMNbPvtd009XgX+njfeGO6e+CQM0HL2q90ULdTOj8KfmzVe9PljppKlGHpbqXdUqMzhlJjdpVRVt26Vmrei+Zhg25lHQd567pBBnTQxARH/GNPjwSSsONb2fLQHvO2G8XJ1Lq4qxJNqvEet9tyqF3SddmiU/bXemWxKV9G7ERDUHapyZT1cfmlT3aky73089lM9wT/6pnF9hPTndXflttF7i40ppkNqEVj6qXZ7pR+BbE4tW31uJTe5w7cGH6qrfzmquE3DxXMG4/sxoa4i6Qx5zYb8JIu2X7kjExb8GwSSIu4bpU3f+s1eb4u3a3SZordLC3ReGPFXP9UPJaZ1rTYy0Sb3CQPes8Z6rFnC45TNk2aVvqfWSctTWUsA1BFaqb6v4u2LpOqD41gOzGt3HYL8hVvy2k6Y192d6ZPthWtZxZqc+fXAdfk9KvLVS9rp/Ym7908M/U959dtUSmu0VcDcLfHvBMnTsisWbPcvXGkf788c+52AjVXhGoguhTgoTe6MZaM23JjJOkBcfX4HlTwcAXoy/WvOdsYNGSAkTPWfxfOHFkv9+ugne5mqS8cAID6XJUo63uMu1Ze+Z5RQ6d7cugT08MZM726VfIxPH6vnllJapcRMLtCbLc0MhwA4KpQFeXtm7kAAAAA4xVXz8ZYQ9AM45rOaIhSaOM02oo6qwEA1UBn+apyeN0WmdnGWVoAAMabqF1m2mNkm2MMoXsmgKpGuQEA8PG7AFQejtvqwPc4flXyd0+mGQAAAAAAABAgaAYAAAAAAAAECJoBAAAAAAAAAYJmAAAAAAAAQICgGQAAAAAAABAgaAYAAAAAAAAECJoBAAAAAAAAAYJmAAAAAAAAQICgGQAAAAAAABC45rLibo95J06ccLcAAAAAAABQCWbNmuVuVZaKC5pNnz7d3QOA0k6fPk25AQCI8bsAVB6O2+rA9zh+6e++UoNmdM8EAAAAAAAAAgTNAAAAAAAAgABBMwAAAAAAACBA0AwAAAAAAAAIEDQDAAAAAAAAAgTNAAAAAAAAgABBMwAAAAAAACBA0AwAAAAAAAAIEDQDAAAAAAAAAgTNAAAAAAAAgABBMwAAAAAAACBA0AwAAAAAAAAIVHXQ7NLh5+S5w5fcPae/S1avXh1PXf3u8Sz6tZsPSzCHsc2s33Ny+IK7r+jtkKxz+rnh6n9BzfOFYhsRqDBBGbF6dZdcnT28X7rU5xcto4bAHLOp9VPTiJdzl+Tw5mTZTRlUaWUpADjvvn633P1TO3VUVZXnXekw6/WYdH/qHgKqhq5HhXU4W7cqWP8ZTDsRo+fCYXluhNuso4H67fhRpUEzWyC2dBxz9yOqIddbI+07d8pOPW1qllNtY/+ALJ9av1f2uNuRfjlwbqldXz21zpCOR0YuCFB7j5rnPbXu3nDp762avg9UGhNQahNpjY4Xc8yI9I3QAWN+XMsOMtdKk/r8ppE6vDzzm9uT9VNT6w0d0jKKx96EhQ/LznULZYK7PySmAnW1ApgAxq935dCv3U2l+1fvultXWxTw6lC3APhswkCbhK0i6e/TlTxX/2mXZumQHXGCRbW3EyvIpIXy8M6HZeEkd3+MGmz9dnDtAIwlVRg004EX0+qV1uXuodgEWXiPt2OrA3Lp/7+9v4+R4soTfO+f1Xf3md71NgzuAtwGBkqJ4Vatx9Y1WTZwLdzqne42LpXx8PJc8YyxbKn/KKDatlqWdjyaQtRofVdqtfzCS/3RkpHxXLS3gDEuFba7e6026wXsSryyh6m6tikVDOBuoLpp8Ppuz929LT/nLSJOnIx8qReozKzvxwqTGZkRFRkZcfKcX/zOifWnpPBpg8SHR45J78INssE9tVTD2w9q5dZIZ9uhKQsCAI1C/5D1XOhUlaUOddZ4ch03JHBVS3Twe1enSO97FAwA4Ltc2C8D6t/lt7fLcj3j1ydqI0j12wtcRAAy6Ppc14d52fVip6xw82KpOt0sabl3hZy6MhY/b+h2IoAJa8Cg2XiyM67L2AWRxU3l48Nj5mqFS9UNosP2SkaSxut3By2OJqe7LEXdP0+67lJmvsmmSNZXfVrwiPT3nJPOB1rc81LGZGxwhTRlRu6j7fNSl8322/l2m9JXXFKf0X2ekRL7q+z+MJ9bXxE6Jb1Pq+XiVFf/b6fXZwOkyWtFXXFj6feFabSp71CtX2cbpdYVdtdLbQMaw3UZ/vCUbPh+patFwfFY4nzwu0BGx5KeZ7JfD/eY+dG5nTr+vPnR30q9r8S6jQmXHdasZXlZcXjYNsIysrrS568+p/Rn98+tMldjXdmQbG2wH+PXSpyrevmne1XpcEh69Px4O8qVDwAwWZel8Pkn5lHuT/5cvn2rfjQgJ8Ki5rcD8iPXfdNMRwbUks5IbzJfT+9EIbfLMnDEm+9ljF0u/Ch+b/xYTT8quLXqdb7VK3bLBuQ5/7U4A81N/rYojdvVFLCqz/4ZkWO9otpOpRqN5duJxfUyW2/y63Xptkm17RbYfeXXK8vUD4N2XWpe0Iartt7s17XjYVrcelPt9tTfj7bZ39bkM5RqB6A+zOwbAejMrMEN0lIuwDbYK2/K43Ga7gp1oPuN2K7exV5Xrm5Z3Ns1vpNArX+s1S7fkVMNwAO9sjhOG+6WSiGwyMgbPXKu8/GKaazXT74ph9ry0lLmfYd6hqXF/f0N5sR+VWSz3abu9afKZ6OU2V9lmTRc9fdkhXS+qJY1P3a6QdwlhXujrmS7pPNCsj77mZPX1jbZ+UVSqdjqb6htPOZ/h/pqlHlNTa3D0nPYvmbowlAHI/U2edvAD12jKRdMjtjjsXdhtzsW1JTV3Vkd88PunN7fvUFO9b5qfjBtNtcKkfV2eRvYvy7DV5LjT79+6O3gx99XYt1m2yZYdsTmNMliOSdjpQJfRXSAOyor9PZU2/U7PK9VuXKve6nUuZrrsOWJKiFMeWuyZ8uXDwAwab8tyC+/1A/aZVVunuTvMLlm6S6aqQBWmgl4va/z1EI6sPWk9Jp1RwbkuSDAJb9+Tp78NFnzJ5+qZcqVcSZ495zJjIt92StPukCdDpg953c1fT94LzADJAERXYcp0wWwmnaiVy/rXm8v7L0atYNMPe1YXC+qut2CYiXrhy3qcUGG47qrqhu+fSi+CD4ypBdzy6W+j9L1Zn189EhS19/V6X1RqXa7m5dSum6c3Q5AvZi5QbM4GBJ0xQq1dcrjK90VBpOmK3JuTDdpXWZKt798TtboRu9QuRpNQK1/TbABdv1aTnLVnFDqs+huZfF2lhAH+SpcfUk+U05adBfX9WvjH5Rc6waRC2Pq05dQcn9NwNVhKagfq7Xx55olK7+/IbV//ZTqXK7Ep0qlYtvPlPoO/ewi9V6/W+/I0CFZkQpG2m049eFw6X2AxuSOx+5K3Z3Vj2F8vJnXT5UJRKW7Aphsr8ExiY7qIhXWPe6yY1J0gNsr/6rt+q0roZIur3Ir3T4oea5mqKJ8AIDJuDz6SxsMu32V3K3+mdf87aCL5mUZ+AcXdrr9eTn6F0fttK5d5ql3/J0LeC1f9kry2nfUmkZO2GDVrZ3yipn/inTqLLYvfykFf0D++PWj8vztdpYJ2OU65ehDnXZbpF2eV6//JD/P295oW55Xrypme5Ox2drvd9sSrwOYOcx4zCao0SLDW0pkfFXbTvTqZaaNJF69RAd0gouRVbVbUKxk/VA/9rrQurphFOjMPeLXU4u/j6J689WT8ubhdF1/lqqjxs8y2u1pE6wbo+bNyKCZucLwth7ocTIDDGZnpsxqWlw+qFSWavRt3yX5D7vsFZBquhrp1FJdqG8uFwjTGRlbpMvcEKBC4R9omrtCVsydpkshV8eS7ljR1HMo3r/6R69bbIprUWpuiv380TqSTLJK2UUl0rLnNJUPbKAONUlT2eCWoo/HNvU+99SaJU0LywR2qqErZtHxbbogTsQEyo6Q+nznZHGFbLty7L6o5PrYOZGFTSXKq1LnaoYK5QMATE7SNVNnfJkujV6XSNtF85JcMNliy6XzHh1W88RjjrXLlvw88yhy+XeujNZZYKarZJh15vyrhRItOf8blcNbl74IttfPOvO2Z1VUEbxt4bjqhEBjyUnHi3pA1yQbTJtwO1G3D4rqiYnq2y0oVrp+mHtAfYcumeH6pwWRzjVJuZbqgunfGKJEvTmzrj8Z1dWNUftmXNBMF4Rvzt01+Tu5lWtkl2wQVkOfxPYKiClYKzR+deFwyqSC+gWCfW6vnOhCpkvGvq/WOWV3ubxJzI+PHpg9uiLkJu+7i64W7bq3IF2ZP0De53fLp28QEX6HNlBmlQmITGmBiulnB4Mtm6VUJlhaaVzEknTAzFTM3PGZNWht1cZXdoRG3tMDe3gVjXHzz53SSl9YqHSuBqooHwBgwuKumdlsF835stCMc/aJ/HI06Vj5cWFALscBKX8MtMsyUPC6dnqZZHb6ibTf5l7T/usF110zCeAt/8Z8829ZftabmTpNppzlbU+U8QbAmLp2YrbK7RYUq1A/nNMiedFdNHUPIpH8MvfN6YDZ02OyNqof6m6d9hUno9485YkR1dWNUftmVtDMpVwm3XkmwzWye/wxfEakv+eQbGi11STTOIwG1laun3xVegfdk0xqea+hq7O8LBtdzxqrxwx2GRcGUYFgxwX7of6critU+VTSm2Pc+8MUgv6toH1qn7yR/NiYdWcKs8lGZDi+OpEz6b2pMaTM+AXusaJTrZNxozT1dw/0itzbQsO8wcxaudaO4RdWYkb67bmnj8e2Q9LjB6N012hVppQd76KMMOvKBsEnolTZUQ1bvqS6eKtKw2Lx0slV2fmqHrw0JT2+oTmfqylrzPgT6fN65KTe5+XO1QxlywcAmJy4q2MY2LrfdHh0XR6Tcc70eGPRAPvPfa7n3C2roi6V79v5JqPsC5F5+S2222ScaWanZDB/pygTbbl8uzmdtaaDYNGNAO6+x3W3jDPN7GTGQbst725k4G1P5nhrQOMaecNvt9k6/an1LTbAPaXtxFC17RYUq1Q/1G1ykcJ7x6SgaobxuN1h1tjIsJdpVqLenFHXv67qqMmzSiZYN0bNm4HdM4PuPHqaYKRfB6x2dZ7z1tdjBilMxhzS42Mlf+9VWSudbe61TOrEvuDSdtVkBqg32WG6sJh4w1wPWtjl1hlPfsP/Zqm4P/SYcGKz5sx3oq8A2Jsr+Ntug4ez1N7yPpfe9ZlXhbx1mvcOi3hXJ3KP7FJFmbeeoZb01Qu1zXYQx2h5O/C4CUiiwdg773YvDM6Xt5vcj51N5daDzcevmVO++i7PcWBOLauPY/+5nl69sniCmWalyo5sp1LnlLt6lzp/1L7o3iCHetx7Dois1YOXpqyQzrnD8XqqGS/R0vs5fV73XNGBw/Lnqh0j0ZUfpvwqVz4AwGR445HdkY+7SBq5VTbgJQOyv3BZ5uV/kgTSIq5b5d3fOSqvLEt3q7SZYndLZzTeWDm3Px+PZaa13+9lot3WLlu81ww17yclxymbJ+3r/L+5XDofqmIbgAbSNNdvt7mbO6XqS1PXTkyrtt2CYhXqh4oeE1gOH5LFqXGq1wRtPD3iXKRUvbm4rt/1oX53tcrXjcN2AOrHLV8p7nHNGx0dlQULFrhnM8hIv7w8toZAzU2hs25sECEZcBL17OLFizOz3Lih9O2035SmFyczLiQATI9a/13Qd900d83U3Sz1jQMAUJ9rEFV9j3HXyvGNxT29qBtXor/75uZm96y+zNy7Z9aTXAcBs5vEdhmdRFYfAAAAAGBCzHAlUbdZoAYQNMOMdv3ky3EKbZxGW1dXNQAAAACgvkXtMtMeq7cb2KGh0T0TQEMjnR8A4ON3Aag/nLeNge9x5qJ7JgAAAAAAANBACJoBAAAAAAAAAYJmAAAAAAAAQICgGQAAAAAAABAgaAYAAAAAAAAECJoBAAAAAAAAAYJmAAAAAAAAQICgGQAAAAAAABAgaAYAAAAAAAAEbvlKcY9r3ujoqHsEAAAAAACAetDc3Owe1Ze6C5rV644GMD0oNwAAPn4XgPrDedsY+B5nrnr+7umeCQAAAAAAAAQImgEAAAAAAAABgmYAAAAAAABAgKAZAAAAAAAAECBoBgAAAAAAAAQImgEAAAAAAAABgmYAAAAAAABAgKAZAAAAAAAAECBoBgAAAAAAAAQImgEAAAAAAAABgmYAAAAAAABAgKAZAAAAAAAAEGjooNm1Ey/ICyeuuWfOyBHZvHlzPB0ZcfOz6Pe+dFyCNdQ28/lekONX3XPlzOvJ5w1fmyyz7tfPuGdAAwjKiM2bj8j0HOFn5Ij6+2XLqAlIlwdumvJy7pocfynZdl0W111ZCgDORz/7M/mzV+y061M3syF8JLvM53pK+n/jZgENwdahonpOUpdKzy+um6RfL2pH4ua4elxemOI2641A/XbmaNCgmS3wtu4uuOcR1ZA73SR7DxyQA3ravU3Odtf+CVk99fmO9rnHkTMyJDvt51XT3u0ie16bupN76aNqvY8udc8mS39vjfR9oN6YgFK3yM6ojNBTj8jQFAWuzI9r1UHmpbJO/f11Ofd0CuW3700+n5p2LtojW2/guTd71TNy4KnVMts9nxBTgZquACaAmesjee9z91DpP/eRezTdooDXLvUIQMzUF3aI9CT1nLguNTLkzd8r22SP7IsDY/qC3w45G9eRdsqS3Vun/OIlqjBntTxz4BlZPcc9r1Hjrd+Orx2AWtKAQTMdeLEF5c6NblZstqx+1Duw1QnZvrEgg580SHx45F3Zs2iTbHJPLdXw9oJas5e3Sf6DMRlzzwFY+odsx/ltsvfAOnXWeHLrbkjgqpbo4LcJqB/jhxwAfJfe3yf96t+WOzqkRc/4/L3aCFL95rzQlgeKnTm2R2T73uy6W6pON1ta83kpXI5aRap99EFe2pZHLcWl0qrakmevkEcEzHQNGDQbT3bGNblyXmTJ3PLx4TEdFY5SdYPosIkYR6+pyU/jLY4mp7ssRd0/j7vuUma+uTqSrK/6qxtn5Ej3Wdm2ptU9z2Z/SB5MBwVi0fZ5qclm++18u03pbJTUZ3Sf50yJ/VV2f7irQn1SkD3b1XJxqqv/t9PrswHS5LXSKdTp94VptKnvUK1fZxul1hV210ttAxrDNRkqFGTTw5WuFgXHY4nzwe8CGR1Lep7Jfj24w8yPzu3U8efNj/5W6n0l1m1MuOywTED94JDN5MrI6kqfv/qc0p/dP7fKZKq5siHZ2mA/xq+VOFf18tv3qNKhT3bo+fF2lCsfAGCyLsng+WHzKLd4o3znVv2oX94Lu2j+pl+ect03zdTXr5Z0Pt2VzNfTz6KQ2yXp7/Pmexljl95/Kn5v/FhNT73v1qrX2b9L7Jb1y7P+a3EGmpv8bVEat6spoJ2RoYObpH1VNbk/Z+Td3aLaTlGrSAfJVDskvoCo1+UH0dKK62W23uTX69Jtk2rbLbD7yq9XlqkfBu261LygDVdtvdmva8fDtLj1ptrtqb8fbbO/rclnKNUOQH2Y2TcC0JlZH2yS1nIBtg/2yIA8YdN0d29TjcodqUbs1t1LvK5cE0jjVesfu8suvy6nGoCv7ZElcdrwTikfAkuceV2nEz+RncbqFRhD6m89U+GHpK97SFrd399kTux9Io/ZbdqZ+jHJUGZ/lWXScNXfk7xs262WNamuukG8VQbzUZr0Xtl2Plmf/czJa+1z7fwiqVRs9TfUNr7rf4eFtqTL7l1DsuOgfc3Q+04HI/U2edvAD12jsVcXm8qmgdvjcc+ipLvzgZ4lsmd70GVQHfP6PLOvb5LC7n3mB9Nmc+VFNtrlbWD/mgxdTo4//Xrf0eDH31di3WbbJlh2xObMlSVyVq6UCnwV0QHuqKzQ25OxLzKF57UqV9RuMUqdq7l1tjxRJYQpb032bPnyAQAm7TeD8s6X+kGHPLBsvrQtMrlm6S6aqQBWmgl4Hdd5aiEd2HpMdpl1R/rl2SDAJZ8/K48NJ2seHlbLlAt0meDdsyYzLvblLnnMBep0wOxZv6vp8eC9QL27ekXO3tck4gWuwqBKEhDRdZh0F0BdV9spNqixefOANO2u0EXQq5ft3Ggv7O2L2kGmnvZuXC+qut2CYiXrh63q8aAMxXVXVTc82hdfBD9z2htyJfV9lK436+NjR2poI3U8RVLtdjcvpXTdOLsdgHoxc4NmcTAk6IoVum+bPBEFmUx3zihN12Wm9PjLL5UHdaP3dOVmY0yt/8HgpEnSgJfK0mpOKPVZdLeyeDtDusHpTt7W08U/HqHkM9m0ZNnYHv9gLL1rk8j5K6WXL7m/JuDqkAx+4F8tmi2rH96U2r9JSvVsta9Kf/6kYPJTrTOyi9R7/W69Z073ST4VjLTbUCgMld2HaEDueNzpj+GXe1C23deXHvNM/RjGx5t5vSBjJQNR6S7jFbtPV1j3uMuOSdEBbq/8y9oXWfTFCkmXV0tXuX1Q8lzNUEX5AACTcWnkHRsMu+MBuUf9Mz/3naCL5iXp/9iFne74sfziyV/YaVOHzFfvOOgCXi0tryWvfU+t6dP3bLDq1i55zcx/Tbp0FtuX78igPyB//Pov5Md32FkmYLesS37R0WW3RTrkx+r1l+6f721vtC0/Vq8qZnuTsdk6VrttidcBNBD/Ar6azLitXia6GY/ZvNYqQ5v97CN9Mc4mGNjXnxB5rUJGmFcvM20k8eolOqATXIysqt2CYiXrhzY7MB5qydUNo4SYpY/69dTi76Oo3nz1uAwcTNf1Z6s6avwso92eNsG6MWrejAyamSsMR/UNASYzwGB2ZsrsuUvKB5XKUo2+p/ZKW2GrvcJRTVcjnVqqg3+PeYGfMpY+age9jDKtKmmal5f8PC/CfjNdHUu6Y0VTd1+8f1NXg8oGAu2PYLSOJJOsUnZRie67c5oYF67hNElT2eCWoo/H+9T73FNrtsxdVCawUw0vE9R2QZyICZQdIX11VpbI3AmXiXZfVHLtylmRRXNLlFelztUMFcoHAJicpGumzvgyXRq9LpG2i+Yl+UeTLdYiXffqsJonHnOsQ564f755FLn0O1cJ01lgpqtkmHXmzFok0ZLzZ1UOb126Hmyvn3Xmbc8Dy8wDkW8ukrLtP6AupbtnLl2je7644SdSlsq63dtEouwjd1EvCYqoutVj6vVqL5Tr9kFRPTFRfbsFxUrXD/X3G31H1z4ZTA9DlOqCqYcBipSoN2fW9Sejuroxat+MC5rpgNnAvL2Tv5NbuUZ2yQZhNfRJ7K6M6IK1QuNXFw4FkwrqFwj2ed13ITQ/Pnpg9uiKj5u87y66WrQ3PyhbM3+AdCG7VcYeTpZP3yAi/A5toMwqExCZ0gIV088OBls2S6lMsLTSuIgl6YCZCeC749N0QZyo8ZUdofLjHVbDP3dKK31hodK5GqiifACACYu7ZmazXTTny5+Ycc6G5Z2RpGPlR+/3y6U4IOWPgXZJ+t/3unZ6mWR2ekk6vule066fd901kwBey6x0AC6Tn/Vmpi6TKWd52xNlvAGNwgw1Ubsqt1tQrEL9cE6rtInuoql7EEkyBp0OmG0fk/aofqi7ddpXnIx685QnRlRXN0btm1lBM5dyWd3gkJW4Rna3P4bPGTnS3Seb7rLNTtM49K5sXDuxT/Z84J5kUst7DV2d5WXZ6PqRjOwwc6vbuDCICgQ7LpgZu0w1yv3l7DZUGMftBhn3/jCFoH8raJ/aJ68nPzZm3ZnCbDI9qKd7KDa9NzWGlBnnzj1WdKp1Mm6Upv7ua3tE8q00zBvM7FXtdgy/sBITnUP6eLyvT3b4wSjdNVqVKRM9n8KsKxsEn4hSZUc1bPmS6uJtKp1eOrkqO/fpwUtT0uMbmvM5dYW2BDP+RPq8PnNC7/Ny52qGsuUDAExO3NUxDGytNh0eXZfHZJwzPd5YNMD+s6aRdI88EHWpPG7nm4yy6yLz73/CdpuMM83slAzm7xRlorXId3Jh0Cy5EcA997rulnGmmZ3MOGjfbHM3MvC2J3O8NaCe6bp9uq6mLwoWNraai4JnXvfbbbZOH70W1U+S3jhTWeevtt2CYpXqh7pNLjJ47F0ZVDXD1uh9YdbYyJCXaVai3pxR17+m6qjJs0omWDdGzZuB3TOD7jx6mmCkXwes9m4/661vhxmkMBlzSI+Plfy9fdIu2+5zr2VSJ/Z5l7arJjNAvelTrQuLCTbM5zTJ2e5o+/RdO/SNC/xx2G6iivtDjwknNmvOfCf6CoC9uUK0/XqyQcDZMlcVQ1uj+d0iOzMzTLx1mvcOiXhXJ6LuqvF6Tremr16obbaDOEbL24HHK91MAfXI3nnXjH0RHQ96OtrkfuxsKrcebD5+TR934zif4sCcWlYfx/5zPe27vGSCmWalyo5shdQ55a7epc4ftS96NklfVHa8JtKuBy9Nycu2eUPxekzZUlWWl97P6fN6x2UdOCx/rtoxEl35YSoz5coHAJgMbzyyRW1xF0lj2QM24CX9su/9SzL//peSQFrEdau853u/kNda0t0qbabYPdIVjTdWzh0/jscy0zpWe5lo3+yQJ7zXDDXvpZLjlM2Xjk3+32yRro4qtgGoM6lukGoyg7q7OlHTPL/d5m7uFNeXbP1E4naTfX1q6vzVtltQrEL9UNFjAsvBPlmSGqf6waCNpzvuRkrVm4vr+lsL+t3VKl83DtsBqB+3fKW4xzVvdHRUmpub3bMZZOSIvHDlQQI1N4XOurFBhGTASdSzGVtu3FD6dtpV3FUKAGpQrf8u6Ltumrtm6m6W+sYBAKjPNYiqvse4a+U0JXpMCHXjSur5HJ65d8+sJ7l1BMxukunsvgoAAAAAM5kZriTqNgvUAIJmmNGunXghTqGN02jr6qoGAAAAANS3qF1m2mNlhhkBbja6ZwJoaJQbAAAfvwtA/eG8bQx8jzNXPX/3ZJoBAAAAAAAAAYJmAAAAAAAAQICgGQAAAAAAABAgaAYAAAAAAAAECJoBAAAAAAAAAYJmAAAAAAAAQICgGQAAAAAAABAgaAYAAAAAAAAECJoBAAAAAAAAgVu+Utzjmjc6OuoeAQAAAAAAoB40Nze7R/Wl7oJmCxYscM8AoLKLFy9SbgAAYvwuAPWH87Yx8D3OXPq7r9egGd0zAQAAAAAAgABBMwAAAAAAACBA0AwAAAAAAAAIEDQDAAAAAAAAAgTNAAAAAAAAgABBMwAAAAAAACBA0AwAAAAAAAAIEDQDAAAAAAAAAgTNAAAAAAAAgABBMwAAAAAAACBA0AwAAAAAAAAIEDQDAAAAAAAAAg0dNLt+8mV5+eR198zS87Zs2RJP/SPuhSwj/bJl90lJr6G2jbxR4TONk9lfdbYPgIkKy4e4/Lh6Ul7e8rKcvGqfTpb5O29M5ES9Lid3623rl6KlzTZmzJ8iE99mAKhvH7/zsDz8t3bqbahi8GPpNZ/rRzLwWzcLaAgj0u/V5/y2Ubqud+PqTZiEKa533yi0k2eOBg2a2YKyq/eUex65LsNX8rJr/37Zr6fuDXKop0EKS1O4bJGew+75FJm18oeyf/tKmeWeT5YO6oWBTKAW6GOz68paWzaYaZfkZcy+OGel/HD/D2XlHPt0eq2QFW2H5E3OIwC4CT6WE792D5WBf/zYPZpuUcCrVz0CEDNtoh6R7qg+t186cu61kX7VPlysXrLzd3Wekx6CHrWnpurdpY23ncwF6PrVgEEzHTCzBWX3ejcrNktWPuId2LkW2SDnZKzGo9gV6R+HpwuSf3GXdLa5eQDG4bqMXRDZ0BrVqjRVXqz0n9eKU7L43k6R3ldr/gocANS7y4X9MqD+XX57uyzXM359ojaCVL+9QIYMkGHkvV6Rzl1JoMxzfeycyPoWiV6atSwvKwbHokukAJCpAYNmOenwryiUcf3km3Jo/dqKUewxP403iA6nU3zTWVTF0WTbtSpOEXbdP0++YZc1813GWLS+qrpajica7/7mSLzdLvVVz4/+rr/NqS6q0fb7Kc9+6qyeH6TSxsvbZXUm3KnervRy/t+ukIob7u/0/gm2a0TvSz+TMOra5r2nzN/CTDJLmhaKHBoqdcL5x3al80BLH2v2veWON39dVWRjNq2Ux3Xc7EDpq6PFWZ3pbYjKJ/0++3ftueKfY1nbkToHw6tlJc9l97dPutfD5QCgJl2WwuefmEe5P/lz+fat+tGAnAiLsN8OyI9c900zHRlQSzojvcl8Pb0Thdwuy8ARb76XMXa58KP4vfFjNf2o4Naq1/lWr9gtG5Dn/NfiDDQ3+duiNG5XU0AbkeHDG2TtyuzcHxMkO/xmUhf6tCCnvCBamqu7mPaErdvYepFfZ0v3WEq3U+j6OXHpOmt6n6spapum2qmOPy9VLw3qtWXa3EndWE/ue3TrTbXbU38/2mZ/W5PPYHq06F5wh3uS5VE3Zt6NALwT5FV5XPY/UiG6Ntgrb+r36TTeFztVQdsTH+S6YPRTfPfv75bFvV3jOwnU+sdao9Rh1dA+0CuL43Tibmlxb5tS3mfapRveT6v9MdRi/6b5jMmPSZZDPcPSYrZPZ/OdKttwT8ySldtt9t+Kzl1qWRfk04WNSQx0n7l7cZn1pbvX7upcIYfe9gsqPxX7cZG3eyXpoKuDGF3Su7Dbve7+1tP8oMHKPbJLOi9U/0NW+jywx1rhXn2c29dbhnrkkHktS3js6nKkchbZrJWPS6f0yquVAmzlqPJs2JU/3esPSU9ULurt6N4gp3qPpc8P9f749f12f8UVkIrnstpHV1w5U6ncBYBa8NuC/PJL/aBdVuXmSf4Ok2uW7qKZCmClmYDX+zpPLaQDW09Kr1l3ZECeCwJc8uvn5MlPkzV/8qlaptzvkwnePWcy42Jf9sqTLlCnA2bP+V1N3w/eC9S7q2Nyrq1JxA9e+UEVnWjwYl4Kuu2jXjPDcpStk6i6y9sij+u6i2ojibnwH9X/dA8fb7gM1cZ81W8Xdt+QVtzMNDKcqidvUG3ZY7os1L3GBgsyHNeZVR387UOy4fu2Z9nIkF8v9eu1pdvcOrjVI0l7cVenOp4iqXa7m5eijpenk/aB39bMPWLbrrLerruaBB/UjpkXNDNZWfZAflw1/ypeBWjrlMejqxVq2bXrRc6N6cLxugx/eEo2dHd4VydyskYHckpmq2RQ618TnDR2/VpOcjfihPI+k7niov7rfMD9oTktkm87VbbLqv+Zcw90TiqteWTokKzoXJPsw9wa6RS/8POlu9emUqpVYXootS/VezerbXPP5OqwFAY3SLf/w6j/lvqxGx7H14VGZgO7+odTenRlqnzZUPI8cMeaf5Uz94j6gXePixQdu7ocESl8moSbstljXMLA1nioH+7oRzvXqrfQ2+6s7uvq/T+MP5f6+99XFZAPh01ltPK57JUzAFAHLo/+0gbDbl8ld6t/5jV/O+iieVkG/sGFnW5/Xo7+xVE7rWuXeeodf+cCXsuXvZK89h21ppETNlh1a6e8Yua/Ip06i+3LX0rBH5A/fv2oPH+7nWUCdrlOOfpQp90WaZfn1es/yc/ztjfalufVq4rZ3mRstvb73bbE6wAaiJ/woKbuhb3SFWW46wt8B1wQTE+twxXqe6rustm1PUwbSV/8j+o6s6Tl3hVy6orfCvLqTaoRR61niuQ6vCBTTlri9rh+fCqpM7s6eIt7b+4Rr52eUa8tanNfPSlvHk63F2etXJmsI6PdnqaOlxf9v0lbs1HMvKCZRw/ep7MrJjagtmogD66QpqBL5KymxSIXxpIrGuOiG+27JP+hvoqhGu03owvTnCZZrP4LP8fNYceRst013dWgLV3SO1gmaKd/7KL3Pp1kkpkxChY22R+1LFfH5FRbk3jXChTbJS8pMAHNdvGe8OCwmcdaaebYVRW8rvgcsOnb6UpYCSaQf0h6pqKsUGXBinFst6GXMQ8mcC4DQE1LumbqjC/TpdHrEmm7aF6SCyZbbLl03qPDap54zLF22ZKfZx5FLv/Oldk6C8x0lQyzzpx/tVCiJed/o3J469IXwfb6WWfe9qyKWnS3LUwad0DDCC5c6gubh4fV8Z/OQjJyHaYtWF1Qw7YbFjeVaG0EWWx0v5tKuhdHUk/2b3ynv19xF3B1d1vxL+CmumD6vT5KtLnHWYevzB4zqH8zOmg2OeqEKpWRVS54U1GU7bJfuqWnwcf+sQXJhjg1NpkyU1Z1wOztpuTup7orqXvJCIOVuuBzD03jvkRGXMkfP8xokxocNlxOdxdwD0Mm0O5StVNTlV0YTRab7jb+qZtxM8Xn2DjPZQCodXHXzGy2i+Z8WWjGOftEfjmadKz8uDAgl+OAlD8G2mUZKHhdO71MMjv9RNpvc69p//WC666ZBPCWf2O++bcsP+vNTJ0mU87ytifKeAMahUkGmEZxjybba4HA2VSww56MfT+pW6Zu9qczAE3PBt0LTCS/zLXrdMDs6TFZ65Yx3TrtK05Gm7tMe3Fi7EVl1L+ZFTRTJ0+/n1U20i89h1ckJ9e42JTcQz1+Su+I9Pcciu/AZxrD5sqGdf3kq9I76J5kUst7QbKmuVFIyEbXa7/gtYHEpFuZ3R/l6C5h6X1YWphNZgbvdI9tgMP1bzfs1aSYSakOMnLM95+k8GImU8fLG+msMnN8TeRqk0n/Tmew6js5JePrBfT7vbESxy8nHd3qL/am/4YuP6Kuk9rIG+XGVatSarxDV965K7bjOZcBoNbFXR3DwNb9psOj6/KYjHOmxxuz2V0Py3Of6zl3y6qoS+X7dr7JKPtCZF5+i+02GWea2SkZzN8pykRbLt9uTmet6SBYdCOAu+9x3S3jTDM7mXHQbsu7Gxl425M53hpQz3R3vXR939TBzGD/ru0Wj4esTGVbQK0rqcvpNpF7iEkKe3fpmz24h4b+XkUK7x2TguSlJXpfmDWmh0NxD/U6MtvcGe3F6ydPjqNue0p63/OXVW1/qdSlE/VgZgXN5qjTxu8+1HNOOl+s8q6TGXT3TtOFy0v71IMUxpkVLuU3ev1VWSudZQtQdWK7gcj11PVhXnaZbBNdWNRDcGeWG2Mp2sfD0qIa8z6TQmted3cTUfsovQ/VVKJL3KyVa01wIXrfq1cWJ5lm+sqODhyYsaj09KrI9/1MNJuGGw30bibzdflj0mHmmqXOvqCLpD7/tnsp/FXLSUc8WKxd13BrmTHN3PvPxceunvw7BlXBlDXusRPdKCD6TOW3oUrr8yIHom3skXP+Ld3HcS4DQG3zxiO7Ix93kTRyq2zASwZkf+GyzMv/JAmkRVy3yru/c1ReWZbuVmkzxe6Wzmi8sXJufz4ey0xrv9/LRLutXbZ4rxlq3k9KjlM2T9rX+X9zuXQ+VMU2AHVGD7huModcXcQM6u6y903b7d5CUt8zbcEpaguodmZSl7M3hCLbfirYsX7NjevMvh1W9VH3kqOTJ+TwIVmc6nqrx9b16vZDuuNupFSbu7i92PWhfne1VkjnXD1OnltW3xjCa0v4bVmyEOvLLV8p7nHNGx0dlQULFrhnM8hIv7w8tsYbgBtVUfvNdOecUOADjeLixYvTX27EKeIEaQFgutXE70IZ+q6b5q6ZupulvnEAgJo/b1Gdqr7Huqw3j0j/ljelaRIJOY1Of/fNzc3uWX1hTLN6kOsgYDZutuvYintbCJhhml03t7W2XQMAAAAAlGKGSKHejBpC0AwNQkf3XfqtmWzXMYKNuPnsGITJsdglvQuTrgEAAAAA0q6ffNnUnU23RurNqCF0zwTQ0EjnBwD4+F0A6g/nbWPge5y56J4JAAAAAAAANBCCZgAAAAAAAECAoBkAAAAAAAAQIGgGAAAAAAAABAiaAQAAAAAAAAGCZgAAAAAAAECAoBkAAAAAAAAQIGgGAAAAAAAABAiaAQAAAAAAAIFbvlLc45o3OjrqHgEAAAAAAKAeNDc3u0f1pe6CZvW6owFMD8oNAICP3wWg/nDeNga+x5mrnr97umcCAAAAAAAAAYJmAAAAAAAAQICgGQAAAAAAABAgaAYAAAAAAAAECJoBAAAAAAAAAYJmAAAAAAAAQICgGQAAAAAAABAgaAYAAAAAAAAECJoBAAAAAAAAAYJmAAAAAAAAQICgGQAAAAAAABAgaAYAAAAAAAAEGjBodk2Ov7RZNm9200vH1ZwsZ+TI5iPq/2WMHCmzfI3S27z5BTl+1T1Xrp14IdkfwWuTdeZ1tc7Xy+5FoD6Yc2ezHBlxz4voMmMajne3XVnTCyfqqnQCgLr00c/+TP7sFTvt+tTNbAgfyS7zuZ6S/t+4WUDDyG7rpdpFZdp5po1Tb+3ARnH1uLwwxW3WG8EcSxwjM0LjBc1G3pWxhw/IgQN22rloj2wNGrm2sNwhfe5547gmx4+Gn+qMvHu5Pd4fB3qWyJ7tFYKF47D0UbXOR5e6Z5Olf9xqv4BEA7svL2ePZv/4XTsxMD1lRm5dcv7G5/Emta3b5IlVs92bAAA3xkfy3ufuodJ/7iP3aLpFAa9d6hEAX6m2np6/tdAme119am9+sKidaFw9LgMH3WPcfHNWyzMHnpHVc9zzGjV71TNy4KnVUm1t3ByXJJvUpcYLmqkG5rqce6wsXbNN8geH4iBRXFjuVvPdvIYx8q7sWbRJVHPas1TW+UGt3IOy7b4+GSqZTQPMcB8MylBR4PaMvLtbZNPGWig1zsiR7rOy7bHqf6QBABNz6f190q/+bbmjQ1r0jM/fq40g1W/OC1U5oFjptt41GSoUZNPDSf1p9qp22XRwoOiC/Zlje2TJxnSLCsDM1fhjml0dk8J9TdLkno43IqyNmasVLo03M2vNvaYmv7tUcTTZdh2Nu3+57p/HdfqvWtbMN+moyfpKdxULuYb0mlb3vJQxGfsgL02Zkfto+1w3ND2Z7fe7vGZ0/Yw+o/s8Z0rsr7L7w3xufUWoIHu2q+XiVFf/b6fXZzPTktdKd1VLvy9Mo019h2r9Oh07ta6we1xqG9BY2qR9u8ieY8F3PDIkfRvb5cF57nksOLa8bgBFx5GSnlft8Zt25vUdcnb7E8HVt9LniT3vVDljXo/O3+D9GRmeqfMi1b1hYtsNAPXnkgyeHzaPcos3yndu1Y/65b2wi+Zv+uUp133TTH39aknn013JfD39LAq5XZL+Pm++lzF26f2n4vfGj9X01PturXqd/bvEblm/POu/FmegucnfFqVxu5oC1vjaeqqNeF9Bxvw6kKr37zi/TR68yz0vIWrXmG6cXl3Jrz+l60jUn6qn95VfNw3q21FbzrU9U3vSnxe04VL7vEybO/lO9eTqwG69qXZ76u9H2+xva/IZ9Dq37i6IHNyRLI+60eBBM9UwPNon+XzrxDMyPtgjA/KE7RKlr1ioAz06yHWhuHX3EtkZdZk6sFOW7N46vpNArX/sLrv8upza3tf2yJKeZH2VQmCR7IZ0MdPF7L42aS3zvr7uIWl1f3+TObH3iTxmt2nnxkJxQMFXZn+VZdJw1d+TvGzbrZY1P3a6Yb9VBvN73f7YK9vOJ+uznzl5rX2unV9kZEjE26eb1Da+63+HXpr2gbuGZIefjq0LQx2M1NvkbQM/dI2rqeiqoy1HNt0VdkPWP4r+MXhA9m4/Kzvcj+fSuzZJoTDkfkgVk+q/SdpNl0q7rH9cLtm9ryhwVUQdj7oil+6WWf48MQ4OunNYp7rb9+9ZtNO9X01Bt+3wvDCfywXiqj7vAKDe/WZQ3vlSP+iQB5bNl7ZFJtcs3UUzFcBKMwGv4zpPLaQDW4/JLrPuSL88GwS45PNn5bHhZM3Dw2qZcoEuE7x71mTGxb7cJY+5QJ0OmD3rdzU9HrwXaGizpTWflz5/GA7dS+cD99hQ9bPxZPOrds6Qa8ft3NgnOzZvln1RO6hH1QN3vxvXrag/TUKptlyuVT32e4i4OrvLJjxzWpJ2eur7UO8r0ebWwa0dktSR926PUm+UVLvdzUvRyR9RO1pNXv1aD2m0d3teZKNdd/byqFUNHDRLGobPTGbcH3/coDmrpX2jyNkruqh1Kb496yRpSi+VB9XJ0Hc6Kh6roNb/YHDS2PVrS2VpNSdUZkO6WBzkq3D1JflMS6VVfV7Z2B4H43QgQM5fSX5sQiX31wRcHZLBD6IggzZbVj+8KbV/C5fH3KPZal+V+FSpLrv2M6W+Qy9NW793p/7MzpnTfZJPBSPtNqSCIWgw+hgpyOAn7hvWFSopPk9N9lkwrphJ849+vIMf8mufDEphY6s9t9yyyTp12SHJ38ykK3JJRSBWxXnin8PR+3eW7LZdqvtC0s29qvMOAOrcpZF3bDDsjgfkHvXP/Nx3gi6al6T/Yxd2uuPH8osnf2GnTR0yX73joAt4tbS8lrz2PbWmT9+zwapbu+Q1M/816dJZbF++I4P+gPzx67+QH99hZ5mA3bIu+UVHl90W6ZAfq9dfun++t73RtvxYvaqY7U3GZutY7bYlXgcwM+gsNDPedZQJdLpJ1X/ci0q1SQixjTvjNoZpI4lXH9P1QDkrV7wLotSfJqhkWy6os7s6bmv0nTzqtdMzvo+iNre7wO3XkWevWp2sI6PdnqaTP/y/ybBIjaIxg2Ym3XKrvSHAlA1SH8ru5jh77pLyQaWyVGP3qb3SVthqC/JqugHqz1rxiogOIG6WreaGAH6Qr7KmeXnJz/Mi7DeT7lor9qqNTXFVU3dfvH91xH6n2BTXotTcFPv5o3UkmWTluqpq1+TKeZElc4M9O6dJ8h+oZd1TNB49FqK4q1EmcJqRrXrtylmRRXOD+X6avx8I04EokW1r7Nlnlv3Aq7SpSadsJ5WpYroi1+dVzmIVzpMiQZd1a7bMXRRVHvR5oTNOvfWZrtO2olH9eQcA9SzpmqkzvkyXRq9LpO2ieUn+0WSLtUjXvTqs5onHHOuQJ+6fbx5FLv3OtaB0FpjpKhlmnTmzFkm05PxZlcNbl64H2+tnnXnb88Ay80Dkm4ukbPsPaEDmJmZRJtCjc+O2gE4uqCYJoSTdPiiqXyWoP01Gqbacq7O7ZAZ9gVq2P5i0dVNdMP0bQ5Roc2fWkSfD1q9R/xovaKZPju1j0n7D0x4z+sBHihrS46FPYluQm4K1QuDMZK9E44DFBYJ9brsQ2oy7GxtAvEHMj8+2pOtkNHmZctEPn7n7TeYPkPf53fJ+JplOo01/hzZQZvmBhMCUFqioOSZLsk+GTvhdKtNKB8iTQOzs5W32h1xf+ZKkW7RZ1qVnp6ZS56jOJg2ufMWqOE9SygR9bYBYl22um3RqncldjCqfdwBQ5+KumdlsF8358idmnLNheWck6Vj50fv9cikOSPljoF2S/ve9rp1eJpmdXpKOb7rXtOvnXXfNJIDXMisdgMvkZ72Zqctkylne9kQZb8BMZTL/df3MZtmnLmjqC5DmefG4rxNF/WkiKrTl5rSqGrbu2WEvULctd7VfLyZgl9PDAPky2txTnhjhtytRzxouaKbvdpKKMN8wrl98dzBAtu4+5cY+Mg3j1J079wX95kNqeS9IprO8LBtdP5KR2mkGu4wLg6hAsA1e0y21VNeyaTDu/WEKwT2yL3P8MLVPXk9+bMy6M4XZZGdkKL46YdN7y41tYMalSo01pf7ua+oYm8w4eagL+rvv212mPDHdL9PHpzmmveBY9EP+7rHB9DGjl612vL+oXEl1BfeUPU8y6Pff1xePUWa4oJxNZ9dlm8ie10oEoas67wCgvsVdHcPA1mrT4dF1eUzGOdPjjUUD7D9rGkn3yANRl8rjdr7JKLsuMv/+J2y3yTjTzE7JYP5OUSZai3wnFwbNkhsB3HOv624ZZ5rZyYyD9s02dyMDb3syx1sDZgp/2IskgBJPPZtMd7y93kXDiaP+NHHl2nKarbcOHns3dYG6KGtMB0jdw5Jt7ow68rUTx9W7q5Ue+9u2C2qjHY7JacjumYXdLtXSm6prnI6PDliZAbLjv2MH9o4z3Mz4WEm3qX3Snuo3X0yd2Odd2q6azEDcJrNEFxZJ/+xxC7qBmclvMN8sFfeH7c6W3D1T/4DZmyv4226/y9kyVxVDydUgKTFWm7dO894hEe/qxNJH96qizFvP6db01Qu1zXYQx2h5O+D6pMbJQ30w4xDkkytWRZbKOjOAf3J8mnM2dRzaH/K+g0uCbDW17O5tcjbVBTL7Sqbplqn+TXeXtJPNJi13nmTR77c3C4jfr88fr+t20ZgfejJlRrXnHQDUM288skVtcRdJY9kDNuAl/bLv/Usy//6XkkBaxHWrvOd7v5DXWtLdKm2m2D3SFY03Vs4dP47HMtM6VnuZaN/skCe81ww176WS45TNl45N/t9ska6OKrYBaCT6Bl9x3SZot91Q1J8mrnxbTjM9Ow72yZLUONWqHp9q4+kR5yKl2tzFdeStBf3uauVl27yhZNlgLHE7RrBd942ITeDGueUrxT2ueaOjo9Lc3OyezSCqgH/hyoMEam4KndVnU4Bvzo8obrQZW24AADLV+u+CvuumuWum7mapbxwAgPpcg6jqe4y7Vo5vLO7pdUaObB6Qpt1TkZnYmOr5HG7gu2c2kNw6AmY3ie0yOomsPgAAAADAhKTuOA/UAIJmmNH0nXKiFNo4jbaurmoAAAAAQH2L2mWmPVZvN7BDQ6N7JoCGRrkBAPDxuwDUH87bxsD3OHPV83dPphkAAAAAAAAQIGgGAAAAAAAABAiaAQAAAAAAAAGCZgAAAAAAAECAoBkAAAAAAAAQIGgGAAAAAAAABAiaAQAAAAAAAAGCZgAAAAAAAECAoBkAAAAAAAAQuOUrxT2ueaOjo+4RAAAAAAAA6kFzc7N7VF/qLmi2YMEC9wwAKrt48SLlBgAgxu8CUH84bxsD3+PMpb/7eg2a0T0TAAAAAAAACBA0AwAAAAAAAAIEzQAAAAAAAIAAQTMAAAAAAAAgQNAMAAAAAAAACBA0AwAAAAAAAAIEzQAAAAAAAIAAQTMAAAAAAAAgQNAMAAAAAAAACBA0AwAAAAAAAAIEzQAAAAAAAIAAQTMAAAAAAAAg0IBBs+tycvcW2bLFTbtPqjlZRqR/S7/6fxkj/WWWr1F6m7e8LCevuueRqyfl5WifZL0+QSNvqPW9UXYvAvXBnDtbpL/k4azLjGk43t12ZU0vn6yr0gkA6sQVubDjf5P/6//3v8lnP7vi5iljP5fP1Dw9/+xpN0/54mfdZt7/tW/Izak98TaGnwloMKZtktnW0fW4Em0gXdcK63el2lS48Uy7tfb3/fWTL9dfrAAT0nhBs5FjMvb9/bJ/v526F/ZKV1AImgN8S48ccs8bx3U5+XbGp9KF/tMFyb8Y7Zcfyso57rVJyj2i1vdIzj2brDI/ZsDN0LZCzr2d/eN3/eSb01Nm5Dri8iyeujeobe2Ux1fOcm8CAEydufLPF9tHf/jVmH2gfPFf/rP8wT3+p1NRgOyKXD/xmXn0Rytazb+1J9lG7Q8nPpIv3GOgEa1oE+l9r9qLnLb9tKHVb8/oeedkw3qRwqeERG66OSvlh1PYXr1RZq38oezfvlKqrY2bGATJJnWp8YJmqoHZ4ZV5uQc6ZcXh4TijTB+sXR/mZdeLar6b1zBGjknvwg2imtMe90PQXfsFD1ATBgsynHF18livqMpTLZQaI9Lfc046N1f/Iw0AGJ95K75rH5z73AWY0oGnZP6Y/L+mknmn/E/zzYzac3pAvtTb+G++K3+kn4/8Z7mexAKBxnNvXjYc7inTe8BzdVgK0ilr/JiZmZeXNQ/kRXqPxe1IADNT449pdnVMTrU1SZN7Ot6IsDZmMtNcl6jMrLXs7lLF0WTbdTQuwHUG2O6TctKkEbv5qW6U5bqKhVxD+oEW99zJ+iEoKdo+1w1NT2b77Xy7TelMsNRndJ9npMT+Krs/zOfW2X+npPdptVyc6ur/7fT6zGeO5qupdFe19PvCNNrUd6jWr9O6U+sy6dne8qltQGPJy9rOjKuTI8NyaP1aWTPXPY8Fx5bX5bvoOFLS86o9ftNG3uiRc52PB0Hw0ueJPe9UOWNej87f4P0ZGZ6p8yLVlX1i2w0AdWX+Avma/jcOMLngWO678ke6ThXNH/tc/od+Ofe/yixd2Yy7cL4iF1yXyKgrp99F0kw7fu5lfA3JWTO/Wy6MRY/19Ipcdu/QLu+L5uv1+su4N2S4fOrn5t+vfatd/sW/0Y8+k9//l6xup+pveV1QU9t3+pX478avRfPi9yXbHX3maHvj7qzBepKuot5n+Zl9D91IMXEt0tG9QQ71VBiKR7n+aUHk3pZU2zCeN6dF8m2HZLjSSjDFdF3Tr5uWaMu5tmeqJurPC9pwqTprmTa37eIbTe4YcutNtdtTfz/aZn9bk8+g19nVe0rkcE+yPOpGgwfNVMPw7UOyIigIx2WwV96Ux22XKJ2d5l210I3Krt7F0h13m+qWxb1d4zsJ1PrHWu3yHTm1vQd6ZXF3sr4gBFZSdkNa0UHDhU0y5p/8FYI+h3qGpcX9fX2VZsuWV0U2223qXn+qfLpzmf1VlknDVX9PVkin7kZqApu6Yd8lhXt3uf2xSzovJOuznzl5bW0UGQ2NDIv6ktz71N9Q23jMrcN8hzrz0LymptZh6TlsXzN0YaiDkXHXVrsNBAoaV9PKteq4f9P7obblSDptX9M/iv4xuF92dZ6THvfjmWvdIKc+HHY/pIr6cX7z8AZZa7pU2mX943Jx76tFgasi6njsuRB2yyx/nhiHVeXPnMM649S+v3dht3u/mroXS+/TScUyPC/M53LlRtXnHQDUs6Z75Oum2P9M/t9L6p/TH8g/qX++tqpd/oXpuunmX7pou2wuvkO+of+N/Vy+3J9kpung0efec2PkFfk8FTjTPpMvn/4b87esn8t1FzzS67j6H81D45/+vf++Uobkv5ll7pSv/y9z4wy67C6aP5erT78Sd0HV2/dbHezSgbR/bwNvKXFg8aL8Xv/r9pH2P36lt/mK/Pdz+tl35V/c5YKGwXr+oH6X/PHhzOffn/G3gPHKdah2y6G4/pLN9iTIL0vXq4Y/jObNkpZ7V8ihoXLrwA1Xqi2Xa1GP/R4irs7+fZsgMzKkF3PLdat6eZw1qN5Xos2tg1s9ktSRd3V6Fd1Uu93NS9HJH1E7Wk1e/VoPabSrc4XIervu7OVRqxo4aJY0DH84mXF//HGD5qyUtetFzo3pZrAuUE/Jhu4OSY75nKxRJ8O4Cla1/jALzK5fy0mumhMqsyHtOdwjw+4Erybok3ymnLSozyvr18bBOB0I0JczSy5dcn9NgM6SG4yCDNosWfn9Dan9e+pKdGl1ltpXJT5/qsuu/Uyp79AVrIb5gXWPlZGhQ7IiFYy025AKhqDB6GPkVDKGhe72nJWtqbPPgnHFZumAW/TjHfyQ66uWp9a32HPLLZusU5cdlcbNGJH+nqQiEKviPPHP4ej93f5YhLk10hlfSS0+L8zn8rq5V3XeAUBdS8Y10wGgL35loj/yz76VBJ78+Vnjmf3Rv/0P8j//H/9BltwVBa6Sef/z//HXrqukC0x5ovfMMVlh0bhqGev4t64LaTlRICvKhLvrvjJdNO+UW1/U635ZbnU/ETb4lYj/9s7vyjfiwOI5+e9qXWZf5O40gTSzzWMfye/1D8e/uU/m+WO/BdufjA9nfW3Ly+b1O79XlN4NjEvuEZ0A4F8IDbieBKmkA1Pvy0uLmzdrWT411A+mQcm2XFBnd3XcFvfe3CNeO13Xy1VZNeYdC0VtbneB268jz1q5MllHRrs9TSd/+H/Tr1+jnjVm0MykW3bZGwJM2SD1oTEZG1whTX4hq8xqUjWsckGlslRjd/suyX/YVVVGmKE/a6XxjVIn+PiCPk1zV8iKudOUSqKz5OSQ9EQZcnrqORTvXx2x7xab4lqUmpuiA6jJOpJMsuzvMHFdxi6ILG4K9uycJlkxqJZ1T9F49FiI0RgWJnCaka16fUw1DhY2BfObpKntlPtB9gNh9qpl5wP2RDTLDvZKV3Rcq0mnbCfBqGI6w+vQ+u7iK1MVzpMiQZd1a5Y0LYwqD/q80Bmn3vpM12lb0aj+vAOA+hZnZf3qIxfwsRlTUYbVH04MyG/N/KzxzNx7tagLpz9PlcL/U2YVNVnX1791p32gx0/LWkcUACsj6pppstpM98coOy3oomksln9ufhyCGyE0fVdmuQDeP/1717XS3Cl0rsxapbdRZ925oNji/9UG0v7jB3LZZeHZgGI09pu3jqzsNZcRB0wNWxfrPZBdX9F1vLAngZ6XqqM93WvqWW/Sy2QalWrLuTq7a9eabrWda5KgVaoLpn8TwBJt7sw68mTY+jXqX+MFzfTJ8fSYrL3haY9+4zhQ1JAeD30S26ww0zCtEDgz2SsmFdQvEOxzk02mAzzuvXVHb3tbZ9J1Mpq8MenM3TvVvF33FqQrswFvMw5Td1T1Msl0Gm36O7SBMssPJASmtEBFzTFZkodk+KTfpTKtdIA8CcTqq5Pmh9yMLehdtdTLuvTs1FQqyK+zSYMrX7EqzpOUMkFfGyDWZZvrJp1aZ3IzkcrnHQA0gKj74bn/7GVMKVGG1cjP5Z/0/CiLq5SmO+SfmQc/l/8WZ5UlQaTx8dbhdYfMlmSnZRnPXTTnPZHODpP/+DemW+U3vmWja/90aLfZR3+04rsukHZO/tspnYVXHFBMsu3c9ESt3nUUjWDWyselU3rl1ZNBzcdlFUVZSdaIDB/OqAPprn30MpkmFdpyetw5Vcsevup3q1W8mIBdTg8D5Mtoc095YoTfrkQ9a7ig2ch7vekI8w3j+rinBph03afcFQvTME7dufNV6R10TzKp5b0gmc7ysmx0PWtsMHNjg7gwiAoEW9ibbqmmINE/FFExr9Y12XHeJmjc+6No233qc7yRNNbNujOF2WT6x9A9VEeJTu899LbX6Ncp2d42mXGpUmNNqb97QB1j07D/cHPp7/5Qb5nyxHS/TB+f5pj2gmPRD/mx94JBZvWy1Y73F5Urqa7gnrLnSQb9/rZgjA8XlLMVR122lboqW+15BwANIA6OfWYypr72rSgylmRiaV9bdU8wnlmo1Q3A72VZRRlfuSfltjj7rIy4K2SlTC1PHFT7rszxg1QvPhnc5KAC/+YA8d90wbC4u6feRzYLzgbSPpN/+o+fqc8XBRRb5bYtNnMu2Qd6St/oAJh6s2TlZp1u1utlGqkaTZiVpJnhM7x6XKRo7CzcPOXacpqttxbeO5a6QF2UNaa/W/dQryOzzZ1RR75+8mTcdq0sPfa3bRdU6tKJetCQ3TNP9bpUS2+qrnE6PjpgZQbIjv+OHdg7znCLBqB0r78qa6Wzzb2WSZ3YF1y3JzWZgbhNZokuLMIrIdUK0k+32AHDJzXO20RV3B8uhTq+e6bedntzhWif6Ml+l7PU3vJSp/Wuz8ys8dZp3jss4l2dyD2yy1x9itcz1JK+eqG22Q7iGC0/jfsPN5cZh2BFMDisLycdZgD/5Pg052zqOLQ/5IcOLw6y1dSyL3bKuVQXyOI7WGqmW6b6N91d0k52bMJy50kWWybosQ3j95uiKwnK6bKte2G6+6jNeq32vAOARuAHx9LdBqOum5oe56wSnal1hwsaxf7NX9uxwdzT8ubKwp1uHDTjTrn137rgV6YrcuGQC3BFGXIR7yYHXw6kxxOr1h/92x7dsUJJAoKSWyBf1/963Ub9gOI3vtdTvA+Am2HOSnlcD8IeC7KSjHKJBfpCe4WboeEGKd+W00zPjsOHZHFqnGpVj0+18cTLNCvV5i6uI3ep46RcInHaCumcO5wsq28Y6NWT7RjBdt03IjaBG+eWrxT3uOaNjo7KggUL3LMZZKRfXh5bQ6DmplA/mC4F+MZ278XNcvHixZlZbgAAMjXK70JyN02dSfZkOjAGNJgpPW9V22rL203BhU7cDFV9j3HXyhK9LGrSiPRveVOaXkyGM0Ga/u6bm5vds/rSwHfPbCC5DgJmN4ntMjrRrD4AAIAb44ufdXvdGqOAmb7bZDsBM2AczA0AwruRo2ak7jgP1ACCZpjRrp98OU6hjdNo6+qqBgAAmJnulFtf/A9y5/e42yQwHvqGRvQoqT1Ru8y0x0rdHAuYBnTPBNDQ6J4JAPDxuwDUH87bxsD3OHPRPRMAAAAAAABoIATNAAAAAAAAgABBMwAAAAAAACBA0AwAAAAAAAAIEDQDAAAAAAAAAgTNAAAAAAAAgABBMwAAAAAAACBA0AwAAAAAAAAIEDQDAAAAAAAAArd8pbjHNW90dNQ9AgAAAAAAQD1obm52j+pL3QXN6nVHA5gelBsAAB+/C0D94bxtDHyPM1c9f/d0zwQAAAAAAAACBM0AAAAAAACAAEEzAAAAAAAAIEDQDAAAAAAAAAgQNAMAAAAAAAACBM0AAAAAAACAAEEzAAAAAAAAIEDQDAAAAAAAAAgQNAMAAAAAAAACBM0AAAAAAACAAEEzAAAAAAAAIEDQDAAAAAAAAAg0YNDsmhx/abNs3uyml46rOZ6RI8lrajoy4uZn0e8Nl69xZ14v95ncvnn9jHs+efrvTeX6gGnjyobS588ZOaLLjZt9vAdllj+9cKKeSicAqCen5bONfy4fh9NfvSW/c++4kX71U/v3/uGty27ODfb3Py3+rGr67O/d60CdMG2TzS/I8atuRkzX47LmK7quFdbvTP2rxPtxY109Li/Uwb6/duKFuosVYGIaL2g28q6MPXxADhyw085Fe2RrXAhek+Onm2Sve+3A7m1ytrtBCkNTuGyWHQfd8yxq3+z5wD2eIksfVfvx0aXu2WSV+TEDbob78nL2aPaP37UTA9LnHt9UuXVxeRZPPZvUtm6TJ1bNdm8CANwUn/1Uzk9x4Ox3b/2lCVDdtAAZ0ODy94nsOVbtRU7VPjzaJ5vu8tszet5Z2bRRZPATQiI33ZzV8syBZ2T1HPe8Rs1e9YwceGq1VFsbN0E2kk3qUuMFzVQDc13OPVaWrtkm+YNDYg/P2bL6Ue/AVidk+8ZC/ReGOmC2fVDadu+VbepHIltU+OfdcwCZPhiUoaLA7Rl5d7fUyPlzRo50n5Vtj1X/Iw0AmKhl8o29fyd3H1TTXz9kZ312UX5vH02J31/81D1KfOsH9m/+64fmuTk3yZ0/kEX6s7rpzj9184F6km+TTQd3lO9RFLk6JIOyTR702o92Xps8uKZNZPe7rh0JYKZq/DHNro5J4b4maXJP067JlfMiS+aWb3qO6ahw1CUqiA6biHH0mpr87lLF0WTbPTIuwF33z+MmjdjNdxlj0fqqKuyriMZfO7FP9ixqlwfL1r2i7XPd0PRktt/Ot9uUzgRLfUb3ec6U2F9l94f53DukTwqyZ7taLk519f92en02My15rXRXtfT7wjTa1Heo1q/TulPrCrvHpbYBjaVN2rdnXJ0cGZK+jVnnT3BsbT4SV6yKjiMlPa/a4zftzOs75Oz2J4LzvfR5Ys87Vc6Y16PzN3h/RoZn6rzwPtdEtxsA6t3vPh+1D+5cIF/X/0ZdGr3Ms7Bbpf88eqwn2+3xspz9qz+XsZ+bt8ofXulUr/1UfqUeV7ce+94oU81/v2XXH70WvX/8oq6qfyln37KfWf+d+O/+9C33d6L1h383vV2llwOmSqus69kkfd1+/SXbtU8GRfKtqQuR8bw5rdJ2X58MVdMewxTSdU2/blqiLefanqmaqD8vaMOl6qxl2ty2i280uWPIrTfVbk/9/Wib/W1NPoNe59bdBZGDO5LlUTcaPGimGoZH+yQfFIQx011xk7T6VxZCH+yRAXki7s6Z965a6Ebl1t1LZGfcbWqnLNm9dXwngVr/2F12+XU5tb2v7ZElPcn6Wt3bJkUVCvv0dlbZjbKve0ha3d/XV2k2b94n8pjdpp0bC+XTncvsr7JM4E/9PcnLtt1qWZPqqhv2W2Uwv9ftj72y7XyyPhs8SF5rn2vnFxkZEvH26Sa1je/632GhLemye9dQuourLgx1Vo/eJm8bCBQ0rqZV7eq4H/B+qG05kk7b1/SPon8MHpC928/KDvfjufSuTVIoDLkfUkWdhwMHN0m76VJpl/WPyyW79xUFroqo43HH+bBbZvnzxDioKn/mHNbBdfv+PYt2uverqWeJ7NmeVCzD88J8LheIq/q8A4CG8Kl8sdUGfs6/YjPCvv7/fUj+2Dyqng6IRcEx7ff/58S6eKbX85aM/dVfyuduu7Q/vNLvAlA60NUpX3xmnjj6/RX+ru5+Gge7wmCW2hevvOUee37+U+/vZP1du93pgJ6SWg6YYrl1qt3SF9dfstmeBG3L0/WqoUI0b7a05vPSd7rcOnDDlWrL5VrVY7+HiKuzP2x7Y5w5LUk7vUfVy+OsQfW+Em1uHdzaIUkdee92L/Um1W5381J08kfUjlaTV5yCfpEAAEMySURBVL/WQxrt3Z4X2WjXnb08alUDB82ShuEzWeP+xMGQdVI2lOSPG2S6c4qcvaKbwbpALcimHn/5pfKgOhnGVbCq9afSgRW7fm2pLJ30CRUVChU+pyf5TEulVX1e2dgeZ7XoQICcv6LWWkLJ/TUBOjX6gyjIoM2W1Q9vSu3fwuUx92i22lcZ37OW6rJrP1PqO3QFq2F+YN1j5czpPsmnsnrsNqSCIWgw+hjxum3r4HqYtq/p7LNgXLHZOuAW/XgHP+T6qmVhY6s9t9yyyTp12VFp3IwzcqQ7qQjEqjhP/HM4en8qiJ57ULbFV1KLzwvzueJu7lWedwDQcGxXzQl1WfzuzowunvNkyb/7O2n6rp31tSd71Xt+IN+yT7O59Sx6cpl9/lmzzNHr3fsD+ZqZMSr/jy6i//5924U07m7ZK9+4Uz3/7D/JtagInwC7jWG30YekyfwNte3R343nJZ85CehFvOXcHGAqLX1UJwD4F0IDridBKnvf1PvapNXNm728TZKhfjAtSrblgjq7q+NGCTFLH/Xav7peLmflincsFLW53QVuv448e9XqZB0Z7fY0nfzh/02/fo161phBM5NuudXeECAju8qkXB7VNwSYzACDYzL2QV6aguVnz11SPqhUlmrsPrVX2gpbbUrnFHQDPPO6DRxONJrdNC8v+XnZnVtvON21VvpkR5ziqqbuvnj/6oj9TrEprkWpuSk6gJqsI8kky/4OEyW6785pkvwHaln3FI1Hj4UYjWFhAqcZ2arXrpwVWTQ3mN8kTfcVZMz8IPuBMHvVctsaWx6ZZT/YI1uj41pNOmU7CUYV0xlefRszzuUK50mRzC7rs2XuoqjyoM8LnXHqrc90nbYVjerPOwBoBG5MMxP40VlnE+tK+LUFLi339gXp4NY4Rev54zuazb9xV9GmBfLPzQwr7koaZ44VZ39lSo1pFgazlsm/XJExzsd374/fF/9db17ymQP+e4AbwtbF9ryWXV/RdbywJ4Gel6qjbd9j6lkD9DKZRqXacq7O7pIZTLfa7Q8mQatUF0xdl42UaHOXHdZpImz9GvWv8YJm+uTYPibtJdIedcBsYN7ecd3pIpvfOA4UNaTHQ5/ENqXTNEwnFTg7I0O6UHF9p/WU9KWu3Md/2ung1H3bkq6T0eR9d+bunWre3vygbM1swNuMw9QdVb1MMp1Gm/4ObaDM8gMJgSktUFFzTJZknwyd8LtUppUOkCeBWH110vyQuwFl46uWelmXnp2aSnWh1t0ygytfsSrOk5QyQV8bINZlm+smnVpncpGh8nkHAA3mTztsppbu4vjT02ZWLL4xwGn50uuCWROCgf3vPvi/y5IbWIGJg3k/fz8JLv76ovzBPQRuttmrnpBtskf2nbji5jguqyg9TI9uO2XUgXTXPnqZTJMKbTk97pyqZQ9d9bvVKl5MwC6nhwHyZbS5pzwxwm9Xop41XNDszLE96QizzxWOWQ3g8XN93FMDTLruU+6KhWkYe+m8ZjD+D9yTTGp5L0ims7wsG10/Mu7UzqWyLi4o7JT0pa6+u+ZUGff+MIWg/pHL+olS++T1pLFu1p0pzCZzgUTDpvf2HfUa/WacO/dYMeNSpcaaUn/3NXWMlRonDw1Df/d9u8uUJ6b7Zfr4NMe0FxyLfsjfPRYMMquXrXa8v6hcKdXFuux5ksENapsa48MF5WzFUZdtpa7KVnveAUCjmSdLnnZdIH++ww7kH2dQvSVjJpvrgPx3E1ibGP9GAJP1xw9tthloqTHKwhsFZBjv+0N/er/9u/E+UdPf2HHQvvZkB5llmAazZfVjugfBHi/TSNVowqwkzQyf4dXjIkVjZ+HmKdeW02y9dfDYu6kL1EVZY/q7dQ9Ltrkz6sjXThyP266Vpcf+tu2CSl06UQ8asntmYbdLtfSmpHEadGPS0wQzJWavesYOkB2vyw7sHWe4RQNQutf3Sbtsu8+9lkmd2Oe9rDA9ELfJLNGFRYUbFtSDivvDpVDHd8/UVwDszRWifaIn+13OlrmqGIpTp7tFdmZm1njrNO8dEvGuTix9dK+5+hSv53Rr+uqF2mY7iGO0vB1wPXOcPDQWMw5BPhgc1qeD0unj05yzqePQ/pD3HVwSBOvVsru3ydlUF8jiO1hqplum+jfdXdJO9oYU5c6TLPr99mYB8fv1+eMF0nXZtnNRuvuozXqt9rwDgAbU9JDMceOP/f5vfiq/Us/viMYWU7725NMyZ7F7Mg7fWheNRzaV7pI7D+50AaybSf9dN36a5+t/HY6DBtxEc1bLEzpxIBZkJRnXytxAzo6dVfZmaLhByrflNNOz42CfLEmNU63q8ak2nniZZqXa3MV15K3qOKk+OTcv2+YNJcvqG/F59WQ7RrBd9/iTYTCdbvlKcY9r3ujoqDQ3u7TvmWTkiLxw5UECNTeFzuqzKcATHQcOtWXGlhsAgEz8LgD1Z0rPW31DOD2+NRf+brqqvse4a+XN7xk1cWfkyOYBado9mTHTG1s9//Y28N0zG0huHQGzm8R2GW2ArD4AAAAARcwNAMK7kaNmpO44D9QAgmaY0a6deCFOoY3TaOvqqgYAAACAaukbGtGjpPZE7TLTHit1cyxgGtA9E0BDo9wAAPj4XQDqD+dtY+B7nLnq+bsn0wwAAAAAAAAIEDQDAAAAAAAAAgTNAAAAAAAAgABBMwAAAAAAACBA0AwAAAAAAAAIEDQDAAAAAAAAAgTNAAAAAAAAgABBMwAAAAAAACBA0AwAAAAAAAAI3PKV4h7XvNHRUfcIAAAAAAAA9aC5udk9qi91FzRbsGCBewYAlV28eJFyAwAQ43cBqD+ct42B73Hm0t99vQbN6J4JAAAAAAAABAiaAQAAAAAAAAGCZgAAAAAAAECAoBkAAAAAAAAQIGgGAAAAAAAABAiaAQAAAAAAAAGCZgAAAAAAAECAoBkAAAAAAAAQIGgGAAAAAAAABAiaAQAAAAAAAAGCZgAAAAAAAECAoBkAAAAAAAAQaMCg2XU5uXuLbNnipt0n1RzPSH/ympr6R9z8LPq94fK1zny+l+XkVffcGJH+aj/zOI28odb5xhSuEJgm10++nH0sj7McKLmeSlzZ9PLJ4r+kz7Os+VOiHss5ALiJPn7nYXn4b+3U21BVno+l13yuH8nAb90soJ65ulTx1K9aQwlTV4teow5Ue66elJeL2rO1xxxHHD8zQuMFzUaOydj398v+/XbqXtgrXXED9rqcHGqSXe61/S92yrme2j8hq6c+39uH3OOIDiL2yLnOXTfkM+ceUet8JOeeTZYO7jXS9wGMU9sKkd5jqYodAGA6fSwnfu0eKgP/+LF7NN2igFevegTAyHXEbcBo6l4vsqJzjUStFX0hsuvDfNIe3L5SZrnXUCPmrJQf7v+hrJzjnteoWSt/OK7jZ8IX1jHtGi9opgrLDi+Gk3ugU1YcHnaN0Fmy8hHvwFYn5Nr1p6TwaYPEh0eOSe/CDbLBPTWuDkthcIOsXek+daN9ZqCh5CW//pD08IMKADXhcmG/DKh/l9/eLsv1jF+fqI0g1W8vcIEFqOTqSXnzsNcOcs+7CZQBGIfGH9Ps6picamuSJvc07bqMXRBZ3FS+2BzzU3iDxmwqvVdNfheq4miy7Toad4903aJO6i6Oalkz36SjJuurvivliPT3nJPOB1rcc+v6pwU5tb4lvrqi5Vo3yKkPh9XWhKLt87pzmu238+02pTPBUp/RfZ6REvur7P4wn7tHDskp6X1aLRenuvp/O70+85mj+Woq3X0t/b4wjTb1Har1F3WFC1O9U9uAmSd9TNrzJSND0hzT6e4Adl75bMqWR7plw+Gekud+teVKch66v+cfx1nHsP96cI6E51BxOafKMbNPyBQF0EguS+HzT8yj3J/8uXz7Vv1oQE6ERehvB+RHrvummY4MqCWdkd5kvp7eiUJul2XgiDffyxi7XPhR/N74sZp+VHBr1et8q1fslg3Ic/5rcQaam/xtURq3qylQbOS9XhEvy0y3i/zn5bn63UjSNrP1H79OVKbbZ1gHxDiEdet0PTSup7o6b6rO6s/z67ZqSrXvyrS5zfBD8Wvue3TrTbXbU38/2mZ/W5PPYDIce0+JqDp++PdQ+xo8aKYak28fkhX3tmRfTdCZWYMbpKVcyTnYK2/K4zZ990WdtZY0ZnXB2NW7WLqj9N793bK4t2t8J4Fa/1irXb4jp7b3QK8s7k7Wlw6BlTbyhu6C+fiUpLEe6hmWFvf3deN9y5ZXRTbbbepef0p63yvzAcvsr7JMGq76e7JCOl9Uy5orQDoY0CWFe13X0v27pPNCsj77mZPX1mZHRtUbh0V9Se596m+obTzmf4d+inbrsPQctq8ZujDUwUi9Td42lA7QobGFx+R+aRnSwd4Mc1ok33ZIhr3j3wax11Y4T3PS0b1BnYeTqGx55+GuTrGB6KEWu83mvHwzHdxS7++KXldTulu7/vHvSZ1Di3tfTS9/WFVCTRlR+6n0AFC13xbkl1/qB+2yKjdP8neYXLN0F81UACvNBLze13lqIR3YelJ6zbojA/JcEOCSXz8nT36arPmTT9Uy5X4YTPDuOZMZF/uyV550gTodMHvO72r6fvBeoJFcDbLMlLErp2Rx01gqAFO+naLaPW+LPO7qT6LaeVu2RO0k1SZQ9bw3ozaB+nuv+u3C7mpbcaioVFsu16IeF2Q4rpPatv+G79tMwpEhvVj0fWyQU/EQKKXb3Dq41SPdbr6uR3sNTPV3k3a7m5eikz+i40NN3YvVc1uf10Ma7epcIbLerjt7edSqBg6a2cZt78Ju+aFXWMbiYEhH+asNbZ3yeKpro8i5MV04XpfhD0/Jhm5/+ZysUSfDoaGypW+aWv+aYAPs+rWc5Ko5odRn6bngbeckJZ8pJy3q84rXyNdZanJhTH36EkrurwkIu5aq4m/l9zek9u+pK2Pu0Sy1r0p8/lSXXfuZUt+hK1gN9V499kFkZOiQrEgFI+02ZGfqoeEVHZPqkNGZYe5xmjte346uQLnjrbWKk9och15FbLy883DWsrys0MHoB9zfNcG8UzLmB73U+3d5YxOmurWrisqhVDmlyzlJd/GuGAgEgPpzefSXNhh2+yq5W/0zr/nbQRfNyzLwDy7sdPvzcvQvjtppXbvMU+/4OxfwWr7sleS176g1jZywwapbO+UVM/8V6dRZbF/+Ugr+gPzx60fl+dvtLBOwy3XK0Yc67bZIuzyvXv9Jfp63vdG2PK9eVcz2JmOztd/vtiVeB9B4SmWVJckBaqo41rOqP2127QRTf/LHR5slLfeu8Noi2rmkfqUaceHfxgSVbMvpx96wQ66eHiXE5B7x2uk6wOZ/P0pRm9sFWru9OvGslSuTdWS029N08of/N9eYwKp/AR31qTGDZibdssveECBjkHqTcvm2viHAZLIixmRscIU0BcvPalpcPqhUlmpkb98l+Q/1VQy1jdV0A9SfVQf/ogK9Wgubqnp/01zV3J5bKoXrBtNda+WQ9HhXg7b0HIr3r47Yd4tNcS1KzU3RAdRkHUkmWfZ3mCjRfXdOk6wYVMu6p5gBovOlbHfvDP4VMP1DLpV+bBM6cCVhRtdEqON1sfqv9HGewSxjXR87ZzPRonNQTTq9PF1JBIBGk3TN1Blfpkuj1yXSdtG8JBdMtthy6bxHh9U88Zhj7bIlP888ilz+navf6Sww01UyzDpz/tVCiZac/43K4a1LXwTb62ededuzKvodum1h0rgDGoq+UCmSX1bc2vFvCjC+sZ5nSdPCMsP66F4zL+aloLP7VV1pXD2PUEGptpyrL7tkhqJAqYkJRMv5PUNKtLnHW8+vyB4zqH+NFzTTJ8fTY7K2RNqjDpi9OXfXFNwpRZ1QYbZGpMqAVDZ9EturHyYgVCFwZrp7ReOAxQWCfa67EGYF8Uz21HQFwsZDB6d0Bkx0NSiavO/O3L1Tzdt1b0G6MgNnNuMwdUdVL5NMp9Gmv0MbKLNsQZeZKTelBSpqQamAtwka+cKAqfqBDd7hSa6AmR/yUl3Fs6jK1+M6bnbg5M0P0HqfyewXl0qemqbsrrkAUIPirpnZbBfN+bLQjHP2ifxyNOlY+XFhQC7HASl/DLTLMlDwunZ6mWR2+om03+Ze0/7rBdddMwngLf/GfPNvWX7Wm5k6Taac5W1PlPEGNBpzoTIvLcEFQ50McEPpwJmpJ3WL9BA4mxoV2nI6A1B928NXg0CpFxOwy4U9QzLa3FOeGOG3K1HPGi5oFg74mKJOnrBv+8TZlNz0uEMj0t9zKO5+ZRqb8Z071Wlz8lXpHXRPMqnlvSBZUrDb6HpWwWtudRsXBlGBYMcFM91SdVqo9MqrXn/7Nw+vyLzycqONe3+YQtDb9hS1T95IgmRm3ZnCbLIRGY6vTuiAhnjd5xQzzp17rJibJqSyfdTfPaCOsfEEP1AfTFZYcLyp8+VVXaREXRtNane626Quc065x1nsFbBXzTgX4y17Zq183Jy/vd4VtfGXK1WIxoYw3DEelaP6M1c7NiEANIi4q2MY2LrfdHh0XR6Tcc70eGPRAPvPfa7n3C2roi6V79v5JqPsC5F5+S2222ScaWanZDB/pygTbbl8uzmdtaaDYNGNAO6+x3W3jDPN7GTGQbst725k4G1P5nhrQP0zSQUZSQx6yIpUFv9UtotG+r26kk6ucA8xSeXacppuk4sU3juWDpSGWWN6uBH3UK8js83txiP272J//eTJuM5dWXrsb1NHH0cvE9SuhuyeecoM0hhlXtkpKcSC7n56Ktu1rzQdsNrVec5bnx0sO85wc+MSRa+/Kmuls2wBqk7sC667oZrMAPUmm0MXFhVuWFCSjqLbGxSY9T6tipMXp2mw7or7w46VlNw9M9h2N9nvcpbaW16XMb3rM7MHvXWa9w6LeFcnco/sMkGJeD1DLemrF2qb7SCO0fJ2EPjMcfJQ53LSsT843orOF/WeeCBY+57h1lJjmjkm+Huq6C621VHnwOZOSV0XHXe5UoW2Tmkacp9ZHePpsSDtZz7XE72up3LjfwBAvfPGI7sjH3eRNHKrbMBLBmR/4bLMy/8kCaRFXLfKu79zVF5Zlu5WaTPF7pbOaLyxcm5/Ph7LTGu/38tEu61dtnivGWreT0qOUzZP2tf5f3O5dD5UxTYAdUgP+J85hmzQhXJK20Vzmry6km0vMNj7VCjfltNMMPTwIVmcGqfaJo4kbTzx6uul2ty67Wlv+pa8pt9drRXSOXc4WbZ3cap9OmvlWneTPbIQ680tXynucc0bHR2VBQsWuGczyEi/vDy2hkDNTZGkAPND1xguXrx4Y8uNOP271E1FOKYAoJbc8N+FSdJ33TR3zdTdLPWNAwDU/HmL6lT1PVasW9cifbf5N6VpupJT6oD+7pubm92z+tLAd89sILkOAmY3ie3qNtGsPsw8titjuSwyUrMBAACA6pjutRPqoQHcGATNMKNdP/lynEIbp9HW1VUN3Fw6ayw5XqKujJmD4uurZNExNekbjwAAAACNK2qXmbozN5xCDaF7JoCGRjo/AMDH7wJQfzhvGwPf48xF90wAAAAAAACggRA0AwAAAAAAAAIEzQAAAAAAAIAAQTMAAAAAAAAgQNAMAAAAAAAACBA0AwAAAAAAAAIEzQAAAAAAAIAAQTMAAAAAAAAgQNAMAAAAAAAACNzyleIe17zR0VH3CAAAAAAAAPWgubnZPaovdRc0q9cdDWB6UG4AAHz8LgD1h/O2MfA9zlz1/N3TPRMAAAAAAAAIEDQDAAAAAAAAAgTNAAAAAAAAgABBMwAAAAAAACBA0AwAAAAAAAAIEDQDAAAAAAAAAgTNAAAAAAAAgABBMwAAAAAAACBA0AwAAAAAAAAIEDQDAAAAAAAAAgTNAAAAAAAAgABBMwAAAAAAACDQgEGza3L8pc2yebObXjqu5nhGjiSvqenIiJufRb83XL7Wmc/3ghy/6p77rh6XF6b485x5Xe3H18+4Z0D9unbihexjeZzlQMn1VOLKphdOFP8lfZ5lzZ8S9VjOAcANdVo+2/jn8nGp6a/ekt/F7/lLOTvmFrvBfvfWX9q//9PTbk7iVz+12/YPb112c8ZvQuv4+5/abQqmz/7evV4TJvtdXZazf1WLnwtZTNsksy10Ro6UaiPpulBYdyvXpsKNpdusdbDvTZ2fOvSM0HhBs5F3ZezhA3LggJ12LtojW+NC8JocP90ke91rB3Zvk7PdjVQYqs93tM89TjM/INv3SME9nypLH1X78dGl7tlklfkxA2aC+/Iiu99VZwIAANMsCohlBOmAWpa/T2TPsWprU7b9tOkuvz2j552VTRtFBj8hJHLTzVktzxx4RlbPcc9r1OxVz8iBp1bLbPe8kglfWMe0a7ygWW6drMu5x8rSNdskf3DINUJny+pHvQNbnZDtGwuNUxiOvCt7Fm2STe5pRAfMdshOOdATvgKgtrRJ28Y+2cEPKgBMo7vkzoN/J3frae8P5Gtm3kPSFM37dw/JH8fv+d9lSZN5w7T61g/stv3rh+a5OeMXruN3n4+af6ty5w9kUbR/1HTnn7r5wHTIt8mmgzvK9yiKXB2SQdkmD3rtRzuvTR5c08bFTAAzYEyzq2NSuK9Jsusz1+TKeZElc8vHh8d0VDjq0hk0Zk3EOHpNTX4XquJosu06GhfgrlvUcZNG7OabdNRkfVUV9sYZOdJ9VrataXXPE9Vng0XbpzO+3DaY7bfz7TalM8FSn9F9njMl9lfZ/WE+9w7pk4Ls2a6Wi1Nd/b+dXp/NTEteK919Lf2+MI029R2q9Rd1hTPp2d7yqW3AzJM+Ju35kpEhaY7pI+mKVhXp5q2P7ixb0au2XEnOQ/f3/OM46xj2Xw/OkXLnmt0eVY6ZfUKmKICZIuzy5z/3uneaLK2ke19xF0HvvXoyXT/HL+xa6T+PHn+88afyK/Va3M3Te78WLnP+lU/tCz/foeaPv2tj+Hf9zxr/3bB7Z5zV5u8zPUXriJTfb8nfLtWlsvz60/voipuL+tEq63o2SV93UA/LcO2TQZF8aypbKJ43p1Xa7uuToarbY5gaYd26RFvO1XlTdVZ/nl+3VVOqfVemzW27+EaTO4bcelPt9tTfj7bZ39bkM+h1bt1dEFF1/PDvofY1eNBMNSaP9kk+KAhjOjPrg03S6l9ZCH2wRwbkibg7Z95rzOrG4tbdS2Rn1N3zwE5Zsnvr+E4Ctf6xu+zy63Jqe1/bI0t6kvUVh8CynXl9h5zd/sSUpLH2dQ9Jq/v7uvG+efM+kcfsNu3cWCif7lxmf5Vl0nDV35O8bNutljWprjoYsFUG83vd/tgr284n67OfOXmtfa6dX2RkSMTbp5vUNr7rf4eFtqTL7l1DsuOgfc3QhaEORupt8rahdIAOjS08Jg9I62kd7M2QUdHSlbDCxvYK5+nSqit6JXnn4d7tYgPRp1vtNpvzciAd3FLv3xq9rqZ0t3b9478jdQ4t2b0vvfxBVbk0ZUTtp9IDwI31qXyxdYf83j3TAad/+KsX5YvP3HP9+hEXGBp7S/5ho/de7bOfyvkp7A75h1c6Zezn7om8JWN/9ZfyeRQMU/7wSn8QjJogvd1BAOpbP+iVb9ypX3xLrr51WX731gH7Wb+702SzmcDU37yl5wR0QKzT22ea3nYXGKuw33TALPnMIr//m+C9FdavtysOGCp/eGVH8F7Uhdw61W6plL1/Rt7dLdK2PBUyk6FCNG+2tObz0nd6wjUyTIVSbblcq3o8KENxndS2/Tc9bHuWnVFFQtxOV3XrQpw1WLrNHffQcsvt3e6l3qi/m7Tb3bwUnfwRtaPV1LNEPbf1eZ3Esnd7XmSjXXf28qhVDRw0s43bPYt2yjOrMkJmcTBknWqilnHfNnkiWt505xQ5e0UHTHSBWpBNPf7yS+VBdTKMq2BV60+lAyt2/dpSWVrNCaU+y47z3nZOUvKZlkqr+rziNfKX3rVJ5PwV9elLKLm/JkCnRn+wSdrjzzVbVj+8KbV/C5ejy56z1b4q8flTXXbtZ0p9h65gNcwPrHusnDndJ/lUMNJuQ6EwVHofoHEVHZPqiNKZYe5xmjtej0ZXoNzxlhozowRX0RuYaHDWOw9nL2+TvA5Gr3F/1wTzCjLmB73U+/d62aipbu2qotKXKqd0OReM8VExEAgAM8fX/1p3UYwCRiJ/WLzZdFlc9OQyO+PcRRucOfWf5A/6+Xd3um6NO+Xr+vnP35+aQJbm1h3/7c+aZY7+W3G301H5fzIyyHRXzXgZs46JdEOdJ0uetn9HB+9sIOohafrBXerf0zLmAlNfe7LXfX416df+/n0b5Iq7fLp9+dl/kmtqW8vvt9PypQuY2e9BTfFndcqu/7Jc+8/hdrn1o+6YOlp4odCn6zhhHUYnVUibtLp5ph4VD/WDaVGyLacfe0MtuXp6lBCz9FGvna4DbHJWrnjHQlGb++pxGTi4SXZ6deLZq1Yn68hot6fp5A//bz4o28hUbAiNGTQz6ZZb7Q0BMrolmpTLo/qGAJPJihiTsQ/y0hQsP3vukvJBpbJUI/upvdJW2GpTOqvpBqg/qw7+PVb9IITj0TRPNbfnTdNgHbprrfTJjjjFVU3dffH+1RH7nWJTXItSc1N0ADVZR5JJlv0dJkp0353TJPkP1LLuKWaARXPt+VW2u3cG/wpY1pgZZejAlYQZXRMxZ64sUf/NHU9ZZ5axrl05azPRonNQTTq9PAlYAwASy+Sf3a7/nSf/n8VmhnxtgU2F/+M7ms2/kd9fdNlMpvujztAKM6Imr+hv37nABoCaFsg/NzOmSGpMsx/It9xsaXpI5nzXPVa+9mSHfW3sovx3M0e9HozDFo+lFmevpbPCyu43b723RuOqBZ+1/PqvyP8wj5fJv1wRbddc+WcuAIp6Yy/07Xktu52gL46HFzP1vFS9x9xIbRIXMjEFSrXlXH3ZJTOYbrXbH0yCVqkumH7PkBJt7vHW8yuaLXMXuYeoa40XNNMnx/YxaS+R9qgDZgPz9o7rThfZ1AkVZmtEogb2hOiT2KZ0moBQhcCZ6e4VjQMWFwj2ed13IdTBKZ0BE6W4RpP33Znx2tS8vflB2ZoZOLMZh6k7qnqZZDqNNv0d2kCZZQu6zEy5KS1QUQtKBbxN0MgXBkyvXpHgHZ7kCljWmBllzVktT7iK3k0fTcX7TGa/uFTy1DRld80FgBkuzpjKCDrVu7G35KrXVfIPr7xox0aLA1lvyZfxmGOX5exbXtfU4OYCRdluZfebt94osyxUdv2fyv99yo27NvZf5P+me2bdmr3qCdkme2TfiaA25bKK0sP0nJGhg26oGL/Oo7v20ctkmlRoy+keFKIvUPvdahUvJmCXC3uGZLS5pzwxwm9Xop41XNDszLE96QizzxWOfteqiXN93FPjDp2RI93JFQvT2PTSea+d2Cd7PnBPMqnlvSCZzvKybHQ9GsvLZ251GxcGUYFgC/vMbqnTaNz7wxSC+kcu6ydK7ZPXkyCZWXemMJtM/xi6hyagIV73OcWMc+ceK7o7aiGV7aP+7mvqGBtP8AP1wWSFBcebKjP27Zaka6NJ7U5fbdRljvqNLsleAdun1rNk3GVPVNHb411RG3+5UoVobAjDHeNROao/c7VjEwIAqvatda7bYJwxZafsges9433/ZJm/V+FGAKkxzaKB/k/LZ1t/arpS6q6STSbjLBrT7S651WWg/f5vouU65YuLIn/80GabDZe5zgr7rel/kX/pssLi9QbjppVff7Jdukupec19BtSr2bL6MZ29v8fLNFK1nTArSTNDUiRdM2N+zwHcZOXacppuk4sMHnvX3PE0/u7CrDH93bqHJdvcbjxifxy8ayeOx3XuytJjf5s6+jh6maB2NWT3zMJul2rpTUmDL+jup6eyXftK0wGrvdvPeuuzg2XHGW7RAJTu9X3SLtvuc69lUif2edfdUE1mgHqTzaELiwo3LKgHFfeHS6GO756prwDYmytE+0RP9rucLXNVMRSnTneL7MzMHvTWad47JOJdnVj66F4TlIjXc7o1ffVCbbMdxDFa3g4CX2sBSUyFpbLODHLvHW/b1c/vbr8bt3rPbl3xSt4zdFepMc0cE/wtSGFja7piVhVb0YvC58a4y5Uq3LdNmk67z6yO8fRYkPYzn+2OXtcTd8kEgElrekj+dTjeVg2Jg0sT8hs5+1eu2+SdP5CmP9XjpEVjj+0wAarUuGmO7U56l9xZbhyxsvttniz5d/6yy+Qbe8N1lV9/cgMD6+t/nX6OOmSy9/3aVJCVZFwrcwM523Og7M3QcIOUb8tpetw5OdgnS1LjVD8YtPHEq6+XanPrtqe96Vvymn53tfKybd5Qsqy+YaDXPp29qt3dZI+7Z9abW75S3OOaNzo6Ks3N6fEgZoSRI/LClQcJ1NwUOqvPpgBzV5PGcMPLjTj9u9RNRTimAKCWzNj6JFDHpvS81TeE0+NbT3q4HoxXVd9jxbp1LdJ3mx+QptTFdvjq+be3ge+e2UBy6wiY3SS2q1sDZPXhJrFdGctlkZGaDQAAUDvMDQD8rCTUFDNm94R6aAA3BplmmNGunXjB3AkwsUl21tVVDVQyteWGzRpLjSGmB8nPGhTfXCXT451xTAFALaE+CdQfztvGUO57TNpl9Vh3JtOskno+hwmaAWholBsAAB+/C0D94bxtDHyPM1c9f/d0zwQAAAAAAAACBM0AAAAAAACAAEEzAAAAAAAAIEDQDAAAAAAAAAgQNAMAAAAAAAACBM0AAAAAAACAAEEzAAAAAAAAIEDQDAAAAAAAAAgQNAMAAAAAAAACt3yluMc1b3R01D0CAAAAAABAPWhubnaP6kvdBc0WLFjgngFAZRcvXqTcAADE+F0A6g/nbWPge5y59Hdfr0EzumcCAAAAAAAAAYJmAAAAAAAAQICgGQAAAAAAABAgaAYAAAAAAAAECJoBAAAAAAAAAYJmAAAAAAAAQICgGQAAAAAAABAgaAYAAAAAAAAECJoBAAAAAAAAAYJmAAAAAAAAQICgGQAAAAAAABAgaAYAAAAAAAAEbvlKcY9r3ujoqCxYsMA9K+W6nNzdJb2D7mlbp+zavlJmuacy0i9beg65JyIbuvdLR849Cen3vt2UXr4mjUj/lh5JPpXIis5d8sOV0VanXy/7mcdp5I0t0iPdsv+RKVohMMUuXrxYRbmhBGWDNpXnyk0Vf5YN0r2/Q+KPkPEZI3X7WQFgnKr+XXA+fudhee7X9nH7/Uels2HKyo+l92+fkwFZLp0P/UTab3OzgRo03vPWtn+GpcWvB3mun3xZXpXHvfaSlm5HpttTmApVfY9XT8rLTxck/+IPZeUcN68G6WOo68N8HcQKaoP+7pubm92z+tJ4QTPVKOyXjrjxlw7qqILwDVV4PuIO7EonZL0EzcznGJO1mT8KtvAv3OsK/ZouhPSP25vSVOMFJOrLuIJm/vluzpVeWVx3waTqziPzQ39lLQFvADPO+BrfUWDJuf15Ofqdu92T6RRtV7s8/xedMrEtImiG+jGe89bUcXpPqUfBxUMjSSYIg2LpdqN9n1oBFxWn0PjK38Yy0+ve9Rw0a7zumbkkYKblHuiUFYeHVbGnzZKVUcBMm7NS1q4/JYVPr7sZdaytSZrcw5Srw1IY3CBrox+ERvrMwI2kzpXHO1fIubE6O1eujsk5WSxNBJ4BYNIuF/abgNny29tluZ7x6xPysf53uv32gqvbAvDF2T8vqjagm5dIAmHd692s2IgMH14hnQ9EDcmcrFH1wENDnGnATNf4Y5qpBuSpUgEluS5jF0QWNyVXGLKMqcJ3y5YtdnojXXDqgjl+TU0vn0wa2Oa11Pt11tcW6Y9m6cyW3Sfl5Bt2WTNfZ7d464vfW47+jO5h6PqnBTm1viV1hSXXukFOfTistiYUbZ/+QXHbYLbfzrfb9LKcvGrfraU+o/s8IyX2V9n9YT63vupzSnqfVsup9djt8/92en32hy95zd/3aen3Jeu2Ut+hWr++ypRal/5c/vKpbUAjG7vinVklj4PgvFb0MeQfJ+ljv/Qxbd+nygTzevpcSwTL++/T2/h0rzqLDklPsO5KwuPebIt/rrjz2z4vsw0A0DAuS+HzT8yj3J/8uXz7Vv1oQE6ERetvB+RHf/uwPBxNRwbUks5IbzJfT+9EIbfLMnDEm/+3vXEw7nLhR/F748dq+lHBrVWv861esVs2IM/5r5nsMW+9/rYouqtp9Fpv9T8RQN2YtfKHsr9kL6GcdOwvkTk2MiyH2vLS4l10nLUs7yVfpEV1O1PnM3WhfvM+v12RbptU226B3Vd+3bJEWy5VN3X8eUHdPbXPy7S5k+9UT/Z7jdabaren/n60zf62Jp9Br9NkPx7uSZZH3WjwoJlq2L19SFbc25JdcI4ck97BDdJSLkNysFfelMdlvypg9+srFupAjw5yXSh29S6Wbv2ambplcW/X+E4Ctf6xVrt8R05t7wHbHSxaX4t7W0VqPV3RCTqOhnKWQz26/7/9+xvMif2qyGa7Td3rT0nve2XWX2Z/lTVnpfxQ/z1ZIZ0vqmXNj51umNuupXZ/7JLOC8n6Rt7okXOdyWtrsyOj6o3D5opStE83qG085tZhvkN9Ncq8pqbWYek5bF8zdGHYc85uk7cN/NDNAOrH9M3DKyS/TJUeZY+DWdJyr38lUl+pVP94lSwdfNvQqgua8se0cbjgzres7pV2+d6F3W55NXUvlt6n3Q96rsOed6Y7gnptHOnf6WD6dRn+UP2wDxZk2P3YXx8758rSCtsAAI3itwX55Zf6Qbusys2T/B0m10wG/tHLNUsFsNJMwOv9uGOnRwe2npRes+7IgDwXBLjk18/Jk58ma/7kU7VMuYLWBO+8rqTal73ypAvU+WOzaQPvB+8FMD6qnTPs2nHd6+0FSz1Omq0bqXpV77G4blR1uwXFSrXlci3qcVJXNfVk1fbf8H0bNB0Z0ou55VLfh3pfiTa3Dm6ZLrpuuV2d3heVare7eSk6+SNqR6vJqx/nHtHrWiGy3q6bLr/1pYGDZknDLnMAx7gRnD04ZKytUx5PdW0U113LNio3dPvLTyCNV61/TbABSXewnOSqOaF0Qzk6OV0jfDKBs+Qz5aRFpy6vXxs33nXDWi6MqU9fQsn9NQFh11JV/K38/obU/j11Zcw9mqX2Vcb3rKW67NrPlPoOXcFqqPf66dojQ4dkRefjXvDCbkN2ph7qnh989sb+q3QcmCuR0Xmhu0eu75TOtnMyZn7EdRDNBeerOKb9862IW77bD4bl1qi/dUiGJ37KW6biMSb2jNL/qs+w/pT7DPpcERtAvJHbAAA15PLoL20w7PZVZsywec3fDrpoXpaBf3BhJz3W2V8ctdO6dpmn3vF3LuC1fNkryWt6PLSREzZYdWunvGLmvyKdOovty19K4bf6BSd+/ag8f7udZQJ2uU45+lCn3RYzptlR+Ul+nre90bY8r15VzPZ+LCe8mxmY1+N1AJiQ9d1xG8O0kcSr4+l6lUR1QauqdguKlWzL6cfesEOujholxOQe8drpGd9HUZvbXDBP13FnrVyZrCOj3Z6mkz/8v0n9uFE0ZtDMpFt2ydj392dmWpiUSz3gd2YmR7VUo3JwRdG4QbOaFpcPKpWlGtDbd0n+w65JZIypdWz2x3ErYWGTemdlTXNXyIq503QpxHQ7dd3Moknf+c/tXx2x7xab4lqUmpuiA6jJOpJMsuzvMFGi++6cJlkRBxfQUPTdduMAdFQ+VHEcqMeL3ZUu3SV6cetKablX7I+4TvePukhXOKYryuxuPkuaFk4iOB1T641+2NU2n7u3RVaqCqAJ6OlKiLguCzd0GwCgViRdM3XGl+nS6HWJtF00L8kFky22XDrvCYbij8cca5ct+XnmUeTy71wNTWeBma6SYdaZ868WSrTk/G9UDm9d+iLYXj/rzNueVVHV+LaFSeMOQLaSw/wEdL2wzHurb7egWKm2nNqvD3SKuIvYug4unWuSci3VBdPe/MEq0ebOrONOhq0fo/41XtBMnxzmTpLZaY86YPbm3F1l+rpXSzcwoyyMQJUBqWz6JLaNdlOwTjRjzJ3wWUE8kzUzXYGw8TA/Pn4Qw03ed6d/gPS8XfcWpCvzB8hmHJoAqls+PfBn+B3aAIlVJhAwpQUqals1x0F0pWtEhj9cbK5w6ewz/SM+ors1RudbFcd0WX6gLlBpbMbKkm6mI0PnbFaZviqnA/C6EhGVazd0GwCgRsRdM7PZLprzZaEZ5+wT+eVo0rHy48KAXI4DUv4YaJdloOB17fQyyewU3MHyv15w3TWTAN7yb8w3/5blZ72Zyb+7prc9UcYbgMz6jRkbelLturTK7RYUq9CWm9MiedEXrr1eEZoXE7DL6WGAfBlt7jJ13Inx25WoZw0XNBt5rzcdYfa5lMuka9RkuAZmjz+Oz4j09xxyYxepd+iAlZfxdf3kq9I76J5kUst7QTKd5WXZ6HqpscGunzzpbYN67wG1D6Jx3HRaqPTKq9EYXGYfuHGabrJx7w9TCHrbnqI+5xvJj41ZdyZV8KWyydx4U4YOdIgcetv70TLj3LnHihnnqfdVbyDKYP9iRqjmOLBjgr0phYUuq8z9iL/p/4CXPaaroJdvOyQ9fjB9pF96ou6fk2S7mb4pb16IBsLV58g5eVOPD+HKtRu9DQBQC+KujmFg637T4dF1eUzGOdPjjUUD7D/3uZ5zt6yKulS+b+ebjLIvROblt9huk3GmmZ2Swfydoky05fLt5nTWmg6CRTcCuPse190yzjSzkxkH7ba8u5GBtz2Z460BM5QZVsav34zIsd5oTNrJqrbdgmLl2nKabpOLFN47lvSK0MKsMd3zwz3U68hsc2fUcdPt7ErSY3+btq5qiZfv0ol60JDdM0/1ulRLb0oCTkHXKD1NMNKv786yq/Octz57C+M4w82Mj5X8vVdlrXS2udcyqRNbj0fm3m8GqDfdS3VhUa5BWvC2wQ4ynozjpqPo9gYF5nVvnKabruL+0GPCiXf3zGDb3WS/y1lqb3njT+ldn5mt463TvHdYxLs6kXtklwkqxusZaklfvVDbbAdxjJYP9y9mhGqOAzMm2ClZHFeudIbaKfXz6d+JqdwxXQ29vBu3MFreFDsVxmaslgnqnUoFA5vmqjI1Vf7c4G0AgGnnjUd2Rz7uImnkVtmAlwzI/sJlmZf/SRJIi7hulXd/56i8sizdrdJmit0tndF4Y+Xc/nw8lpnWfr+XiXZbu2zxXjPUvJ+UHKdsnrSv8//mcul8qIptAGYQ0y6I6zdBu25Sqm23oFj5tpxmenccPiSLU+NU28SRpI2nR5yLlGpzF9dxuz7U767WCumcO5wsq28Y6H3Ps1audTfZ4+6Z9eaWrxT3uOaNjo7KggUL3LMZZKRfXh5bQ6DmprgepwBPzY8kptvFixdnZrkBAMhU678L+q6b5q6ZupulvnEAAOpzDaKq7zHuWllPF2RHpH/Lm9I0XckpdUB/983Nze5ZfWngu2c2kFwHAbObxHYZpZsZAAAAANxsZiy56CZaQA0gaIYZ7frJl+MU2jiNlm5mAAAAAHDTRO0y0x4z3SWB2kD3TAANjXR+AICP3wWg/nDeNga+x5mL7pkAAAAAAABAAyFoBgAAAAAAAAQImgEAAAAAAAABgmYAAAAAAABAgKAZAAAAAAAAECBoBgAAAAAAAAQImgEAAAAAAAABgmYAAAAAAABAgKAZAAAAAAAAELjlK8U9rnmjo6PuEQAAAAAAAOpBc3Oze1Rf6i5oVq87GsD0oNwAAPj4XQDqD+dtY+B7nLnq+buneyYAAAAAAAAQIGgGAAAAAAAABAiaAQAAAAAAAAGCZgAAAAAAAECAoBkAAAAAAAAQIGgGAAAAAAAABAiaAQAAAAAAAAGCZgAAAAAAAECAoBkAAAAAAAAQIGgGAAAAAAAABAiaAQAAAAAAAAGCZgAAAAAAAECgAYNm1+T4S5tl82Y3vXRczUlcO/FC8pqajoy4F7KMHClavjadkSPeZ9r8+hk3f/LM/qqLfQBMkj7f/fNITWXLh1oWf5YjqnTwZHzGaKrbzwoAN9hHP/sz+bNX7LTrUzezIXwku8znekr6f+NmAQ1Dt4+CelCFdmJYT6JuNE2uHpcXNr8gx6+65zWKdvLMcctXintc80ZHR6W5udk9K0EVdkdknazL2adnXt8sO2SnHHh0qXqmCsrXh6T10dUyW7+oC8ZukZ0H1ol+tYh+/WiT7H3Kvb9GXTtxRIaWr5PVc8wz9WOwVQbze+WZVbW31fr7GJhXm9uGxlRVuaGF57v+wd6+R5b0HIjLk/qgK4kD0rT7GVcmZNM/9Fsvt7uyEQBmjqp/FwwdWHpW+t0zuePH8ovv3eOeTKdouzrkx092ycS2KFpHi3R1vCQd33SzgRo0nvPW1HF2F9SjTel23njaiaYeOChtFepTGJ/xlb+NZabXvev5u2+8TLNcUhBqS9dsk/zBIXeVYbasjgpCLdeqitKzcqXGo9iVzF4VBcw09Rkf3iSFwhBRb2Ay5qyWJ7bn5eyVOjuTrl5RpdoSmUsFDwAm7dL7+0zArOWODmnRMz5/Tz7S/06335wXkmCAYiYwUWiTvbtVG9DNi42nnajqge0bCzL4CS0qYKZr/DHNro5J4b4maXJPfddODEjfxvaKVw/GdOpllKobdH00aZleGu8LJ5KC1byWer9NCY5TfXVmy0vH5fjrXgqwSUdN1jeRtOBrV86KLJqbFPo+9zfPxNvtUl/1/Ojv+tvs3m8/VbT9fndQP3VWzw9SaePl7bI7DooUdm9NL+f/7WD59P4NU6wT4feQ3m/B9o7ofeyvy25bsnzwGTBjjV3WVymd1HGqpvg8Cc5rRV+59M+jdFkQHG9F71Nlgnm91HFY5njV27h9jxSkT3YE665Eb3NR+eWnnGeUBZnbAAAN45IMnh82j3KLN8p3btWP+uW9sIvmb/rlKdd900x9/WpJ59NdyXw9/SwKuV2S/j5v/iu74mDcpfefit8bP1bTU++7tep19u8Su2X98qz/mske89brb4vSuF1NAWv2qmfkQLW9hMq0E3Vd58p5kSVzs9cU1e1Mnc/UhWzbwm+T+PWqdHskfA1pYZsyve/i+miqbur484K6e2qfl2lzJ9+pnlyb0a031W5P/f1om4N2p/sMep0m+/HgjmR51I0GD5qpht3RPsnnW5OC0ztB9skTldMjP9gjA/p9Bw7IAX3FQh3o0UGuC8Wtu5fITv2amXbKkt1bx3cSqPWP3WWXX5dT2/ua7Q4Wra/Vva16Z+RddUJuuqvM5/I+097tInu2q/1xutX+TfMZB8o2gPu6h6TVbN8B2bmxIHteCwqrTLNl9VP6/SL57XvVsi7VWRc2pous+8w9S5L1qe9qn79/e0rtjWsydLlN9rr37d2el76jfgG2QyTep0+IHNVBhYhu/G+VPYt2utf131HbsL10gA4zhDr+Bg7mpW25Kj3McXpWtu2OjqO9su38DvfjO1ta8+qYOx0dMWdk6KD6J75yaYNv9py0x5vuPu2vJ1VmHBwUeUy/ltUdoMLxmltnz2HTHUG9No7076V3+Rmq6pwqqLPkg0EZcmWBDsbbspRzBsAM8ZtBeedL/aBDHlg2X9oWmVwz6T/n5ZqlAlhpJuB1PO7Y6dGBrcdkl1l3pF+eDQJc8vmz8thwsubhYbVMuUCXCd55XUm1L3fJYy5QpwNmz35uHhr9x4P3AjOKqs+E7UTfyLuy54NN0lpuiA7VLhxy7bidG+0FS9O+NHUjVa/a/W5cNzrz+g45a9pA+v17pX2uewGVjQx5bbmdskm1Zd/VdWfda8yrq0bf6aaHbdD0zGm/jel/H+p9JdrcOrhluuy65fZu90KqqXa7m5ei2sXbk3ayXz9e+qhto8pGu+76GvoFDRw0Sxp2qfGz5qyWZ9yB/IQq1splLxn3bZMnouVNmq647lq2Ubmpxx8Pbak8qAM2ceO5Cmr9DwYnTdIdbKksHdcJZQNEukAueyJ6n2n28jbVwM7LtjXuU8xplbb7CjJWJmjmf2aT1vzBmIy55+N15rT6sdr+YLIPcw/KNvELP6/7bE7tD/cwLZ1ObT5TtE2qkO1L7WP13sd0UMG5OiSD6gdxpx9c0NtwX58McQVg5lE/hltdUH2zN46FPU6fKNkN2hxz56+Yx6Z75MZt6hiKjl0dRHOVLne8tcdlkl1Pqswol/16I49XU/GIzmX9r/oMG6OyQJd3YgOInDMAZohLI+/YYNgdD5gxw+bnvhN00bwk/R+7sJMe6+zJX9hpU4fMV+846AJeLS2vJa/p8dA+fc8Gq27tktfM/NekS2exffmODPoD8sev/0J+fIedZQJ2y7rkFx1ddlvMmGa/kJfun+9tb7QtP1avKmZ7P5L3XMCsY7XblngdwExTop0YiS+Wlhj3OrJxZ9zm0hcf9RhqcR0vYxigwuWoxTRbtfEy/i6ypbrVLpXWuD2uH3tdaF0dNQp0Ln3U+/4yvo+iNre5YJ6u485etTpZR0a7PU21qf1jhvpxw2jMoJnJJtsqYw8fKJtpodN39VWBgQmlx6pG5Qd5aQoat7PnLhGJGs/jprOx9kpbQXdfVI32cXStMoW7Gfz7wPgG2Z8zV5ZM2/hHNu3Zdtd0gQr1ve35wDXUdYBzd5sM6kw49VrZDD7z+d06TPc0q2xXVS0zLXu2zF3kF6SYMdSPYZSxmGR6lUjPn9OUBGf1eeSudF37ZFCW3LVaWvNif8R14HZjq/0B1cdb1HUymrr7qi8zbujxqtYb/bCrbT6bb5XVqgJoAnq6EiJt0qr3B+cMgBkh6ZqpM75Ml0avS6TtonlJ/tFki7VI173BUPzxmGMd8sT9882jyKXfuQqNzgIzXSXDrDNn1iKJlpw/q3J469L1YHv9rDNvex5YZh6IfHORlG3/AY2oQjvRdM3TN4bKzPgvQ9cLS3b11AGcA7JTbNe8oi6FqEAHOZO6sx7uJ6ITOMRdxNZ1cPGTMcx3HS23Q9XAIyXa3GW7606ErR+j/jVe0EyfHNvHpP2Gpz3qBmaJjKxyQZqK9ElsG+2mYK0mcKYDRhMp3KedLUg2xamxyRR/d3Fm4E6R7hKBs/jzu+XDgT/DgIQJXDh+4CNQagwDzDRlAkLxD2t0peuMDBWWmCtcOvtM/4if0d0a57mfX1Oh8gNzbqp27I0berwm3UzPnD5rs8r0VTndzVSfM1G5xjkDYCaIu2Zms10058ufmHHOhuWdkaRj5Ufv98ulOCDlj4F2Sfrf97p2eplkdgruYHn9vOuumQTwWmalA3CZ/Kw3M/l31/S2J8p4A2aKCu1EHTDTd/mvul42Tjpwput9e/ODspXAWZVsVqAJcrp6sx7uJ6Z7SZleSl6vCM37ru1yO0XnAiYy2txl6rgTYy+8o/41XNDszLE96QizT508R/ysspEjsiMas2jcXAOz2+/eeUaOdPfF44mZrDNvXKNrJ/bJng/ck0xqeS9I1jQvCv3Y6Hp2ppV6zeu7Pb1sIDG5y4zdH+XoVOb0PvSo7yf5zHrd7mEgzCbTVxmioJjtqun6vRt2f8VMd9Q+2eEHJ81xUWEMA8woZryv3fu8sf7UcfSaKmu8cTDsmGADMrjIZZW5H/EB/wfczNsj+yY6+OsNPl5tN9MBGTjvsspMMPCsDOgyJhonkXMGwAwQd3UMA1urTYdH1+UxGedMjzcWDbD/rGkk3SMPRF0qj9v5JqPsusj8+5+w3SbjTDM7JYP5O0WZaC3ynVwYNEtuBHDPva67ZZxpZiczDto329yNDLztyRxvDWhcldqJumteMoTGVFL1xteTIJlpI6JKY0HvLjd2cEy3yUUGj72b9IrQwqwx3fPDPSzZ5s6o4147cTy7nZqpIHuO+cuqtr9U6tKJetCQ3TPT3f3sZIIvc+aK+K+ZvuoTz87S3Tv3bj/rdbWyA87HVy5y6+JBIfXr+6RdtpUI/FjqxD7v0nbVZG6XbNKGdWFRvkHa1x1tQzRNx93sZpvxwpJ9PCStPemYvkmhNa+77VP7KL0P1RRdeZnTJGfjz2UHT8+6KjR7Vbtscnci0dO+y0uSTDOdqaa2Idk/+0Qe9jPRbHquHow9Wt7emKDCGAaYWfQA+2Ywz+g4ssdjqiu0GROsIEvim3DoDLWC+vn0fsDN8WZvGBIfb2rKDohnucHHqwnqFVLBwKZ5qkxNlT+cMwAanTce2aK2uIuksewBG/CSftn3/iWZf/9LSSAt4rpV3vO9X8hrLelulTZT7B7pisYbK+eOH8djmWkdq71MtG92yBPea4aa91LJccrmS8cm/2+2SFdHFdsANJiS7UQjabfF05RkhKk6oXjj5up60w3KZms8esxwd+M6s/+GRPxMM8X07jjYJ0v8JBIzTra3z0/rEecipdrcxXXcrapaXH13zbxsmzeULKtvaOd9z36btfq6P2rBLV8p7nHNGx0dlebmZvdsBhk5Ii9ceXB8Y5WhNLU/TXdOfqxmhBlbbgAAMtX674K+66a5a6buZqlvHACA+lyDqOp7jLtW1tMFWX1DPj2+eL0Nl3Tz1PM53MB3z2wguXUEzKaM7TJa8vbSAAAAAIBpYYbaiW6iBdQAgmZocDrq79JyzbRDzm4PutUBAAAAAKbNtRMvJN0aM+5sCkwXumcCaGiUGwAAH78LQP3hvG0MfI8zVz1/92SaAQAAAAAAAAGCZgAAAAAAAECAoBkAAAAAAAAQIGgGAAAAAAAABAiaAQAAAAAAAAGCZgAAAAAAAECAoBkAAAAAAAAQIGgGAAAAAAAABAiaAQAAAAAAAIFbvlLc45o3OjrqHgEAAAAAAKAeNDc3u0f1pa6CZgAAAAAAAMDNQPdMAAAAAAAAIEDQDAAAAAAAAAgQNAMAAAAAAAACBM0AAAAAAACAAEEzAAAAAAAAIEDQDAAAAAAAAEgR+f8D+ciOCneRIR0AAAAASUVORK5CYII=;" vertex="1" parent="1">
          <mxGeometry x="-201" y="150" width="1229" height="839" as="geometry" />
        </mxCell>
        <mxCell id="pS6giOb3eDGtrHnew_XM-2" value="" style="rounded=0;whiteSpace=wrap;html=1;fillColor=none;strokeColor=#6c8ebf;strokeWidth=3;" vertex="1" parent="1">
          <mxGeometry x="110" y="280" width="260" height="40" as="geometry" />
        </mxCell>
        <mxCell id="pS6giOb3eDGtrHnew_XM-4" value="" style="rounded=0;whiteSpace=wrap;html=1;fillColor=none;strokeColor=#6c8ebf;strokeWidth=3;" vertex="1" parent="1">
          <mxGeometry x="110" y="910" width="260" height="40" as="geometry" />
        </mxCell>
        <mxCell id="pS6giOb3eDGtrHnew_XM-5" value="" style="rounded=0;whiteSpace=wrap;html=1;fillColor=none;strokeColor=#6c8ebf;strokeWidth=3;" vertex="1" parent="1">
          <mxGeometry x="110" y="830" width="260" height="40" as="geometry" />
        </mxCell>
        <mxCell id="pS6giOb3eDGtrHnew_XM-6" value="" style="rounded=0;whiteSpace=wrap;html=1;fillColor=none;strokeColor=#6c8ebf;strokeWidth=3;" vertex="1" parent="1">
          <mxGeometry x="110" y="690" width="260" height="40" as="geometry" />
        </mxCell>
        <mxCell id="pS6giOb3eDGtrHnew_XM-7" value="" style="rounded=0;whiteSpace=wrap;html=1;fillColor=none;strokeColor=#6c8ebf;strokeWidth=3;" vertex="1" parent="1">
          <mxGeometry x="110" y="610" width="260" height="40" as="geometry" />
        </mxCell>
        <mxCell id="pS6giOb3eDGtrHnew_XM-8" value="" style="rounded=0;whiteSpace=wrap;html=1;fillColor=none;strokeColor=#6c8ebf;strokeWidth=3;" vertex="1" parent="1">
          <mxGeometry x="110" y="350" width="260" height="40" as="geometry" />
        </mxCell>
        <mxCell id="pS6giOb3eDGtrHnew_XM-9" value="" style="rounded=0;whiteSpace=wrap;html=1;fillColor=none;strokeColor=#6c8ebf;strokeWidth=3;" vertex="1" parent="1">
          <mxGeometry x="110" y="420" width="260" height="40" as="geometry" />
        </mxCell>
        <mxCell id="pS6giOb3eDGtrHnew_XM-10" value="" style="rounded=0;whiteSpace=wrap;html=1;fillColor=none;strokeColor=#6c8ebf;strokeWidth=3;" vertex="1" parent="1">
          <mxGeometry x="110" y="570" width="260" height="40" as="geometry" />
        </mxCell>
        <mxCell id="pS6giOb3eDGtrHnew_XM-11" value="" style="rounded=0;whiteSpace=wrap;html=1;fillColor=none;strokeColor=#6c8ebf;strokeWidth=3;" vertex="1" parent="1">
          <mxGeometry x="110" y="460" width="260" height="40" as="geometry" />
        </mxCell>
        <mxCell id="pS6giOb3eDGtrHnew_XM-12" value="" style="rounded=0;whiteSpace=wrap;html=1;fillColor=none;strokeColor=#6c8ebf;strokeWidth=3;" vertex="1" parent="1">
          <mxGeometry x="110" y="730" width="260" height="40" as="geometry" />
        </mxCell>
      </root>
    </mxGraphModel>
  </diagram>
</mxfile>
